0
SECTION
2
HEADER
9
$ACADVER
1
AC1009
0
ENDSEC
0
SECTION
2
TABLES
0
TABLE
2
LAYER
70
1
0
LAYER
2
CONTOUR
70
0
62
7
6
CONTINUOUS
0
ENDTAB
0
ENDSEC
0
SECTION
2
ENTITIES
0
LINE
8
CONTOUR
10
0
20
0.001625
30
0
11
0.00010566
21
0.0016875
31
0
0
LINE
8
CONTOUR
10
0
20
0.008375
30
0
11
0.00010825
21
0.0084375
31
0
0
LINE
8
CONTOUR
10
0.00010566
20
0.0016875
30
0
11
0.00021343
21
0.0017491
31
0
0
LINE
8
CONTOUR
10
0.00010825
20
0.0084375
30
0
11
0.00022851
21
0.0085095
31
0
0
LINE
8
CONTOUR
10
0.00021343
20
0.0017491
30
0
11
0.00033272
21
0.0016832
31
0
0
LINE
8
CONTOUR
10
0.00022851
20
0.0085095
30
0
11
0.00031441
21
0.0084242
31
0
0
LINE
8
CONTOUR
10
0.00031441
20
0.0084242
30
0
11
0.00043887
21
0.0083544
31
0
0
LINE
8
CONTOUR
10
0.00033272
20
0.0016832
30
0
11
0.00042802
21
0.0016207
31
0
0
LINE
8
CONTOUR
10
0.00042802
20
0.0016207
30
0
11
0.00053956
21
0.0016284
31
0
0
LINE
8
CONTOUR
10
0.00043887
20
0.0083544
30
0
11
0.00054825
21
0.0083414
31
0
0
LINE
8
CONTOUR
10
0.00053956
20
0.0016284
30
0
11
0.00059812
21
0.0017376
31
0
0
LINE
8
CONTOUR
10
0.00054825
20
0.0083414
30
0
11
0.000616
21
0.0082315
31
0
0
LINE
8
CONTOUR
10
0.00059812
20
0.0017376
30
0
11
0.00068288
21
0.001842
31
0
0
LINE
8
CONTOUR
10
0.000616
20
0.0082315
30
0
11
0.00069365
21
0.0081244
31
0
0
LINE
8
CONTOUR
10
0.00068288
20
0.001842
30
0
11
0.00080857
21
0.0018412
31
0
0
LINE
8
CONTOUR
10
0.00069365
20
0.0081244
30
0
11
0.00080972
21
0.0081253
31
0
0
LINE
8
CONTOUR
10
0.00080857
20
0.0018412
30
0
11
0.00093685
21
0.0018405
31
0
0
LINE
8
CONTOUR
10
0.00080972
20
0.0081253
30
0
11
0.00093768
21
0.0081191
31
0
0
LINE
8
CONTOUR
10
0.00093685
20
0.0018405
30
0
11
0.0010619
21
0.0018405
31
0
0
LINE
8
CONTOUR
10
0.00093768
20
0.0081191
30
0
11
0.0010626
21
0.0081191
31
0
0
LINE
8
CONTOUR
10
0.0010619
20
0.0018405
30
0
11
0.0011875
21
0.0018403
31
0
0
LINE
8
CONTOUR
10
0.0010626
20
0.0081191
30
0
11
0.0011875
21
0.008119
31
0
0
LINE
8
CONTOUR
10
0.0011875
20
0.0018403
30
0
11
0.00125
21
0.0019486
31
0
0
LINE
8
CONTOUR
10
0.0011875
20
0.008119
30
0
11
0.0013125
21
0.008119
31
0
0
LINE
8
CONTOUR
10
0.00125
20
0.0019486
30
0
11
0.0013125
21
0.0020568
31
0
0
LINE
8
CONTOUR
10
0.0013125
20
0.0020568
30
0
11
0.0014375
21
0.0020568
31
0
0
LINE
8
CONTOUR
10
0.0013125
20
0.008119
30
0
11
0.0014375
21
0.008119
31
0
0
LINE
8
CONTOUR
10
0.0014375
20
0.0020568
30
0
11
0.0015625
21
0.0020568
31
0
0
LINE
8
CONTOUR
10
0.0014375
20
0.008119
30
0
11
0.0015
21
0.0080107
31
0
0
LINE
8
CONTOUR
10
0.0015
20
0.0080107
30
0
11
0.0015625
21
0.0079025
31
0
0
LINE
8
CONTOUR
10
0.0015625
20
0.0020568
30
0
11
0.0016875
21
0.0020568
31
0
0
LINE
8
CONTOUR
10
0.0015625
20
0.0079025
30
0
11
0.0016875
21
0.0079025
31
0
0
LINE
8
CONTOUR
10
0.0016875
20
0.0020568
30
0
11
0.0018125
21
0.0020568
31
0
0
LINE
8
CONTOUR
10
0.0016875
20
0.0079025
30
0
11
0.0018125
21
0.0079025
31
0
0
LINE
8
CONTOUR
10
0.0018125
20
0.0020568
30
0
11
0.0019375
21
0.0020568
31
0
0
LINE
8
CONTOUR
10
0.0018125
20
0.0079025
30
0
11
0.0019375
21
0.0079025
31
0
0
LINE
8
CONTOUR
10
0.0019375
20
0.0020568
30
0
11
0.0020625
21
0.0020568
31
0
0
LINE
8
CONTOUR
10
0.0019375
20
0.0079025
30
0
11
0.0020625
21
0.0079025
31
0
0
LINE
8
CONTOUR
10
0.0020625
20
0.0020568
30
0
11
0.0021254
21
0.0021651
31
0
0
LINE
8
CONTOUR
10
0.0020625
20
0.0079025
30
0
11
0.0021875
21
0.0079025
31
0
0
LINE
8
CONTOUR
10
0.0021254
20
0.0021651
30
0
11
0.0021877
21
0.002273
31
0
0
LINE
8
CONTOUR
10
0.0021875
20
0.0079025
30
0
11
0.0023125
21
0.0079025
31
0
0
LINE
8
CONTOUR
10
0.0021877
20
0.002273
30
0
11
0.0023123
21
0.002273
31
0
0
LINE
8
CONTOUR
10
0.0023123
20
0.002273
30
0
11
0.0024375
21
0.0022733
31
0
0
LINE
8
CONTOUR
10
0.0023125
20
0.0079025
30
0
11
0.0023758
21
0.0077942
31
0
0
LINE
8
CONTOUR
10
0.0023758
20
0.0077942
30
0
11
0.0024379
21
0.0076867
31
0
0
LINE
8
CONTOUR
10
0.0024375
20
0.0022733
30
0
11
0.0025625
21
0.0022733
31
0
0
LINE
8
CONTOUR
10
0.0024379
20
0.0076867
30
0
11
0.0025621
21
0.0076867
31
0
0
LINE
8
CONTOUR
10
0.0025621
20
0.0076867
30
0
11
0.0026875
21
0.007686
31
0
0
LINE
8
CONTOUR
10
0.0025625
20
0.0022733
30
0
11
0.0026875
21
0.0022733
31
0
0
LINE
8
CONTOUR
10
0.0026875
20
0.0022733
30
0
11
0.0028125
21
0.0022733
31
0
0
LINE
8
CONTOUR
10
0.0026875
20
0.007686
30
0
11
0.0028125
21
0.007686
31
0
0
LINE
8
CONTOUR
10
0.0028125
20
0.0022733
30
0
11
0.0029375
21
0.0022733
31
0
0
LINE
8
CONTOUR
10
0.0028125
20
0.007686
30
0
11
0.0029375
21
0.007686
31
0
0
LINE
8
CONTOUR
10
0.0029375
20
0.0022733
30
0
11
0.0030625
21
0.0022733
31
0
0
LINE
8
CONTOUR
10
0.0029375
20
0.007686
30
0
11
0.0030625
21
0.007686
31
0
0
LINE
8
CONTOUR
10
0.0030625
20
0.0022733
30
0
11
0.0031875
21
0.0022733
31
0
0
LINE
8
CONTOUR
10
0.0030625
20
0.007686
30
0
11
0.0031875
21
0.007686
31
0
0
LINE
8
CONTOUR
10
0.0031875
20
0.0022733
30
0
11
0.0032529
21
0.0023816
31
0
0
LINE
8
CONTOUR
10
0.0031875
20
0.007686
30
0
11
0.0033125
21
0.007686
31
0
0
LINE
8
CONTOUR
10
0.0032529
20
0.0023816
30
0
11
0.0033139
21
0.0024873
31
0
0
LINE
8
CONTOUR
10
0.0033125
20
0.007686
30
0
11
0.0034375
21
0.007686
31
0
0
LINE
8
CONTOUR
10
0.0033139
20
0.0024873
30
0
11
0.0034361
21
0.0024873
31
0
0
LINE
8
CONTOUR
10
0.0034361
20
0.0024873
30
0
11
0.0035625
21
0.0024898
31
0
0
LINE
8
CONTOUR
10
0.0034375
20
0.007686
30
0
11
0.0035006
21
0.0075777
31
0
0
LINE
8
CONTOUR
10
0.0035006
20
0.0075777
30
0
11
0.0035628
21
0.00747
31
0
0
LINE
8
CONTOUR
10
0.0035625
20
0.0024898
30
0
11
0.0036875
21
0.0024898
31
0
0
LINE
8
CONTOUR
10
0.0035628
20
0.00747
30
0
11
0.0036872
21
0.00747
31
0
0
LINE
8
CONTOUR
10
0.0036872
20
0.00747
30
0
11
0.0038125
21
0.0074695
31
0
0
LINE
8
CONTOUR
10
0.0036875
20
0.0024898
30
0
11
0.0038125
21
0.0024898
31
0
0
LINE
8
CONTOUR
10
0.0038125
20
0.0024898
30
0
11
0.0039375
21
0.0024898
31
0
0
LINE
8
CONTOUR
10
0.0038125
20
0.0074695
30
0
11
0.0039375
21
0.0074695
31
0
0
LINE
8
CONTOUR
10
0.0039375
20
0.0024898
30
0
11
0.0040625
21
0.0024898
31
0
0
LINE
8
CONTOUR
10
0.0039375
20
0.0074695
30
0
11
0.0040625
21
0.0074695
31
0
0
LINE
8
CONTOUR
10
0.0040625
20
0.0024898
30
0
11
0.0041875
21
0.0024898
31
0
0
LINE
8
CONTOUR
10
0.0040625
20
0.0074695
30
0
11
0.0041875
21
0.0074695
31
0
0
LINE
8
CONTOUR
10
0.0041875
20
0.0024898
30
0
11
0.0043125
21
0.0024898
31
0
0
LINE
8
CONTOUR
10
0.0041875
20
0.0074695
30
0
11
0.0043125
21
0.0074695
31
0
0
LINE
8
CONTOUR
10
0.0043125
20
0.0024898
30
0
11
0.004375
21
0.0025981
31
0
0
LINE
8
CONTOUR
10
0.0043125
20
0.0074695
30
0
11
0.0044375
21
0.0074695
31
0
0
LINE
8
CONTOUR
10
0.004375
20
0.0025981
30
0
11
0.0044375
21
0.0027063
31
0
0
LINE
8
CONTOUR
10
0.0044375
20
0.0027063
30
0
11
0.0045625
21
0.0027063
31
0
0
LINE
8
CONTOUR
10
0.0044375
20
0.0074695
30
0
11
0.0045625
21
0.0074695
31
0
0
LINE
8
CONTOUR
10
0.0045625
20
0.0027063
30
0
11
0.0046875
21
0.0027063
31
0
0
LINE
8
CONTOUR
10
0.0045625
20
0.0074695
30
0
11
0.004625
21
0.0073612
31
0
0
LINE
8
CONTOUR
10
0.004625
20
0.0073612
30
0
11
0.0046875
21
0.007253
31
0
0
LINE
8
CONTOUR
10
0.0046875
20
0.0027063
30
0
11
0.0048125
21
0.0027063
31
0
0
LINE
8
CONTOUR
10
0.0046875
20
0.007253
30
0
11
0.0048125
21
0.007253
31
0
0
LINE
8
CONTOUR
10
0.0048125
20
0.0027063
30
0
11
0.0049375
21
0.0027063
31
0
0
LINE
8
CONTOUR
10
0.0048125
20
0.007253
30
0
11
0.0049375
21
0.007253
31
0
0
LINE
8
CONTOUR
10
0.0049375
20
0.0027063
30
0
11
0.0050028
21
0.0028146
31
0
0
LINE
8
CONTOUR
10
0.0049375
20
0.007253
30
0
11
0.0050625
21
0.007253
31
0
0
LINE
8
CONTOUR
10
0.0050028
20
0.0028146
30
0
11
0.0050639
21
0.0029204
31
0
0
LINE
8
CONTOUR
10
0.0050625
20
0.007253
30
0
11
0.0051875
21
0.007253
31
0
0
LINE
8
CONTOUR
10
0.0050639
20
0.0029204
30
0
11
0.0051861
21
0.0029204
31
0
0
LINE
8
CONTOUR
10
0.0051861
20
0.0029204
30
0
11
0.0053125
21
0.0029228
31
0
0
LINE
8
CONTOUR
10
0.0051875
20
0.007253
30
0
11
0.00525
21
0.0071447
31
0
0
LINE
8
CONTOUR
10
0.00525
20
0.0071447
30
0
11
0.0053125
21
0.0070365
31
0
0
LINE
8
CONTOUR
10
0.0053125
20
0.0029228
30
0
11
0.0054375
21
0.0029228
31
0
0
LINE
8
CONTOUR
10
0.0053125
20
0.0070365
30
0
11
0.0054375
21
0.0070365
31
0
0
LINE
8
CONTOUR
10
0.0054375
20
0.0029228
30
0
11
0.0055625
21
0.0029228
31
0
0
LINE
8
CONTOUR
10
0.0054375
20
0.0070365
30
0
11
0.0055625
21
0.0070365
31
0
0
LINE
8
CONTOUR
10
0.0055625
20
0.0029228
30
0
11
0.005625
21
0.0030311
31
0
0
LINE
8
CONTOUR
10
0.0055625
20
0.0070365
30
0
11
0.005625
21
0.0069282
31
0
0
LINE
8
CONTOUR
10
0.005625
20
0.0030311
30
0
11
0.0056875
21
0.0031393
31
0
0
LINE
8
CONTOUR
10
0.005625
20
0.0069282
30
0
11
0.0056875
21
0.00682
31
0
0
LINE
8
CONTOUR
10
0.0056875
20
0.0031393
30
0
11
0.0058125
21
0.0031393
31
0
0
LINE
8
CONTOUR
10
0.0056875
20
0.00682
30
0
11
0.0058125
21
0.00682
31
0
0
LINE
8
CONTOUR
10
0.0058125
20
0.0031393
30
0
11
0.0059375
21
0.0031393
31
0
0
LINE
8
CONTOUR
10
0.0058125
20
0.00682
30
0
11
0.0059375
21
0.00682
31
0
0
LINE
8
CONTOUR
10
0.0059375
20
0.0031393
30
0
11
0.006
21
0.0032476
31
0
0
LINE
8
CONTOUR
10
0.0059375
20
0.00682
30
0
11
0.006
21
0.0067117
31
0
0
LINE
8
CONTOUR
10
0.006
20
0.0032476
30
0
11
0.0060625
21
0.0033558
31
0
0
LINE
8
CONTOUR
10
0.006
20
0.0067117
30
0
11
0.0060625
21
0.0066034
31
0
0
LINE
8
CONTOUR
10
0.0060625
20
0.0033558
30
0
11
0.0061875
21
0.0033558
31
0
0
LINE
8
CONTOUR
10
0.0060625
20
0.0066034
30
0
11
0.0061875
21
0.0066034
31
0
0
LINE
8
CONTOUR
10
0.006125
20
0.0077942
30
0
11
0.0061875
21
0.007686
31
0
0
LINE
8
CONTOUR
10
0.006125
20
0.0077942
30
0
11
0.0061875
21
0.0079025
31
0
0
LINE
8
CONTOUR
10
0.0061875
20
0.0033558
30
0
11
0.0063125
21
0.0033558
31
0
0
LINE
8
CONTOUR
10
0.0061875
20
0.0066034
30
0
11
0.0063125
21
0.0066034
31
0
0
LINE
8
CONTOUR
10
0.0061875
20
0.007686
30
0
11
0.0062502
21
0.0075777
31
0
0
LINE
8
CONTOUR
10
0.0061875
20
0.0079025
30
0
11
0.0063125
21
0.0079025
31
0
0
LINE
8
CONTOUR
10
0.00625
20
0.0023816
30
0
11
0.0063045
21
0.0022595
31
0
0
LINE
8
CONTOUR
10
0.00625
20
0.0023816
30
0
11
0.0063125
21
0.0024898
31
0
0
LINE
8
CONTOUR
10
0.0062502
20
0.0075777
30
0
11
0.0063126
21
0.0074697
31
0
0
LINE
8
CONTOUR
10
0.0063045
20
0.0022595
30
0
11
0.0063591
21
0.0021651
31
0
0
LINE
8
CONTOUR
10
0.0063125
20
0.0024898
30
0
11
0.0064375
21
0.0024898
31
0
0
LINE
8
CONTOUR
10
0.0063125
20
0.0033558
30
0
11
0.006375
21
0.0034641
31
0
0
LINE
8
CONTOUR
10
0.0063125
20
0.0066034
30
0
11
0.006375
21
0.0064952
31
0
0
LINE
8
CONTOUR
10
0.0063125
20
0.0079025
30
0
11
0.0064375
21
0.0079025
31
0
0
LINE
8
CONTOUR
10
0.0063126
20
0.0074697
30
0
11
0.0064374
21
0.0074697
31
0
0
LINE
8
CONTOUR
10
0.0063591
20
0.0021651
30
0
11
0.0064375
21
0.0020568
31
0
0
LINE
8
CONTOUR
10
0.006375
20
0.0034641
30
0
11
0.0064375
21
0.0035724
31
0
0
LINE
8
CONTOUR
10
0.006375
20
0.0064952
30
0
11
0.0064375
21
0.0063869
31
0
0
LINE
8
CONTOUR
10
0.0064374
20
0.0074697
30
0
11
0.0065625
21
0.0074695
31
0
0
LINE
8
CONTOUR
10
0.0064375
20
0.0020568
30
0
11
0.0065625
21
0.0020568
31
0
0
LINE
8
CONTOUR
10
0.0064375
20
0.0024898
30
0
11
0.0065625
21
0.0024898
31
0
0
LINE
8
CONTOUR
10
0.0064375
20
0.0035724
30
0
11
0.0065625
21
0.0035724
31
0
0
LINE
8
CONTOUR
10
0.0064375
20
0.0063869
30
0
11
0.0065625
21
0.0063869
31
0
0
LINE
8
CONTOUR
10
0.0064375
20
0.0079025
30
0
11
0.0065003
21
0.0080107
31
0
0
LINE
8
CONTOUR
10
0.0065003
20
0.0080107
30
0
11
0.0065627
21
0.0081187
31
0
0
LINE
8
CONTOUR
10
0.0065625
20
0.0020568
30
0
11
0.0066875
21
0.0020568
31
0
0
LINE
8
CONTOUR
10
0.0065625
20
0.0024898
30
0
11
0.006625
21
0.0025981
31
0
0
LINE
8
CONTOUR
10
0.0065625
20
0.0035724
30
0
11
0.0066875
21
0.0035724
31
0
0
LINE
8
CONTOUR
10
0.0065625
20
0.0063869
30
0
11
0.0066875
21
0.0063869
31
0
0
LINE
8
CONTOUR
10
0.0065625
20
0.0074695
30
0
11
0.0066876
21
0.0074692
31
0
0
LINE
8
CONTOUR
10
0.0065627
20
0.0081187
30
0
11
0.0066873
21
0.0081187
31
0
0
LINE
8
CONTOUR
10
0.006625
20
0.0025981
30
0
11
0.0066875
21
0.0027063
31
0
0
LINE
8
CONTOUR
10
0.0066873
20
0.0081187
30
0
11
0.0068125
21
0.008119
31
0
0
LINE
8
CONTOUR
10
0.0066875
20
0.0020568
30
0
11
0.0068125
21
0.0020568
31
0
0
LINE
8
CONTOUR
10
0.0066875
20
0.0027063
30
0
11
0.0068125
21
0.0027063
31
0
0
LINE
8
CONTOUR
10
0.0066875
20
0.0035724
30
0
11
0.00675
21
0.0036806
31
0
0
LINE
8
CONTOUR
10
0.0066875
20
0.0063869
30
0
11
0.00675
21
0.0062787
31
0
0
LINE
8
CONTOUR
10
0.0066876
20
0.0074692
30
0
11
0.0068124
21
0.0074692
31
0
0
LINE
8
CONTOUR
10
0.00675
20
0.0036806
30
0
11
0.0068125
21
0.0037889
31
0
0
LINE
8
CONTOUR
10
0.00675
20
0.0062787
30
0
11
0.0068125
21
0.0061704
31
0
0
LINE
8
CONTOUR
10
0.0068124
20
0.0074692
30
0
11
0.0068747
21
0.0073612
31
0
0
LINE
8
CONTOUR
10
0.0068125
20
0.0020568
30
0
11
0.0069375
21
0.0020568
31
0
0
LINE
8
CONTOUR
10
0.0068125
20
0.0027063
30
0
11
0.0069375
21
0.0027063
31
0
0
LINE
8
CONTOUR
10
0.0068125
20
0.0037889
30
0
11
0.0069375
21
0.0037889
31
0
0
LINE
8
CONTOUR
10
0.0068125
20
0.0061704
30
0
11
0.0069375
21
0.0061704
31
0
0
LINE
8
CONTOUR
10
0.0068125
20
0.008119
30
0
11
0.0069375
21
0.008119
31
0
0
LINE
8
CONTOUR
10
0.0068747
20
0.0073612
30
0
11
0.0069375
21
0.007253
31
0
0
LINE
8
CONTOUR
10
0.0069375
20
0.0020568
30
0
11
0.0070625
21
0.0020568
31
0
0
LINE
8
CONTOUR
10
0.0069375
20
0.0027063
30
0
11
0.007
21
0.0028146
31
0
0
LINE
8
CONTOUR
10
0.0069375
20
0.0037889
30
0
11
0.0070625
21
0.0037889
31
0
0
LINE
8
CONTOUR
10
0.0069375
20
0.0061704
30
0
11
0.0070625
21
0.0061704
31
0
0
LINE
8
CONTOUR
10
0.0069375
20
0.007253
30
0
11
0.0070625
21
0.007253
31
0
0
LINE
8
CONTOUR
10
0.0069375
20
0.008119
30
0
11
0.0070625
21
0.008119
31
0
0
LINE
8
CONTOUR
10
0.007
20
0.0028146
30
0
11
0.0070625
21
0.0029228
31
0
0
LINE
8
CONTOUR
10
0.0070625
20
0.0020568
30
0
11
0.0071875
21
0.0020568
31
0
0
LINE
8
CONTOUR
10
0.0070625
20
0.0029228
30
0
11
0.0071875
21
0.0029228
31
0
0
LINE
8
CONTOUR
10
0.0070625
20
0.0037889
30
0
11
0.007125
21
0.0038971
31
0
0
LINE
8
CONTOUR
10
0.0070625
20
0.0061704
30
0
11
0.007125
21
0.0060622
31
0
0
LINE
8
CONTOUR
10
0.0070625
20
0.007253
30
0
11
0.0071875
21
0.007253
31
0
0
LINE
8
CONTOUR
10
0.0070625
20
0.008119
30
0
11
0.0071875
21
0.008119
31
0
0
LINE
8
CONTOUR
10
0.007125
20
0.0038971
30
0
11
0.0071875
21
0.0040054
31
0
0
LINE
8
CONTOUR
10
0.007125
20
0.0060622
30
0
11
0.0071875
21
0.0059539
31
0
0
LINE
8
CONTOUR
10
0.0071875
20
0.0020568
30
0
11
0.0073125
21
0.0020568
31
0
0
LINE
8
CONTOUR
10
0.0071875
20
0.0029228
30
0
11
0.0073125
21
0.0029228
31
0
0
LINE
8
CONTOUR
10
0.0071875
20
0.0040054
30
0
11
0.0073125
21
0.0040054
31
0
0
LINE
8
CONTOUR
10
0.0071875
20
0.0059539
30
0
11
0.0073125
21
0.0059539
31
0
0
LINE
8
CONTOUR
10
0.0071875
20
0.007253
30
0
11
0.00725
21
0.0071447
31
0
0
LINE
8
CONTOUR
10
0.0071875
20
0.008119
30
0
11
0.0073125
21
0.008119
31
0
0
LINE
8
CONTOUR
10
0.00725
20
0.0071447
30
0
11
0.0073125
21
0.0070365
31
0
0
LINE
8
CONTOUR
10
0.0073125
20
0.0020568
30
0
11
0.0074375
21
0.0020568
31
0
0
LINE
8
CONTOUR
10
0.0073125
20
0.0029228
30
0
11
0.007375
21
0.0030311
31
0
0
LINE
8
CONTOUR
10
0.0073125
20
0.0040054
30
0
11
0.0074375
21
0.0040054
31
0
0
LINE
8
CONTOUR
10
0.0073125
20
0.0059539
30
0
11
0.0074375
21
0.0059539
31
0
0
LINE
8
CONTOUR
10
0.0073125
20
0.0070365
30
0
11
0.0074375
21
0.0070365
31
0
0
LINE
8
CONTOUR
10
0.0073125
20
0.008119
30
0
11
0.0074375
21
0.008119
31
0
0
LINE
8
CONTOUR
10
0.007375
20
0.0030311
30
0
11
0.0074375
21
0.0031393
31
0
0
LINE
8
CONTOUR
10
0.0074375
20
0.0020568
30
0
11
0.0075625
21
0.0020568
31
0
0
LINE
8
CONTOUR
10
0.0074375
20
0.0031393
30
0
11
0.0075625
21
0.0031393
31
0
0
LINE
8
CONTOUR
10
0.0074375
20
0.0040054
30
0
11
0.0075
21
0.0041136
31
0
0
LINE
8
CONTOUR
10
0.0074375
20
0.0059539
30
0
11
0.0075
21
0.0058457
31
0
0
LINE
8
CONTOUR
10
0.0074375
20
0.0070365
30
0
11
0.0075625
21
0.0070365
31
0
0
LINE
8
CONTOUR
10
0.0074375
20
0.008119
30
0
11
0.0075625
21
0.008119
31
0
0
LINE
8
CONTOUR
10
0.0075
20
0.0041136
30
0
11
0.0075625
21
0.0042219
31
0
0
LINE
8
CONTOUR
10
0.0075
20
0.0058457
30
0
11
0.0075625
21
0.0057374
31
0
0
LINE
8
CONTOUR
10
0.0075625
20
0.0020568
30
0
11
0.0076875
21
0.0020568
31
0
0
LINE
8
CONTOUR
10
0.0075625
20
0.0031393
30
0
11
0.0076875
21
0.0031393
31
0
0
LINE
8
CONTOUR
10
0.0075625
20
0.0042219
30
0
11
0.0076875
21
0.0042219
31
0
0
LINE
8
CONTOUR
10
0.0075625
20
0.0057374
30
0
11
0.0076875
21
0.0057374
31
0
0
LINE
8
CONTOUR
10
0.0075625
20
0.0070365
30
0
11
0.007625
21
0.0069282
31
0
0
LINE
8
CONTOUR
10
0.0075625
20
0.008119
30
0
11
0.0076875
21
0.008119
31
0
0
LINE
8
CONTOUR
10
0.007625
20
0.0069282
30
0
11
0.0076875
21
0.00682
31
0
0
LINE
8
CONTOUR
10
0.0076875
20
0.0020568
30
0
11
0.00775
21
0.0019486
31
0
0
LINE
8
CONTOUR
10
0.0076875
20
0.0031393
30
0
11
0.0077502
21
0.0032476
31
0
0
LINE
8
CONTOUR
10
0.0076875
20
0.0042219
30
0
11
0.0078125
21
0.0042219
31
0
0
LINE
8
CONTOUR
10
0.0076875
20
0.0057374
30
0
11
0.0078125
21
0.0057374
31
0
0
LINE
8
CONTOUR
10
0.0076875
20
0.00682
30
0
11
0.0078125
21
0.00682
31
0
0
LINE
8
CONTOUR
10
0.0076875
20
0.008119
30
0
11
0.0078125
21
0.008119
31
0
0
LINE
8
CONTOUR
10
0.00775
20
0.0019486
30
0
11
0.0078125
21
0.0018403
31
0
0
LINE
8
CONTOUR
10
0.0077502
20
0.0032476
30
0
11
0.0078126
21
0.0033557
31
0
0
LINE
8
CONTOUR
10
0.0078125
20
0.0018403
30
0
11
0.0079375
21
0.0018403
31
0
0
LINE
8
CONTOUR
10
0.0078125
20
0.0042219
30
0
11
0.007875
21
0.0043301
31
0
0
LINE
8
CONTOUR
10
0.0078125
20
0.0057374
30
0
11
0.007875
21
0.0056292
31
0
0
LINE
8
CONTOUR
10
0.0078125
20
0.00682
30
0
11
0.0079375
21
0.00682
31
0
0
LINE
8
CONTOUR
10
0.0078125
20
0.008119
30
0
11
0.0079375
21
0.008119
31
0
0
LINE
8
CONTOUR
10
0.0078126
20
0.0033557
30
0
11
0.0079374
21
0.0033557
31
0
0
LINE
8
CONTOUR
10
0.007875
20
0.0043301
30
0
11
0.0079375
21
0.0044384
31
0
0
LINE
8
CONTOUR
10
0.007875
20
0.0056292
30
0
11
0.0079375
21
0.0055209
31
0
0
LINE
8
CONTOUR
10
0.0079374
20
0.0033557
30
0
11
0.0080625
21
0.0033558
31
0
0
LINE
8
CONTOUR
10
0.0079375
20
0.0018403
30
0
11
0.0080625
21
0.0018403
31
0
0
LINE
8
CONTOUR
10
0.0079375
20
0.0044384
30
0
11
0.0080625
21
0.0044384
31
0
0
LINE
8
CONTOUR
10
0.0079375
20
0.0055209
30
0
11
0.0080625
21
0.0055209
31
0
0
LINE
8
CONTOUR
10
0.0079375
20
0.00682
30
0
11
0.008
21
0.0067117
31
0
0
LINE
8
CONTOUR
10
0.0079375
20
0.008119
30
0
11
0.0080625
21
0.008119
31
0
0
LINE
8
CONTOUR
10
0.008
20
0.0067117
30
0
11
0.0080625
21
0.0066034
31
0
0
LINE
8
CONTOUR
10
0.0080625
20
0.0018403
30
0
11
0.0081875
21
0.0018403
31
0
0
LINE
8
CONTOUR
10
0.0080625
20
0.0033558
30
0
11
0.0081875
21
0.0033558
31
0
0
LINE
8
CONTOUR
10
0.0080625
20
0.0044384
30
0
11
0.0081875
21
0.0044384
31
0
0
LINE
8
CONTOUR
10
0.0080625
20
0.0055209
30
0
11
0.0081875
21
0.0055209
31
0
0
LINE
8
CONTOUR
10
0.0080625
20
0.0066034
30
0
11
0.0081875
21
0.0066034
31
0
0
LINE
8
CONTOUR
10
0.0080625
20
0.008119
30
0
11
0.0081875
21
0.008119
31
0
0
LINE
8
CONTOUR
10
0.0081875
20
0.0018403
30
0
11
0.0083125
21
0.0018403
31
0
0
LINE
8
CONTOUR
10
0.0081875
20
0.0033558
30
0
11
0.0083125
21
0.0033558
31
0
0
LINE
8
CONTOUR
10
0.0081875
20
0.0044384
30
0
11
0.00825
21
0.0045466
31
0
0
LINE
8
CONTOUR
10
0.0081875
20
0.0055209
30
0
11
0.00825
21
0.0054127
31
0
0
LINE
8
CONTOUR
10
0.0081875
20
0.0066034
30
0
11
0.0083125
21
0.0066034
31
0
0
LINE
8
CONTOUR
10
0.0081875
20
0.008119
30
0
11
0.0083125
21
0.008119
31
0
0
LINE
8
CONTOUR
10
0.00825
20
0.0045466
30
0
11
0.0083125
21
0.0046549
31
0
0
LINE
8
CONTOUR
10
0.00825
20
0.0054127
30
0
11
0.0083125
21
0.0053044
31
0
0
LINE
8
CONTOUR
10
0.0083125
20
0.0018403
30
0
11
0.0084375
21
0.0018403
31
0
0
LINE
8
CONTOUR
10
0.0083125
20
0.0033558
30
0
11
0.008375
21
0.0034641
31
0
0
LINE
8
CONTOUR
10
0.0083125
20
0.0046549
30
0
11
0.0084375
21
0.0046549
31
0
0
LINE
8
CONTOUR
10
0.0083125
20
0.0053044
30
0
11
0.0084375
21
0.0053044
31
0
0
LINE
8
CONTOUR
10
0.0083125
20
0.0066034
30
0
11
0.008375
21
0.0064952
31
0
0
LINE
8
CONTOUR
10
0.0083125
20
0.008119
30
0
11
0.0084375
21
0.008119
31
0
0
LINE
8
CONTOUR
10
0.008375
20
0.0034641
30
0
11
0.0084375
21
0.0035724
31
0
0
LINE
8
CONTOUR
10
0.008375
20
0.0064952
30
0
11
0.0084375
21
0.0063869
31
0
0
LINE
8
CONTOUR
10
0.0084375
20
0.0018403
30
0
11
0.0085625
21
0.0018403
31
0
0
LINE
8
CONTOUR
10
0.0084375
20
0.0035724
30
0
11
0.0085625
21
0.0035724
31
0
0
LINE
8
CONTOUR
10
0.0084375
20
0.0046549
30
0
11
0.0085625
21
0.0046549
31
0
0
LINE
8
CONTOUR
10
0.0084375
20
0.0053044
30
0
11
0.0085625
21
0.0053044
31
0
0
LINE
8
CONTOUR
10
0.0084375
20
0.0063869
30
0
11
0.0085625
21
0.0063869
31
0
0
LINE
8
CONTOUR
10
0.0084375
20
0.008119
30
0
11
0.0085625
21
0.008119
31
0
0
LINE
8
CONTOUR
10
0.0085625
20
0.0018403
30
0
11
0.0086875
21
0.0018403
31
0
0
LINE
8
CONTOUR
10
0.0085625
20
0.0035724
30
0
11
0.0086875
21
0.0035724
31
0
0
LINE
8
CONTOUR
10
0.0085625
20
0.0046549
30
0
11
0.008625
21
0.0047631
31
0
0
LINE
8
CONTOUR
10
0.0085625
20
0.0053044
30
0
11
0.008625
21
0.0051962
31
0
0
LINE
8
CONTOUR
10
0.0085625
20
0.0063869
30
0
11
0.0086875
21
0.0063869
31
0
0
LINE
8
CONTOUR
10
0.0085625
20
0.008119
30
0
11
0.0086875
21
0.008119
31
0
0
LINE
8
CONTOUR
10
0.008625
20
0.0047631
30
0
11
0.0086875
21
0.0048714
31
0
0
LINE
8
CONTOUR
10
0.008625
20
0.0051962
30
0
11
0.0086875
21
0.0050879
31
0
0
LINE
8
CONTOUR
10
0.0086875
20
0.0018403
30
0
11
0.0088125
21
0.0018403
31
0
0
LINE
8
CONTOUR
10
0.0086875
20
0.0035724
30
0
11
0.00875
21
0.0036806
31
0
0
LINE
8
CONTOUR
10
0.0086875
20
0.0048714
30
0
11
0.00875
21
0.0049796
31
0
0
LINE
8
CONTOUR
10
0.0086875
20
0.0050879
30
0
11
0.00875
21
0.0049796
31
0
0
LINE
8
CONTOUR
10
0.0086875
20
0.0063869
30
0
11
0.00875
21
0.0062787
31
0
0
LINE
8
CONTOUR
10
0.0086875
20
0.008119
30
0
11
0.0088125
21
0.008119
31
0
0
LINE
8
CONTOUR
10
0.00875
20
0.0036806
30
0
11
0.0088125
21
0.0037889
31
0
0
LINE
8
CONTOUR
10
0.00875
20
0.0062787
30
0
11
0.0088125
21
0.0061704
31
0
0
LINE
8
CONTOUR
10
0.0088125
20
0.0018403
30
0
11
0.0089375
21
0.0018403
31
0
0
LINE
8
CONTOUR
10
0.0088125
20
0.0037889
30
0
11
0.0089375
21
0.0037889
31
0
0
LINE
8
CONTOUR
10
0.0088125
20
0.0061704
30
0
11
0.0089375
21
0.0061704
31
0
0
LINE
8
CONTOUR
10
0.0088125
20
0.008119
30
0
11
0.0089375
21
0.008119
31
0
0
LINE
8
CONTOUR
10
0.0089375
20
0.0018403
30
0
11
0.0090625
21
0.0018403
31
0
0
LINE
8
CONTOUR
10
0.0089375
20
0.0037889
30
0
11
0.0090625
21
0.0037889
31
0
0
LINE
8
CONTOUR
10
0.0089375
20
0.0061704
30
0
11
0.0090625
21
0.0061704
31
0
0
LINE
8
CONTOUR
10
0.0089375
20
0.008119
30
0
11
0.0090625
21
0.008119
31
0
0
LINE
8
CONTOUR
10
0.0090625
20
0.0018403
30
0
11
0.0091875
21
0.0018403
31
0
0
LINE
8
CONTOUR
10
0.0090625
20
0.0037889
30
0
11
0.009125
21
0.0038971
31
0
0
LINE
8
CONTOUR
10
0.0090625
20
0.0061704
30
0
11
0.009125
21
0.0060622
31
0
0
LINE
8
CONTOUR
10
0.0090625
20
0.008119
30
0
11
0.0091875
21
0.008119
31
0
0
LINE
8
CONTOUR
10
0.009125
20
0.0038971
30
0
11
0.0091875
21
0.0040054
31
0
0
LINE
8
CONTOUR
10
0.009125
20
0.0060622
30
0
11
0.0091875
21
0.0059539
31
0
0
LINE
8
CONTOUR
10
0.0091875
20
0.0018403
30
0
11
0.0093125
21
0.0018403
31
0
0
LINE
8
CONTOUR
10
0.0091875
20
0.0040054
30
0
11
0.0093125
21
0.0040054
31
0
0
LINE
8
CONTOUR
10
0.0091875
20
0.0059539
30
0
11
0.0093125
21
0.0059539
31
0
0
LINE
8
CONTOUR
10
0.0091875
20
0.008119
30
0
11
0.0093125
21
0.008119
31
0
0
LINE
8
CONTOUR
10
0.0093125
20
0.0018403
30
0
11
0.0094375
21
0.0018403
31
0
0
LINE
8
CONTOUR
10
0.0093125
20
0.0040054
30
0
11
0.0094375
21
0.0040054
31
0
0
LINE
8
CONTOUR
10
0.0093125
20
0.0059539
30
0
11
0.0094375
21
0.0059539
31
0
0
LINE
8
CONTOUR
10
0.0093125
20
0.008119
30
0
11
0.0094375
21
0.008119
31
0
0
LINE
8
CONTOUR
10
0.0094375
20
0.0018403
30
0
11
0.0095625
21
0.0018403
31
0
0
LINE
8
CONTOUR
10
0.0094375
20
0.0040054
30
0
11
0.0095
21
0.0041136
31
0
0
LINE
8
CONTOUR
10
0.0094375
20
0.0059539
30
0
11
0.0095
21
0.0058457
31
0
0
LINE
8
CONTOUR
10
0.0094375
20
0.008119
30
0
11
0.0095625
21
0.008119
31
0
0
LINE
8
CONTOUR
10
0.0095
20
0.0041136
30
0
11
0.0095625
21
0.0042219
31
0
0
LINE
8
CONTOUR
10
0.0095
20
0.0058457
30
0
11
0.0095625
21
0.0057374
31
0
0
LINE
8
CONTOUR
10
0.0095625
20
0.0018403
30
0
11
0.0096875
21
0.0018403
31
0
0
LINE
8
CONTOUR
10
0.0095625
20
0.0042219
30
0
11
0.0096875
21
0.0042219
31
0
0
LINE
8
CONTOUR
10
0.0095625
20
0.0057374
30
0
11
0.0096875
21
0.0057374
31
0
0
LINE
8
CONTOUR
10
0.0095625
20
0.008119
30
0
11
0.0096875
21
0.008119
31
0
0
LINE
8
CONTOUR
10
0.0096875
20
0.0018403
30
0
11
0.0098125
21
0.0018403
31
0
0
LINE
8
CONTOUR
10
0.0096875
20
0.0042219
30
0
11
0.0098125
21
0.0042219
31
0
0
LINE
8
CONTOUR
10
0.0096875
20
0.0057374
30
0
11
0.0098125
21
0.0057374
31
0
0
LINE
8
CONTOUR
10
0.0096875
20
0.008119
30
0
11
0.0098125
21
0.008119
31
0
0
LINE
8
CONTOUR
10
0.0098125
20
0.0018403
30
0
11
0.0099375
21
0.0018403
31
0
0
LINE
8
CONTOUR
10
0.0098125
20
0.0042219
30
0
11
0.0099375
21
0.0042219
31
0
0
LINE
8
CONTOUR
10
0.0098125
20
0.0057374
30
0
11
0.0099375
21
0.0057374
31
0
0
LINE
8
CONTOUR
10
0.0098125
20
0.008119
30
0
11
0.0099375
21
0.008119
31
0
0
LINE
8
CONTOUR
10
0.0099375
20
0.0018403
30
0
11
0.010063
21
0.0018403
31
0
0
LINE
8
CONTOUR
10
0.0099375
20
0.0042219
30
0
11
0.010063
21
0.0042219
31
0
0
LINE
8
CONTOUR
10
0.0099375
20
0.0057374
30
0
11
0.010063
21
0.0057374
31
0
0
LINE
8
CONTOUR
10
0.0099375
20
0.008119
30
0
11
0.010063
21
0.008119
31
0
0
LINE
8
CONTOUR
10
0.010063
20
0.0018403
30
0
11
0.010188
21
0.0018403
31
0
0
LINE
8
CONTOUR
10
0.010063
20
0.0042219
30
0
11
0.010188
21
0.0042219
31
0
0
LINE
8
CONTOUR
10
0.010063
20
0.0057374
30
0
11
0.010188
21
0.0057374
31
0
0
LINE
8
CONTOUR
10
0.010063
20
0.008119
30
0
11
0.010188
21
0.008119
31
0
0
LINE
8
CONTOUR
10
0.010188
20
0.0018403
30
0
11
0.010313
21
0.0018403
31
0
0
LINE
8
CONTOUR
10
0.010188
20
0.0042219
30
0
11
0.01025
21
0.0041136
31
0
0
LINE
8
CONTOUR
10
0.010188
20
0.0057374
30
0
11
0.01025
21
0.0058457
31
0
0
LINE
8
CONTOUR
10
0.010188
20
0.008119
30
0
11
0.010313
21
0.008119
31
0
0
LINE
8
CONTOUR
10
0.01025
20
0.0041136
30
0
11
0.010313
21
0.0040054
31
0
0
LINE
8
CONTOUR
10
0.01025
20
0.0058457
30
0
11
0.010313
21
0.0059539
31
0
0
LINE
8
CONTOUR
10
0.010313
20
0.0018403
30
0
11
0.010438
21
0.0018403
31
0
0
LINE
8
CONTOUR
10
0.010313
20
0.0040054
30
0
11
0.010375
21
0.0038971
31
0
0
LINE
8
CONTOUR
10
0.010313
20
0.0059539
30
0
11
0.010375
21
0.0060622
31
0
0
LINE
8
CONTOUR
10
0.010313
20
0.008119
30
0
11
0.010438
21
0.008119
31
0
0
LINE
8
CONTOUR
10
0.010375
20
0.0038971
30
0
11
0.010438
21
0.0037889
31
0
0
LINE
8
CONTOUR
10
0.010375
20
0.0060622
30
0
11
0.010438
21
0.0061704
31
0
0
LINE
8
CONTOUR
10
0.010438
20
0.0018403
30
0
11
0.010563
21
0.0018403
31
0
0
LINE
8
CONTOUR
10
0.010438
20
0.0037889
30
0
11
0.0105
21
0.0036806
31
0
0
LINE
8
CONTOUR
10
0.010438
20
0.0061704
30
0
11
0.0105
21
0.0062787
31
0
0
LINE
8
CONTOUR
10
0.010438
20
0.008119
30
0
11
0.010563
21
0.008119
31
0
0
LINE
8
CONTOUR
10
0.0105
20
0.0036806
30
0
11
0.010563
21
0.0035724
31
0
0
LINE
8
CONTOUR
10
0.0105
20
0.0049796
30
0
11
0.010562
21
0.0050879
31
0
0
LINE
8
CONTOUR
10
0.0105
20
0.0049796
30
0
11
0.010563
21
0.0048714
31
0
0
LINE
8
CONTOUR
10
0.0105
20
0.0062787
30
0
11
0.010563
21
0.0063869
31
0
0
LINE
8
CONTOUR
10
0.010562
20
0.0050879
30
0
11
0.010625
21
0.0051962
31
0
0
LINE
8
CONTOUR
10
0.010563
20
0.0018403
30
0
11
0.010688
21
0.0018403
31
0
0
LINE
8
CONTOUR
10
0.010563
20
0.0035724
30
0
11
0.010625
21
0.0034641
31
0
0
LINE
8
CONTOUR
10
0.010563
20
0.0048714
30
0
11
0.010625
21
0.0047631
31
0
0
LINE
8
CONTOUR
10
0.010563
20
0.0063869
30
0
11
0.010625
21
0.0064952
31
0
0
LINE
8
CONTOUR
10
0.010563
20
0.008119
30
0
11
0.010688
21
0.008119
31
0
0
LINE
8
CONTOUR
10
0.010625
20
0.0034641
30
0
11
0.010688
21
0.0033558
31
0
0
LINE
8
CONTOUR
10
0.010625
20
0.0047631
30
0
11
0.010688
21
0.0046549
31
0
0
LINE
8
CONTOUR
10
0.010625
20
0.0051962
30
0
11
0.010685
21
0.0053083
31
0
0
LINE
8
CONTOUR
10
0.010625
20
0.0064952
30
0
11
0.010688
21
0.0066034
31
0
0
LINE
8
CONTOUR
10
0.010685
20
0.0053083
30
0
11
0.010746
21
0.0054127
31
0
0
LINE
8
CONTOUR
10
0.010688
20
0.0018403
30
0
11
0.010813
21
0.0018403
31
0
0
LINE
8
CONTOUR
10
0.010688
20
0.0033558
30
0
11
0.01075
21
0.0032476
31
0
0
LINE
8
CONTOUR
10
0.010688
20
0.0046549
30
0
11
0.01075
21
0.0045466
31
0
0
LINE
8
CONTOUR
10
0.010688
20
0.0066034
30
0
11
0.01075
21
0.0067117
31
0
0
LINE
8
CONTOUR
10
0.010688
20
0.008119
30
0
11
0.010813
21
0.008119
31
0
0
LINE
8
CONTOUR
10
0.010746
20
0.0054127
30
0
11
0.010812
21
0.0055209
31
0
0
LINE
8
CONTOUR
10
0.01075
20
0.0032476
30
0
11
0.010813
21
0.0031394
31
0
0
LINE
8
CONTOUR
10
0.01075
20
0.0045466
30
0
11
0.010813
21
0.0044384
31
0
0
LINE
8
CONTOUR
10
0.01075
20
0.0067117
30
0
11
0.010813
21
0.00682
31
0
0
LINE
8
CONTOUR
10
0.010812
20
0.0055209
30
0
11
0.010875
21
0.0056292
31
0
0
LINE
8
CONTOUR
10
0.010813
20
0.0018403
30
0
11
0.010938
21
0.0018403
31
0
0
LINE
8
CONTOUR
10
0.010813
20
0.0031394
30
0
11
0.010876
21
0.0030311
31
0
0
LINE
8
CONTOUR
10
0.010813
20
0.0044384
30
0
11
0.010875
21
0.0043301
31
0
0
LINE
8
CONTOUR
10
0.010813
20
0.00682
30
0
11
0.010875
21
0.0069282
31
0
0
LINE
8
CONTOUR
10
0.010813
20
0.008119
30
0
11
0.010938
21
0.008119
31
0
0
LINE
8
CONTOUR
10
0.010875
20
0.0043301
30
0
11
0.010938
21
0.0042219
31
0
0
LINE
8
CONTOUR
10
0.010875
20
0.0056292
30
0
11
0.010938
21
0.0057374
31
0
0
LINE
8
CONTOUR
10
0.010875
20
0.0069282
30
0
11
0.010938
21
0.0070365
31
0
0
LINE
8
CONTOUR
10
0.010876
20
0.0030311
30
0
11
0.010938
21
0.002924
31
0
0
LINE
8
CONTOUR
10
0.010938
20
0.0018403
30
0
11
0.011063
21
0.0018403
31
0
0
LINE
8
CONTOUR
10
0.010938
20
0.002924
30
0
11
0.011004
21
0.0028146
31
0
0
LINE
8
CONTOUR
10
0.010938
20
0.0042219
30
0
11
0.011
21
0.0041136
31
0
0
LINE
8
CONTOUR
10
0.010938
20
0.0057374
30
0
11
0.011
21
0.0058457
31
0
0
LINE
8
CONTOUR
10
0.010938
20
0.0070365
30
0
11
0.011
21
0.0071447
31
0
0
LINE
8
CONTOUR
10
0.010938
20
0.008119
30
0
11
0.011063
21
0.008119
31
0
0
LINE
8
CONTOUR
10
0.011
20
0.0041136
30
0
11
0.011063
21
0.0040054
31
0
0
LINE
8
CONTOUR
10
0.011
20
0.0058457
30
0
11
0.011063
21
0.0059539
31
0
0
LINE
8
CONTOUR
10
0.011
20
0.0071447
30
0
11
0.011063
21
0.007253
31
0
0
LINE
8
CONTOUR
10
0.011004
20
0.0028146
30
0
11
0.011065
21
0.0027102
31
0
0
LINE
8
CONTOUR
10
0.011063
20
0.0018403
30
0
11
0.011188
21
0.0018403
31
0
0
LINE
8
CONTOUR
10
0.011063
20
0.0040054
30
0
11
0.011125
21
0.0038971
31
0
0
LINE
8
CONTOUR
10
0.011063
20
0.0059539
30
0
11
0.011125
21
0.0060622
31
0
0
LINE
8
CONTOUR
10
0.011063
20
0.007253
30
0
11
0.011125
21
0.0073612
31
0
0
LINE
8
CONTOUR
10
0.011063
20
0.008119
30
0
11
0.011188
21
0.008119
31
0
0
LINE
8
CONTOUR
10
0.011065
20
0.0027102
30
0
11
0.011192
21
0.0026987
31
0
0
LINE
8
CONTOUR
10
0.011125
20
0.0038971
30
0
11
0.011188
21
0.0037889
31
0
0
LINE
8
CONTOUR
10
0.011125
20
0.0060622
30
0
11
0.011188
21
0.0061704
31
0
0
LINE
8
CONTOUR
10
0.011125
20
0.0073612
30
0
11
0.011188
21
0.0074695
31
0
0
LINE
8
CONTOUR
10
0.011188
20
0.0018403
30
0
11
0.011313
21
0.0018403
31
0
0
LINE
8
CONTOUR
10
0.011188
20
0.0037889
30
0
11
0.01125
21
0.0036806
31
0
0
LINE
8
CONTOUR
10
0.011188
20
0.0061704
30
0
11
0.01125
21
0.0062787
31
0
0
LINE
8
CONTOUR
10
0.011188
20
0.0074695
30
0
11
0.01125
21
0.0075777
31
0
0
LINE
8
CONTOUR
10
0.011188
20
0.008119
30
0
11
0.011313
21
0.008119
31
0
0
LINE
8
CONTOUR
10
0.011192
20
0.0026987
30
0
11
0.011306
21
0.0026949
31
0
0
LINE
8
CONTOUR
10
0.01125
20
0.0036806
30
0
11
0.011313
21
0.0035724
31
0
0
LINE
8
CONTOUR
10
0.01125
20
0.0062787
30
0
11
0.011313
21
0.0063869
31
0
0
LINE
8
CONTOUR
10
0.01125
20
0.0075777
30
0
11
0.011313
21
0.0076858
31
0
0
LINE
8
CONTOUR
10
0.011306
20
0.0026949
30
0
11
0.011362
21
0.0025981
31
0
0
LINE
8
CONTOUR
10
0.011313
20
0.0018403
30
0
11
0.011437
21
0.0018403
31
0
0
LINE
8
CONTOUR
10
0.011313
20
0.0035724
30
0
11
0.011375
21
0.0034641
31
0
0
LINE
8
CONTOUR
10
0.011313
20
0.0063869
30
0
11
0.011375
21
0.0064952
31
0
0
LINE
8
CONTOUR
10
0.011313
20
0.0076858
30
0
11
0.011375
21
0.0077942
31
0
0
LINE
8
CONTOUR
10
0.011313
20
0.008119
30
0
11
0.011437
21
0.008119
31
0
0
LINE
8
CONTOUR
10
0.011362
20
0.0025981
30
0
11
0.011436
21
0.0024874
31
0
0
LINE
8
CONTOUR
10
0.011375
20
0.0021651
30
0
11
0.011436
21
0.0022757
31
0
0
LINE
8
CONTOUR
10
0.011375
20
0.0021651
30
0
11
0.011438
21
0.0020568
31
0
0
LINE
8
CONTOUR
10
0.011375
20
0.0034641
30
0
11
0.011438
21
0.0033558
31
0
0
LINE
8
CONTOUR
10
0.011375
20
0.0064952
30
0
11
0.011438
21
0.0066034
31
0
0
LINE
8
CONTOUR
10
0.011375
20
0.0077942
30
0
11
0.011437
21
0.0079025
31
0
0
LINE
8
CONTOUR
10
0.011436
20
0.0022757
30
0
11
0.011497
21
0.0023816
31
0
0
LINE
8
CONTOUR
10
0.011436
20
0.0024874
30
0
11
0.011497
21
0.0023816
31
0
0
LINE
8
CONTOUR
10
0.011437
20
0.0018403
30
0
11
0.0115
21
0.0019486
31
0
0
LINE
8
CONTOUR
10
0.011437
20
0.0079025
30
0
11
0.0115
21
0.0080107
31
0
0
LINE
8
CONTOUR
10
0.011437
20
0.008119
30
0
11
0.0115
21
0.0080107
31
0
0
LINE
8
CONTOUR
10
0.011438
20
0.0020568
30
0
11
0.0115
21
0.0019486
31
0
0
LINE
8
CONTOUR
10
0.011438
20
0.0033558
30
0
11
0.0115
21
0.0032476
31
0
0
LINE
8
CONTOUR
10
0.011438
20
0.0066034
30
0
11
0.0115
21
0.0067117
31
0
0
LINE
8
CONTOUR
10
0.0115
20
0.0032476
30
0
11
0.011563
21
0.0031393
31
0
0
LINE
8
CONTOUR
10
0.0115
20
0.0067117
30
0
11
0.011563
21
0.00682
31
0
0
LINE
8
CONTOUR
10
0.011563
20
0.0031393
30
0
11
0.011625
21
0.0030311
31
0
0
LINE
8
CONTOUR
10
0.011563
20
0.00682
30
0
11
0.011625
21
0.0069282
31
0
0
LINE
8
CONTOUR
10
0.011625
20
0.0030311
30
0
11
0.011688
21
0.0029228
31
0
0
LINE
8
CONTOUR
10
0.011625
20
0.0069282
30
0
11
0.011688
21
0.0070365
31
0
0
LINE
8
CONTOUR
10
0.011688
20
0.0029228
30
0
11
0.01175
21
0.0028146
31
0
0
LINE
8
CONTOUR
10
0.011688
20
0.0070365
30
0
11
0.01175
21
0.0071447
31
0
0
LINE
8
CONTOUR
10
0.01175
20
0.0028146
30
0
11
0.011813
21
0.0027063
31
0
0
LINE
8
CONTOUR
10
0.01175
20
0.0071447
30
0
11
0.011813
21
0.007253
31
0
0
LINE
8
CONTOUR
10
0.011813
20
0.0027063
30
0
11
0.011938
21
0.0027063
31
0
0
LINE
8
CONTOUR
10
0.011813
20
0.007253
30
0
11
0.011875
21
0.0073612
31
0
0
LINE
8
CONTOUR
10
0.011875
20
0.0073612
30
0
11
0.011938
21
0.0074695
31
0
0
LINE
8
CONTOUR
10
0.011938
20
0.0027063
30
0
11
0.012062
21
0.0027063
31
0
0
LINE
8
CONTOUR
10
0.011938
20
0.0074695
30
0
11
0.012
21
0.0075777
31
0
0
LINE
8
CONTOUR
10
0.012
20
0.0075777
30
0
11
0.012063
21
0.007686
31
0
0
LINE
8
CONTOUR
10
0.012062
20
0.0027063
30
0
11
0.012125
21
0.0025981
31
0
0
LINE
8
CONTOUR
10
0.012063
20
0.007686
30
0
11
0.01219
21
0.0076902
31
0
0
LINE
8
CONTOUR
10
0.012125
20
0.0025981
30
0
11
0.012188
21
0.0024898
31
0
0
LINE
8
CONTOUR
10
0.012188
20
0.0024898
30
0
11
0.01225
21
0.0023816
31
0
0
LINE
8
CONTOUR
10
0.01219
20
0.0076902
30
0
11
0.01231
21
0.0076902
31
0
0
LINE
8
CONTOUR
10
0.01225
20
0.0023816
30
0
11
0.012313
21
0.0022733
31
0
0
LINE
8
CONTOUR
10
0.01231
20
0.0076902
30
0
11
0.01237
21
0.0077942
31
0
0
LINE
8
CONTOUR
10
0.012313
20
0.0022733
30
0
11
0.012375
21
0.0021651
31
0
0
LINE
8
CONTOUR
10
0.01237
20
0.0077942
30
0
11
0.012437
21
0.0079025
31
0
0
LINE
8
CONTOUR
10
0.012375
20
0.0021651
30
0
11
0.012438
21
0.0020568
31
0
0
LINE
8
CONTOUR
10
0.012437
20
0.0079025
30
0
11
0.0125
21
0.0080107
31
0
0
LINE
8
CONTOUR
10
0.012438
20
0.0020568
30
0
11
0.0125
21
0.0019486
31
0
0
LINE
8
CONTOUR
10
0.0125
20
0.0019486
30
0
11
0.012563
21
0.0018403
31
0
0
LINE
8
CONTOUR
10
0.0125
20
0.0080107
30
0
11
0.012563
21
0.008119
31
0
0
LINE
8
CONTOUR
10
0.012563
20
0.0018403
30
0
11
0.012688
21
0.0018403
31
0
0
LINE
8
CONTOUR
10
0.012563
20
0.008119
30
0
11
0.012688
21
0.008119
31
0
0
LINE
8
CONTOUR
10
0.012688
20
0.0018403
30
0
11
0.012813
21
0.0018403
31
0
0
LINE
8
CONTOUR
10
0.012688
20
0.008119
30
0
11
0.012813
21
0.008119
31
0
0
LINE
8
CONTOUR
10
0.012813
20
0.0018403
30
0
11
0.012938
21
0.0018403
31
0
0
LINE
8
CONTOUR
10
0.012813
20
0.008119
30
0
11
0.012938
21
0.008119
31
0
0
LINE
8
CONTOUR
10
0.012938
20
0.0018403
30
0
11
0.013063
21
0.0018403
31
0
0
LINE
8
CONTOUR
10
0.012938
20
0.008119
30
0
11
0.013063
21
0.008119
31
0
0
LINE
8
CONTOUR
10
0.013063
20
0.0018403
30
0
11
0.013188
21
0.0018403
31
0
0
LINE
8
CONTOUR
10
0.013063
20
0.008119
30
0
11
0.013188
21
0.008119
31
0
0
LINE
8
CONTOUR
10
0.013188
20
0.0018403
30
0
11
0.013313
21
0.0018403
31
0
0
LINE
8
CONTOUR
10
0.013188
20
0.008119
30
0
11
0.013255
21
0.0080107
31
0
0
LINE
8
CONTOUR
10
0.013255
20
0.0080107
30
0
11
0.013315
21
0.007907
31
0
0
LINE
8
CONTOUR
10
0.013313
20
0.0018403
30
0
11
0.013437
21
0.0018403
31
0
0
LINE
8
CONTOUR
10
0.013315
20
0.007907
30
0
11
0.013435
21
0.007907
31
0
0
LINE
8
CONTOUR
10
0.013435
20
0.007907
30
0
11
0.013563
21
0.0079025
31
0
0
LINE
8
CONTOUR
10
0.013437
20
0.0018403
30
0
11
0.0135
21
0.0019486
31
0
0
LINE
8
CONTOUR
10
0.0135
20
0.0019486
30
0
11
0.013563
21
0.0020568
31
0
0
LINE
8
CONTOUR
10
0.013563
20
0.0020568
30
0
11
0.013688
21
0.0020568
31
0
0
LINE
8
CONTOUR
10
0.013563
20
0.0079025
30
0
11
0.013688
21
0.0079025
31
0
0
LINE
8
CONTOUR
10
0.013688
20
0.0020568
30
0
11
0.013813
21
0.0020568
31
0
0
LINE
8
CONTOUR
10
0.013688
20
0.0079025
30
0
11
0.013813
21
0.0079025
31
0
0
LINE
8
CONTOUR
10
0.013813
20
0.0020568
30
0
11
0.013938
21
0.0020568
31
0
0
LINE
8
CONTOUR
10
0.013813
20
0.0079025
30
0
11
0.013938
21
0.0079025
31
0
0
LINE
8
CONTOUR
10
0.013938
20
0.0020568
30
0
11
0.014063
21
0.0020568
31
0
0
LINE
8
CONTOUR
10
0.013938
20
0.0079025
30
0
11
0.014063
21
0.0079025
31
0
0
LINE
8
CONTOUR
10
0.014063
20
0.0020568
30
0
11
0.014125
21
0.0021651
31
0
0
LINE
8
CONTOUR
10
0.014063
20
0.0079025
30
0
11
0.014125
21
0.0077942
31
0
0
LINE
8
CONTOUR
10
0.014125
20
0.0021651
30
0
11
0.014188
21
0.0022733
31
0
0
LINE
8
CONTOUR
10
0.014125
20
0.0077942
30
0
11
0.014188
21
0.007686
31
0
0
LINE
8
CONTOUR
10
0.014188
20
0.0022733
30
0
11
0.014312
21
0.0022733
31
0
0
LINE
8
CONTOUR
10
0.014188
20
0.007686
30
0
11
0.014312
21
0.007686
31
0
0
LINE
8
CONTOUR
10
0.014312
20
0.0022733
30
0
11
0.014438
21
0.0022733
31
0
0
LINE
8
CONTOUR
10
0.014312
20
0.007686
30
0
11
0.014438
21
0.007686
31
0
0
LINE
8
CONTOUR
10
0.014438
20
0.0022733
30
0
11
0.014563
21
0.0022733
31
0
0
LINE
8
CONTOUR
10
0.014438
20
0.007686
30
0
11
0.014563
21
0.007686
31
0
0
LINE
8
CONTOUR
10
0.014563
20
0.0022733
30
0
11
0.014688
21
0.0022733
31
0
0
LINE
8
CONTOUR
10
0.014563
20
0.007686
30
0
11
0.014688
21
0.007686
31
0
0
LINE
8
CONTOUR
10
0.014688
20
0.0022733
30
0
11
0.01475
21
0.0023816
31
0
0
LINE
8
CONTOUR
10
0.014688
20
0.007686
30
0
11
0.01475
21
0.0075777
31
0
0
LINE
8
CONTOUR
10
0.01475
20
0.0023816
30
0
11
0.014813
21
0.0024898
31
0
0
LINE
8
CONTOUR
10
0.01475
20
0.0075777
30
0
11
0.014813
21
0.0074695
31
0
0
LINE
8
CONTOUR
10
0.014813
20
0.0024898
30
0
11
0.014937
21
0.0024898
31
0
0
LINE
8
CONTOUR
10
0.014813
20
0.0074695
30
0
11
0.014937
21
0.0074695
31
0
0
LINE
8
CONTOUR
10
0.014937
20
0.0024898
30
0
11
0.015063
21
0.0024898
31
0
0
LINE
8
CONTOUR
10
0.014937
20
0.0074695
30
0
11
0.015063
21
0.0074695
31
0
0
LINE
8
CONTOUR
10
0.015063
20
0.0024898
30
0
11
0.015125
21
0.0025981
31
0
0
LINE
8
CONTOUR
10
0.015063
20
0.0074695
30
0
11
0.015188
21
0.0074693
31
0
0
LINE
8
CONTOUR
10
0.015125
20
0.0025981
30
0
11
0.015188
21
0.0027063
31
0
0
LINE
8
CONTOUR
10
0.015188
20
0.0027063
30
0
11
0.015312
21
0.0027063
31
0
0
LINE
8
CONTOUR
10
0.015188
20
0.0074693
30
0
11
0.015312
21
0.0074693
31
0
0
LINE
8
CONTOUR
10
0.015312
20
0.0027063
30
0
11
0.015438
21
0.0027063
31
0
0
LINE
8
CONTOUR
10
0.015312
20
0.0074693
30
0
11
0.015375
21
0.0073612
31
0
0
LINE
8
CONTOUR
10
0.015375
20
0.0073612
30
0
11
0.015438
21
0.007253
31
0
0
LINE
8
CONTOUR
10
0.015438
20
0.0027063
30
0
11
0.015589
21
0.0027527
31
0
0
LINE
8
CONTOUR
10
0.015438
20
0.007253
30
0
11
0.015563
21
0.007253
31
0
0
LINE
8
CONTOUR
10
0.015563
20
0.007253
30
0
11
0.015688
21
0.007253
31
0
0
LINE
8
CONTOUR
10
0.015589
20
0.0027527
30
0
11
0.015661
21
0.0027527
31
0
0
LINE
8
CONTOUR
10
0.015589
20
0.0027527
30
0
11
0.015696
21
0.0028146
31
0
0
LINE
8
CONTOUR
10
0.015625
20
0.0017321
30
0
11
0.015688
21
0.0016238
31
0
0
LINE
8
CONTOUR
10
0.015625
20
0.0017321
30
0
11
0.015688
21
0.0018403
31
0
0
LINE
8
CONTOUR
10
0.015625
20
0.0082272
30
0
11
0.015688
21
0.008119
31
0
0
LINE
8
CONTOUR
10
0.015625
20
0.0082272
30
0
11
0.015688
21
0.0083355
31
0
0
LINE
8
CONTOUR
10
0.015661
20
0.0027527
30
0
11
0.015696
21
0.0028146
31
0
0
LINE
8
CONTOUR
10
0.015688
20
0.0016238
30
0
11
0.01575
21
0.0015155
31
0
0
LINE
8
CONTOUR
10
0.015688
20
0.0018403
30
0
11
0.01575
21
0.0019486
31
0
0
LINE
8
CONTOUR
10
0.015688
20
0.007253
30
0
11
0.01575
21
0.0071447
31
0
0
LINE
8
CONTOUR
10
0.015688
20
0.008119
30
0
11
0.015813
21
0.0081184
31
0
0
LINE
8
CONTOUR
10
0.015688
20
0.0083355
30
0
11
0.01575
21
0.0084437
31
0
0
LINE
8
CONTOUR
10
0.015696
20
0.0028146
30
0
11
0.015813
21
0.0029228
31
0
0
LINE
8
CONTOUR
10
0.01575
20
0.0015155
30
0
11
0.015813
21
0.0014073
31
0
0
LINE
8
CONTOUR
10
0.01575
20
0.0019486
30
0
11
0.015813
21
0.0020568
31
0
0
LINE
8
CONTOUR
10
0.01575
20
0.0071447
30
0
11
0.015813
21
0.0070365
31
0
0
LINE
8
CONTOUR
10
0.01575
20
0.0084437
30
0
11
0.015813
21
0.008552
31
0
0
LINE
8
CONTOUR
10
0.015813
20
0.0014073
30
0
11
0.015937
21
0.0014073
31
0
0
LINE
8
CONTOUR
10
0.015813
20
0.0020568
30
0
11
0.015937
21
0.0020568
31
0
0
LINE
8
CONTOUR
10
0.015813
20
0.0029228
30
0
11
0.015938
21
0.0029228
31
0
0
LINE
8
CONTOUR
10
0.015813
20
0.0070365
30
0
11
0.015938
21
0.0070365
31
0
0
LINE
8
CONTOUR
10
0.015813
20
0.0081184
30
0
11
0.015937
21
0.0081184
31
0
0
LINE
8
CONTOUR
10
0.015813
20
0.008552
30
0
11
0.015937
21
0.008552
31
0
0
LINE
8
CONTOUR
10
0.015937
20
0.0014073
30
0
11
0.016063
21
0.0014073
31
0
0
LINE
8
CONTOUR
10
0.015937
20
0.0020568
30
0
11
0.016063
21
0.0020568
31
0
0
LINE
8
CONTOUR
10
0.015937
20
0.0081184
30
0
11
0.015999
21
0.0080107
31
0
0
LINE
8
CONTOUR
10
0.015937
20
0.008552
30
0
11
0.016063
21
0.008552
31
0
0
LINE
8
CONTOUR
10
0.015938
20
0.0029228
30
0
11
0.016063
21
0.0029228
31
0
0
LINE
8
CONTOUR
10
0.015938
20
0.0070365
30
0
11
0.016063
21
0.0070365
31
0
0
LINE
8
CONTOUR
10
0.015999
20
0.0080107
30
0
11
0.016063
21
0.0079025
31
0
0
LINE
8
CONTOUR
10
0.016063
20
0.0014073
30
0
11
0.016188
21
0.0014073
31
0
0
LINE
8
CONTOUR
10
0.016063
20
0.0020568
30
0
11
0.016188
21
0.0020571
31
0
0
LINE
8
CONTOUR
10
0.016063
20
0.0029228
30
0
11
0.016125
21
0.0030311
31
0
0
LINE
8
CONTOUR
10
0.016063
20
0.0070365
30
0
11
0.016125
21
0.0069282
31
0
0
LINE
8
CONTOUR
10
0.016063
20
0.0079025
30
0
11
0.016188
21
0.0079025
31
0
0
LINE
8
CONTOUR
10
0.016063
20
0.008552
30
0
11
0.016188
21
0.008552
31
0
0
LINE
8
CONTOUR
10
0.016125
20
0.0030311
30
0
11
0.016188
21
0.0031393
31
0
0
LINE
8
CONTOUR
10
0.016125
20
0.0069282
30
0
11
0.016188
21
0.00682
31
0
0
LINE
8
CONTOUR
10
0.016188
20
0.0014073
30
0
11
0.016313
21
0.0014073
31
0
0
LINE
8
CONTOUR
10
0.016188
20
0.0020571
30
0
11
0.016312
21
0.0020571
31
0
0
LINE
8
CONTOUR
10
0.016188
20
0.0031393
30
0
11
0.016313
21
0.0031393
31
0
0
LINE
8
CONTOUR
10
0.016188
20
0.00682
30
0
11
0.016313
21
0.00682
31
0
0
LINE
8
CONTOUR
10
0.016188
20
0.0079025
30
0
11
0.016312
21
0.0079025
31
0
0
LINE
8
CONTOUR
10
0.016188
20
0.008552
30
0
11
0.016313
21
0.008552
31
0
0
LINE
8
CONTOUR
10
0.016312
20
0.0020571
30
0
11
0.016375
21
0.0021651
31
0
0
LINE
8
CONTOUR
10
0.016312
20
0.0079025
30
0
11
0.016375
21
0.0077942
31
0
0
LINE
8
CONTOUR
10
0.016313
20
0.0014073
30
0
11
0.016438
21
0.0014073
31
0
0
LINE
8
CONTOUR
10
0.016313
20
0.0031393
30
0
11
0.016438
21
0.0031393
31
0
0
LINE
8
CONTOUR
10
0.016313
20
0.00682
30
0
11
0.016438
21
0.00682
31
0
0
LINE
8
CONTOUR
10
0.016313
20
0.008552
30
0
11
0.016438
21
0.008552
31
0
0
LINE
8
CONTOUR
10
0.016375
20
0.0021651
30
0
11
0.016438
21
0.0022733
31
0
0
LINE
8
CONTOUR
10
0.016375
20
0.0077942
30
0
11
0.016438
21
0.007686
31
0
0
LINE
8
CONTOUR
10
0.016438
20
0.0014073
30
0
11
0.016563
21
0.0014073
31
0
0
LINE
8
CONTOUR
10
0.016438
20
0.0022733
30
0
11
0.016563
21
0.0022733
31
0
0
LINE
8
CONTOUR
10
0.016438
20
0.0031393
30
0
11
0.0165
21
0.0032476
31
0
0
LINE
8
CONTOUR
10
0.016438
20
0.00682
30
0
11
0.0165
21
0.0067117
31
0
0
LINE
8
CONTOUR
10
0.016438
20
0.007686
30
0
11
0.016563
21
0.007686
31
0
0
LINE
8
CONTOUR
10
0.016438
20
0.008552
30
0
11
0.016563
21
0.008552
31
0
0
LINE
8
CONTOUR
10
0.0165
20
0.0032476
30
0
11
0.016563
21
0.0033558
31
0
0
LINE
8
CONTOUR
10
0.0165
20
0.0067117
30
0
11
0.016563
21
0.0066034
31
0
0
LINE
8
CONTOUR
10
0.016563
20
0.0014073
30
0
11
0.016688
21
0.0014073
31
0
0
LINE
8
CONTOUR
10
0.016563
20
0.0022733
30
0
11
0.016687
21
0.0022733
31
0
0
LINE
8
CONTOUR
10
0.016563
20
0.0033558
30
0
11
0.016688
21
0.0033558
31
0
0
LINE
8
CONTOUR
10
0.016563
20
0.0066034
30
0
11
0.016688
21
0.0066034
31
0
0
LINE
8
CONTOUR
10
0.016563
20
0.007686
30
0
11
0.016688
21
0.007686
31
0
0
LINE
8
CONTOUR
10
0.016563
20
0.008552
30
0
11
0.016688
21
0.008552
31
0
0
LINE
8
CONTOUR
10
0.016687
20
0.0022733
30
0
11
0.01675
21
0.0023816
31
0
0
LINE
8
CONTOUR
10
0.016688
20
0.0014073
30
0
11
0.016813
21
0.0014073
31
0
0
LINE
8
CONTOUR
10
0.016688
20
0.0033558
30
0
11
0.016813
21
0.0033558
31
0
0
LINE
8
CONTOUR
10
0.016688
20
0.0066034
30
0
11
0.016813
21
0.0066034
31
0
0
LINE
8
CONTOUR
10
0.016688
20
0.007686
30
0
11
0.01675
21
0.0075777
31
0
0
LINE
8
CONTOUR
10
0.016688
20
0.008552
30
0
11
0.016813
21
0.008552
31
0
0
LINE
8
CONTOUR
10
0.01675
20
0.0023816
30
0
11
0.016813
21
0.0024898
31
0
0
LINE
8
CONTOUR
10
0.01675
20
0.0075777
30
0
11
0.016813
21
0.0074695
31
0
0
LINE
8
CONTOUR
10
0.016813
20
0.0014073
30
0
11
0.016938
21
0.0014073
31
0
0
LINE
8
CONTOUR
10
0.016813
20
0.0024898
30
0
11
0.016938
21
0.0024898
31
0
0
LINE
8
CONTOUR
10
0.016813
20
0.0033558
30
0
11
0.016875
21
0.0034641
31
0
0
LINE
8
CONTOUR
10
0.016813
20
0.0066034
30
0
11
0.016875
21
0.0064952
31
0
0
LINE
8
CONTOUR
10
0.016813
20
0.0074695
30
0
11
0.016937
21
0.0074695
31
0
0
LINE
8
CONTOUR
10
0.016813
20
0.008552
30
0
11
0.016938
21
0.008552
31
0
0
LINE
8
CONTOUR
10
0.016875
20
0.0034641
30
0
11
0.016938
21
0.0035724
31
0
0
LINE
8
CONTOUR
10
0.016875
20
0.0064952
30
0
11
0.016938
21
0.0063869
31
0
0
LINE
8
CONTOUR
10
0.016937
20
0.0074695
30
0
11
0.017063
21
0.0074695
31
0
0
LINE
8
CONTOUR
10
0.016938
20
0.0014073
30
0
11
0.017063
21
0.0014073
31
0
0
LINE
8
CONTOUR
10
0.016938
20
0.0024898
30
0
11
0.017062
21
0.0024898
31
0
0
LINE
8
CONTOUR
10
0.016938
20
0.0035724
30
0
11
0.017063
21
0.0035724
31
0
0
LINE
8
CONTOUR
10
0.016938
20
0.0063869
30
0
11
0.017063
21
0.0063869
31
0
0
LINE
8
CONTOUR
10
0.016938
20
0.008552
30
0
11
0.017063
21
0.008552
31
0
0
LINE
8
CONTOUR
10
0.017062
20
0.0024898
30
0
11
0.017125
21
0.0025981
31
0
0
LINE
8
CONTOUR
10
0.017063
20
0.0014073
30
0
11
0.017188
21
0.0014073
31
0
0
LINE
8
CONTOUR
10
0.017063
20
0.0035724
30
0
11
0.017188
21
0.0035724
31
0
0
LINE
8
CONTOUR
10
0.017063
20
0.0063869
30
0
11
0.017188
21
0.0063869
31
0
0
LINE
8
CONTOUR
10
0.017063
20
0.0074695
30
0
11
0.017125
21
0.0073612
31
0
0
LINE
8
CONTOUR
10
0.017063
20
0.008552
30
0
11
0.017188
21
0.008552
31
0
0
LINE
8
CONTOUR
10
0.017125
20
0.0025981
30
0
11
0.017188
21
0.0027063
31
0
0
LINE
8
CONTOUR
10
0.017125
20
0.0073612
30
0
11
0.017188
21
0.007253
31
0
0
LINE
8
CONTOUR
10
0.017188
20
0.0014073
30
0
11
0.017313
21
0.0014073
31
0
0
LINE
8
CONTOUR
10
0.017188
20
0.0027063
30
0
11
0.017313
21
0.0027063
31
0
0
LINE
8
CONTOUR
10
0.017188
20
0.0035724
30
0
11
0.01725
21
0.0036806
31
0
0
LINE
8
CONTOUR
10
0.017188
20
0.0063869
30
0
11
0.01725
21
0.0062787
31
0
0
LINE
8
CONTOUR
10
0.017188
20
0.007253
30
0
11
0.017312
21
0.007253
31
0
0
LINE
8
CONTOUR
10
0.017188
20
0.008552
30
0
11
0.017313
21
0.008552
31
0
0
LINE
8
CONTOUR
10
0.01725
20
0.0036806
30
0
11
0.017313
21
0.0037889
31
0
0
LINE
8
CONTOUR
10
0.01725
20
0.0062787
30
0
11
0.017313
21
0.0061704
31
0
0
LINE
8
CONTOUR
10
0.017312
20
0.007253
30
0
11
0.017438
21
0.007253
31
0
0
LINE
8
CONTOUR
10
0.017313
20
0.0014073
30
0
11
0.017438
21
0.0014073
31
0
0
LINE
8
CONTOUR
10
0.017313
20
0.0027063
30
0
11
0.017438
21
0.0027063
31
0
0
LINE
8
CONTOUR
10
0.017313
20
0.0037889
30
0
11
0.017438
21
0.0037889
31
0
0
LINE
8
CONTOUR
10
0.017313
20
0.0061704
30
0
11
0.017438
21
0.0061704
31
0
0
LINE
8
CONTOUR
10
0.017313
20
0.008552
30
0
11
0.017438
21
0.008552
31
0
0
LINE
8
CONTOUR
10
0.017438
20
0.0014073
30
0
11
0.017563
21
0.0014073
31
0
0
LINE
8
CONTOUR
10
0.017438
20
0.0027063
30
0
11
0.0175
21
0.0028146
31
0
0
LINE
8
CONTOUR
10
0.017438
20
0.0037889
30
0
11
0.017563
21
0.0037889
31
0
0
LINE
8
CONTOUR
10
0.017438
20
0.0061704
30
0
11
0.017563
21
0.0061704
31
0
0
LINE
8
CONTOUR
10
0.017438
20
0.007253
30
0
11
0.0175
21
0.0071447
31
0
0
LINE
8
CONTOUR
10
0.017438
20
0.008552
30
0
11
0.017563
21
0.008552
31
0
0
LINE
8
CONTOUR
10
0.0175
20
0.0028146
30
0
11
0.017563
21
0.0029228
31
0
0
LINE
8
CONTOUR
10
0.0175
20
0.0071447
30
0
11
0.017563
21
0.0070365
31
0
0
LINE
8
CONTOUR
10
0.017563
20
0.0014073
30
0
11
0.017688
21
0.0014073
31
0
0
LINE
8
CONTOUR
10
0.017563
20
0.0029228
30
0
11
0.017687
21
0.0029228
31
0
0
LINE
8
CONTOUR
10
0.017563
20
0.0037889
30
0
11
0.017625
21
0.0038971
31
0
0
LINE
8
CONTOUR
10
0.017563
20
0.0061704
30
0
11
0.017625
21
0.0060622
31
0
0
LINE
8
CONTOUR
10
0.017563
20
0.0070365
30
0
11
0.017687
21
0.0070365
31
0
0
LINE
8
CONTOUR
10
0.017563
20
0.008552
30
0
11
0.017688
21
0.008552
31
0
0
LINE
8
CONTOUR
10
0.017625
20
0.0038971
30
0
11
0.017688
21
0.0040054
31
0
0
LINE
8
CONTOUR
10
0.017625
20
0.0060622
30
0
11
0.017688
21
0.0059539
31
0
0
LINE
8
CONTOUR
10
0.017687
20
0.0029228
30
0
11
0.017813
21
0.0029228
31
0
0
LINE
8
CONTOUR
10
0.017687
20
0.0070365
30
0
11
0.017813
21
0.0070365
31
0
0
LINE
8
CONTOUR
10
0.017688
20
0.0014073
30
0
11
0.017813
21
0.0014073
31
0
0
LINE
8
CONTOUR
10
0.017688
20
0.0040054
30
0
11
0.017812
21
0.0040054
31
0
0
LINE
8
CONTOUR
10
0.017688
20
0.0059539
30
0
11
0.017812
21
0.0059539
31
0
0
LINE
8
CONTOUR
10
0.017688
20
0.008552
30
0
11
0.017813
21
0.008552
31
0
0
LINE
8
CONTOUR
10
0.017812
20
0.0040054
30
0
11
0.017938
21
0.0040054
31
0
0
LINE
8
CONTOUR
10
0.017812
20
0.0059539
30
0
11
0.017938
21
0.0059539
31
0
0
LINE
8
CONTOUR
10
0.017813
20
0.0014073
30
0
11
0.017938
21
0.0014073
31
0
0
LINE
8
CONTOUR
10
0.017813
20
0.0029228
30
0
11
0.017875
21
0.0030311
31
0
0
LINE
8
CONTOUR
10
0.017813
20
0.0070365
30
0
11
0.017938
21
0.0070365
31
0
0
LINE
8
CONTOUR
10
0.017813
20
0.008552
30
0
11
0.017938
21
0.008552
31
0
0
LINE
8
CONTOUR
10
0.017875
20
0.0030311
30
0
11
0.017938
21
0.0031393
31
0
0
LINE
8
CONTOUR
10
0.017938
20
0.0014073
30
0
11
0.018063
21
0.0014073
31
0
0
LINE
8
CONTOUR
10
0.017938
20
0.0031393
30
0
11
0.018062
21
0.0031393
31
0
0
LINE
8
CONTOUR
10
0.017938
20
0.0040054
30
0
11
0.018
21
0.0041136
31
0
0
LINE
8
CONTOUR
10
0.017938
20
0.0059539
30
0
11
0.018091
21
0.0059054
31
0
0
LINE
8
CONTOUR
10
0.017938
20
0.0070365
30
0
11
0.018062
21
0.0070365
31
0
0
LINE
8
CONTOUR
10
0.017938
20
0.008552
30
0
11
0.018063
21
0.008552
31
0
0
LINE
8
CONTOUR
10
0.018
20
0.0041136
30
0
11
0.018063
21
0.0042219
31
0
0
LINE
8
CONTOUR
10
0.018062
20
0.0031393
30
0
11
0.018188
21
0.0031393
31
0
0
LINE
8
CONTOUR
10
0.018062
20
0.0070365
30
0
11
0.018125
21
0.0069282
31
0
0
LINE
8
CONTOUR
10
0.018063
20
0.0014073
30
0
11
0.018188
21
0.0014073
31
0
0
LINE
8
CONTOUR
10
0.018063
20
0.0042219
30
0
11
0.018187
21
0.0042219
31
0
0
LINE
8
CONTOUR
10
0.018063
20
0.008552
30
0
11
0.018188
21
0.008552
31
0
0
LINE
8
CONTOUR
10
0.018091
20
0.0059054
30
0
11
0.018159
21
0.0059054
31
0
0
LINE
8
CONTOUR
10
0.018091
20
0.0059054
30
0
11
0.018194
21
0.0058457
31
0
0
LINE
8
CONTOUR
10
0.018125
20
0.0069282
30
0
11
0.018188
21
0.00682
31
0
0
LINE
8
CONTOUR
10
0.018159
20
0.0059054
30
0
11
0.018194
21
0.0058457
31
0
0
LINE
8
CONTOUR
10
0.018187
20
0.0042219
30
0
11
0.018313
21
0.0042219
31
0
0
LINE
8
CONTOUR
10
0.018188
20
0.0014073
30
0
11
0.018313
21
0.0014073
31
0
0
LINE
8
CONTOUR
10
0.018188
20
0.0031393
30
0
11
0.018251
21
0.0032476
31
0
0
LINE
8
CONTOUR
10
0.018188
20
0.00682
30
0
11
0.018313
21
0.00682
31
0
0
LINE
8
CONTOUR
10
0.018188
20
0.008552
30
0
11
0.018313
21
0.008552
31
0
0
LINE
8
CONTOUR
10
0.018194
20
0.0058457
30
0
11
0.018313
21
0.0057374
31
0
0
LINE
8
CONTOUR
10
0.018251
20
0.0032476
30
0
11
0.018313
21
0.0033553
31
0
0
LINE
8
CONTOUR
10
0.018313
20
0.0014073
30
0
11
0.018438
21
0.0014073
31
0
0
LINE
8
CONTOUR
10
0.018313
20
0.0033553
30
0
11
0.018437
21
0.0033553
31
0
0
LINE
8
CONTOUR
10
0.018313
20
0.0042219
30
0
11
0.018375
21
0.0043301
31
0
0
LINE
8
CONTOUR
10
0.018313
20
0.0057374
30
0
11
0.018438
21
0.0057374
31
0
0
LINE
8
CONTOUR
10
0.018313
20
0.00682
30
0
11
0.018437
21
0.00682
31
0
0
LINE
8
CONTOUR
10
0.018313
20
0.008552
30
0
11
0.018438
21
0.008552
31
0
0
LINE
8
CONTOUR
10
0.018375
20
0.0043301
30
0
11
0.018438
21
0.0044384
31
0
0
LINE
8
CONTOUR
10
0.018437
20
0.0033553
30
0
11
0.018563
21
0.0033558
31
0
0
LINE
8
CONTOUR
10
0.018437
20
0.00682
30
0
11
0.0185
21
0.0067117
31
0
0
LINE
8
CONTOUR
10
0.018438
20
0.0014073
30
0
11
0.018563
21
0.0014073
31
0
0
LINE
8
CONTOUR
10
0.018438
20
0.0044384
30
0
11
0.018562
21
0.0044384
31
0
0
LINE
8
CONTOUR
10
0.018438
20
0.0057374
30
0
11
0.018562
21
0.0057374
31
0
0
LINE
8
CONTOUR
10
0.018438
20
0.008552
30
0
11
0.018563
21
0.008552
31
0
0
LINE
8
CONTOUR
10
0.0185
20
0.0067117
30
0
11
0.018563
21
0.0066034
31
0
0
LINE
8
CONTOUR
10
0.018562
20
0.0044384
30
0
11
0.018688
21
0.0044384
31
0
0
LINE
8
CONTOUR
10
0.018562
20
0.0057374
30
0
11
0.018625
21
0.0056292
31
0
0
LINE
8
CONTOUR
10
0.018563
20
0.0014073
30
0
11
0.018688
21
0.0014073
31
0
0
LINE
8
CONTOUR
10
0.018563
20
0.0033558
30
0
11
0.018688
21
0.0033558
31
0
0
LINE
8
CONTOUR
10
0.018563
20
0.0066034
30
0
11
0.018688
21
0.0066034
31
0
0
LINE
8
CONTOUR
10
0.018563
20
0.008552
30
0
11
0.018688
21
0.008552
31
0
0
LINE
8
CONTOUR
10
0.018625
20
0.0056292
30
0
11
0.018688
21
0.0055209
31
0
0
LINE
8
CONTOUR
10
0.018688
20
0.0014073
30
0
11
0.018813
21
0.0014073
31
0
0
LINE
8
CONTOUR
10
0.018688
20
0.0033558
30
0
11
0.018812
21
0.0033558
31
0
0
LINE
8
CONTOUR
10
0.018688
20
0.0044384
30
0
11
0.01875
21
0.0045466
31
0
0
LINE
8
CONTOUR
10
0.018688
20
0.0055209
30
0
11
0.018813
21
0.0055209
31
0
0
LINE
8
CONTOUR
10
0.018688
20
0.0066034
30
0
11
0.018812
21
0.0066034
31
0
0
LINE
8
CONTOUR
10
0.018688
20
0.008552
30
0
11
0.018813
21
0.008552
31
0
0
LINE
8
CONTOUR
10
0.01875
20
0.0045466
30
0
11
0.018813
21
0.0046549
31
0
0
LINE
8
CONTOUR
10
0.018812
20
0.0033558
30
0
11
0.018875
21
0.0034641
31
0
0
LINE
8
CONTOUR
10
0.018812
20
0.0066034
30
0
11
0.018875
21
0.0064952
31
0
0
LINE
8
CONTOUR
10
0.018813
20
0.0014073
30
0
11
0.018938
21
0.0014073
31
0
0
LINE
8
CONTOUR
10
0.018813
20
0.0046549
30
0
11
0.018937
21
0.0046549
31
0
0
LINE
8
CONTOUR
10
0.018813
20
0.0055209
30
0
11
0.018937
21
0.0055209
31
0
0
LINE
8
CONTOUR
10
0.018813
20
0.008552
30
0
11
0.018938
21
0.008552
31
0
0
LINE
8
CONTOUR
10
0.018875
20
0.0034641
30
0
11
0.018938
21
0.0035724
31
0
0
LINE
8
CONTOUR
10
0.018875
20
0.0064952
30
0
11
0.018938
21
0.0063869
31
0
0
LINE
8
CONTOUR
10
0.018937
20
0.0046549
30
0
11
0.019063
21
0.0046549
31
0
0
LINE
8
CONTOUR
10
0.018937
20
0.0055209
30
0
11
0.019
21
0.0054127
31
0
0
LINE
8
CONTOUR
10
0.018938
20
0.0014073
30
0
11
0.019063
21
0.0014073
31
0
0
LINE
8
CONTOUR
10
0.018938
20
0.0035724
30
0
11
0.019063
21
0.0035724
31
0
0
LINE
8
CONTOUR
10
0.018938
20
0.0063869
30
0
11
0.019063
21
0.0063869
31
0
0
LINE
8
CONTOUR
10
0.018938
20
0.008552
30
0
11
0.019063
21
0.008552
31
0
0
LINE
8
CONTOUR
10
0.019
20
0.0054127
30
0
11
0.019063
21
0.0053044
31
0
0
LINE
8
CONTOUR
10
0.019063
20
0.0014073
30
0
11
0.019188
21
0.0014073
31
0
0
LINE
8
CONTOUR
10
0.019063
20
0.0035724
30
0
11
0.019187
21
0.0035724
31
0
0
LINE
8
CONTOUR
10
0.019063
20
0.0046549
30
0
11
0.019125
21
0.0047631
31
0
0
LINE
8
CONTOUR
10
0.019063
20
0.0053044
30
0
11
0.019125
21
0.0051962
31
0
0
LINE
8
CONTOUR
10
0.019063
20
0.0063869
30
0
11
0.019188
21
0.0063869
31
0
0
LINE
8
CONTOUR
10
0.019063
20
0.008552
30
0
11
0.019188
21
0.008552
31
0
0
LINE
8
CONTOUR
10
0.019125
20
0.0047631
30
0
11
0.019188
21
0.0048714
31
0
0
LINE
8
CONTOUR
10
0.019125
20
0.0051962
30
0
11
0.019188
21
0.0050879
31
0
0
LINE
8
CONTOUR
10
0.019187
20
0.0035724
30
0
11
0.01925
21
0.0036806
31
0
0
LINE
8
CONTOUR
10
0.019188
20
0.0014073
30
0
11
0.019313
21
0.0014073
31
0
0
LINE
8
CONTOUR
10
0.019188
20
0.0048714
30
0
11
0.01925
21
0.0049796
31
0
0
LINE
8
CONTOUR
10
0.019188
20
0.0050879
30
0
11
0.01925
21
0.0049796
31
0
0
LINE
8
CONTOUR
10
0.019188
20
0.0063869
30
0
11
0.01925
21
0.0062787
31
0
0
LINE
8
CONTOUR
10
0.019188
20
0.008552
30
0
11
0.019313
21
0.008552
31
0
0
LINE
8
CONTOUR
10
0.01925
20
0.0036806
30
0
11
0.019313
21
0.0037889
31
0
0
LINE
8
CONTOUR
10
0.01925
20
0.0062787
30
0
11
0.019313
21
0.0061704
31
0
0
LINE
8
CONTOUR
10
0.019313
20
0.0014073
30
0
11
0.019438
21
0.0014073
31
0
0
LINE
8
CONTOUR
10
0.019313
20
0.0037889
30
0
11
0.019438
21
0.0037889
31
0
0
LINE
8
CONTOUR
10
0.019313
20
0.0061704
30
0
11
0.019437
21
0.0061704
31
0
0
LINE
8
CONTOUR
10
0.019313
20
0.008552
30
0
11
0.019438
21
0.008552
31
0
0
LINE
8
CONTOUR
10
0.019437
20
0.0061704
30
0
11
0.019563
21
0.0061704
31
0
0
LINE
8
CONTOUR
10
0.019438
20
0.0014073
30
0
11
0.019563
21
0.0014073
31
0
0
LINE
8
CONTOUR
10
0.019438
20
0.0037889
30
0
11
0.019563
21
0.0037889
31
0
0
LINE
8
CONTOUR
10
0.019438
20
0.008552
30
0
11
0.019563
21
0.008552
31
0
0
LINE
8
CONTOUR
10
0.019563
20
0.0014073
30
0
11
0.019688
21
0.0014073
31
0
0
LINE
8
CONTOUR
10
0.019563
20
0.0037889
30
0
11
0.019629
21
0.0038971
31
0
0
LINE
8
CONTOUR
10
0.019563
20
0.0061704
30
0
11
0.019688
21
0.0061704
31
0
0
LINE
8
CONTOUR
10
0.019563
20
0.008552
30
0
11
0.019688
21
0.008552
31
0
0
LINE
8
CONTOUR
10
0.019629
20
0.0038971
30
0
11
0.01969
21
0.0040015
31
0
0
LINE
8
CONTOUR
10
0.019688
20
0.0014073
30
0
11
0.019813
21
0.0014073
31
0
0
LINE
8
CONTOUR
10
0.019688
20
0.0061704
30
0
11
0.019812
21
0.0061704
31
0
0
LINE
8
CONTOUR
10
0.019688
20
0.008552
30
0
11
0.019813
21
0.008552
31
0
0
LINE
8
CONTOUR
10
0.01969
20
0.0040015
30
0
11
0.01981
21
0.0040015
31
0
0
LINE
8
CONTOUR
10
0.01981
20
0.0040015
30
0
11
0.019938
21
0.0040054
31
0
0
LINE
8
CONTOUR
10
0.019812
20
0.0061704
30
0
11
0.019875
21
0.0060622
31
0
0
LINE
8
CONTOUR
10
0.019813
20
0.0014073
30
0
11
0.019938
21
0.0014073
31
0
0
LINE
8
CONTOUR
10
0.019813
20
0.008552
30
0
11
0.019938
21
0.008552
31
0
0
LINE
8
CONTOUR
10
0.019875
20
0.0060622
30
0
11
0.019938
21
0.0059539
31
0
0
LINE
8
CONTOUR
10
0.019938
20
0.0014073
30
0
11
0.020063
21
0.0014073
31
0
0
LINE
8
CONTOUR
10
0.019938
20
0.0040054
30
0
11
0.020063
21
0.0040054
31
0
0
LINE
8
CONTOUR
10
0.019938
20
0.0059539
30
0
11
0.020063
21
0.0059539
31
0
0
LINE
8
CONTOUR
10
0.019938
20
0.008552
30
0
11
0.020063
21
0.008552
31
0
0
LINE
8
CONTOUR
10
0.020063
20
0.0014073
30
0
11
0.020188
21
0.0014073
31
0
0
LINE
8
CONTOUR
10
0.020063
20
0.0040054
30
0
11
0.020187
21
0.0040054
31
0
0
LINE
8
CONTOUR
10
0.020063
20
0.0059539
30
0
11
0.020187
21
0.0059539
31
0
0
LINE
8
CONTOUR
10
0.020063
20
0.008552
30
0
11
0.020188
21
0.008552
31
0
0
LINE
8
CONTOUR
10
0.020187
20
0.0040054
30
0
11
0.02025
21
0.0041136
31
0
0
LINE
8
CONTOUR
10
0.020187
20
0.0059539
30
0
11
0.02025
21
0.0058457
31
0
0
LINE
8
CONTOUR
10
0.020188
20
0.0014073
30
0
11
0.020313
21
0.0014073
31
0
0
LINE
8
CONTOUR
10
0.020188
20
0.008552
30
0
11
0.020313
21
0.008552
31
0
0
LINE
8
CONTOUR
10
0.02025
20
0.0041136
30
0
11
0.020313
21
0.0042219
31
0
0
LINE
8
CONTOUR
10
0.02025
20
0.0058457
30
0
11
0.020313
21
0.0057374
31
0
0
LINE
8
CONTOUR
10
0.020313
20
0.0014073
30
0
11
0.020438
21
0.0014073
31
0
0
LINE
8
CONTOUR
10
0.020313
20
0.0042219
30
0
11
0.020438
21
0.0042219
31
0
0
LINE
8
CONTOUR
10
0.020313
20
0.0057374
30
0
11
0.020438
21
0.0057374
31
0
0
LINE
8
CONTOUR
10
0.020313
20
0.008552
30
0
11
0.020438
21
0.008552
31
0
0
LINE
8
CONTOUR
10
0.020438
20
0.0014073
30
0
11
0.020563
21
0.0014073
31
0
0
LINE
8
CONTOUR
10
0.020438
20
0.0042219
30
0
11
0.020563
21
0.0042219
31
0
0
LINE
8
CONTOUR
10
0.020438
20
0.0057374
30
0
11
0.020563
21
0.0057374
31
0
0
LINE
8
CONTOUR
10
0.020438
20
0.008552
30
0
11
0.020562
21
0.008552
31
0
0
LINE
8
CONTOUR
10
0.020562
20
0.008552
30
0
11
0.020625
21
0.0086603
31
0
0
LINE
8
CONTOUR
10
0.020563
20
0.0014073
30
0
11
0.020688
21
0.0014073
31
0
0
LINE
8
CONTOUR
10
0.020563
20
0.0042219
30
0
11
0.020688
21
0.0042219
31
0
0
LINE
8
CONTOUR
10
0.020563
20
0.0057374
30
0
11
0.020688
21
0.0057374
31
0
0
LINE
8
CONTOUR
10
0.020625
20
0.0086603
30
0
11
0.020688
21
0.0087686
31
0
0
LINE
8
CONTOUR
10
0.020688
20
0.0014073
30
0
11
0.020813
21
0.0014073
31
0
0
LINE
8
CONTOUR
10
0.020688
20
0.0042219
30
0
11
0.02075
21
0.0041136
31
0
0
LINE
8
CONTOUR
10
0.020688
20
0.0057374
30
0
11
0.02075
21
0.0058457
31
0
0
LINE
8
CONTOUR
10
0.020688
20
0.0087686
30
0
11
0.020812
21
0.0087685
31
0
0
LINE
8
CONTOUR
10
0.02075
20
0.0041136
30
0
11
0.020813
21
0.0040054
31
0
0
LINE
8
CONTOUR
10
0.02075
20
0.0058457
30
0
11
0.020813
21
0.0059539
31
0
0
LINE
8
CONTOUR
10
0.020812
20
0.0087685
30
0
11
0.020938
21
0.0087685
31
0
0
LINE
8
CONTOUR
10
0.020813
20
0.0014073
30
0
11
0.020938
21
0.0014073
31
0
0
LINE
8
CONTOUR
10
0.020813
20
0.0040054
30
0
11
0.020885
21
0.0038971
31
0
0
LINE
8
CONTOUR
10
0.020885
20
0.0038971
30
0
11
0.020943
21
0.0037979
31
0
0
LINE
8
CONTOUR
10
0.020938
20
0.0014073
30
0
11
0.021063
21
0.0014073
31
0
0
LINE
8
CONTOUR
10
0.020938
20
0.0087685
30
0
11
0.021063
21
0.0087686
31
0
0
LINE
8
CONTOUR
10
0.020943
20
0.0037979
30
0
11
0.021
21
0.0036806
31
0
0
LINE
8
CONTOUR
10
0.020987
20
0.0060394
30
0
11
0.021013
21
0.0060394
31
0
0
LINE
8
CONTOUR
10
0.020987
20
0.0060394
30
0
11
0.021013
21
0.0060852
31
0
0
LINE
8
CONTOUR
10
0.020987
20
0.0060394
30
0
11
0.021026
21
0.0060622
31
0
0
LINE
8
CONTOUR
10
0.021
20
0.0036806
30
0
11
0.021063
21
0.0035726
31
0
0
LINE
8
CONTOUR
10
0.021
20
0.0049796
30
0
11
0.021063
21
0.0048714
31
0
0
LINE
8
CONTOUR
10
0.021
20
0.0049796
30
0
11
0.021063
21
0.0050879
31
0
0
LINE
8
CONTOUR
10
0.021001
20
0.0062787
30
0
11
0.021063
21
0.0063865
31
0
0
LINE
8
CONTOUR
10
0.021013
20
0.0060394
30
0
11
0.021013
21
0.0060852
31
0
0
LINE
8
CONTOUR
10
0.021013
20
0.0060394
30
0
11
0.021026
21
0.0060622
31
0
0
LINE
8
CONTOUR
10
0.021013
20
0.0060852
30
0
11
0.021026
21
0.0060622
31
0
0
LINE
8
CONTOUR
10
0.021063
20
0.0014073
30
0
11
0.021188
21
0.0014073
31
0
0
LINE
8
CONTOUR
10
0.021063
20
0.0035726
30
0
11
0.021125
21
0.0034641
31
0
0
LINE
8
CONTOUR
10
0.021063
20
0.0048714
30
0
11
0.021125
21
0.0047631
31
0
0
LINE
8
CONTOUR
10
0.021063
20
0.0050879
30
0
11
0.021125
21
0.0051962
31
0
0
LINE
8
CONTOUR
10
0.021063
20
0.0063865
30
0
11
0.021125
21
0.0064952
31
0
0
LINE
8
CONTOUR
10
0.021063
20
0.0087686
30
0
11
0.021188
21
0.0087686
31
0
0
LINE
8
CONTOUR
10
0.021125
20
0.0034641
30
0
11
0.021188
21
0.0033561
31
0
0
LINE
8
CONTOUR
10
0.021125
20
0.0047631
30
0
11
0.021188
21
0.0046549
31
0
0
LINE
8
CONTOUR
10
0.021125
20
0.0051962
30
0
11
0.021188
21
0.0053044
31
0
0
LINE
8
CONTOUR
10
0.021125
20
0.0064952
30
0
11
0.021188
21
0.0066033
31
0
0
LINE
8
CONTOUR
10
0.021188
20
0.0014073
30
0
11
0.021313
21
0.0014073
31
0
0
LINE
8
CONTOUR
10
0.021188
20
0.0033561
30
0
11
0.021251
21
0.0032476
31
0
0
LINE
8
CONTOUR
10
0.021188
20
0.0046549
30
0
11
0.02125
21
0.0045466
31
0
0
LINE
8
CONTOUR
10
0.021188
20
0.0053044
30
0
11
0.02125
21
0.0054127
31
0
0
LINE
8
CONTOUR
10
0.021188
20
0.0066033
30
0
11
0.02125
21
0.0067117
31
0
0
LINE
8
CONTOUR
10
0.021188
20
0.0087686
30
0
11
0.021313
21
0.0087686
31
0
0
LINE
8
CONTOUR
10
0.02125
20
0.0045466
30
0
11
0.021313
21
0.0044384
31
0
0
LINE
8
CONTOUR
10
0.02125
20
0.0054127
30
0
11
0.021313
21
0.0055209
31
0
0
LINE
8
CONTOUR
10
0.02125
20
0.0067117
30
0
11
0.021313
21
0.0068198
31
0
0
LINE
8
CONTOUR
10
0.021251
20
0.0032476
30
0
11
0.021313
21
0.0031398
31
0
0
LINE
8
CONTOUR
10
0.021313
20
0.0014073
30
0
11
0.021438
21
0.0014073
31
0
0
LINE
8
CONTOUR
10
0.021313
20
0.0031398
30
0
11
0.021378
21
0.0030311
31
0
0
LINE
8
CONTOUR
10
0.021313
20
0.0044384
30
0
11
0.021375
21
0.0043301
31
0
0
LINE
8
CONTOUR
10
0.021313
20
0.0055209
30
0
11
0.021375
21
0.0056292
31
0
0
LINE
8
CONTOUR
10
0.021313
20
0.0068198
30
0
11
0.021375
21
0.0069282
31
0
0
LINE
8
CONTOUR
10
0.021313
20
0.0087686
30
0
11
0.021438
21
0.0087686
31
0
0
LINE
8
CONTOUR
10
0.021375
20
0.0043301
30
0
11
0.021438
21
0.0042219
31
0
0
LINE
8
CONTOUR
10
0.021375
20
0.0056292
30
0
11
0.021438
21
0.0057374
31
0
0
LINE
8
CONTOUR
10
0.021375
20
0.0069282
30
0
11
0.021438
21
0.0070363
31
0
0
LINE
8
CONTOUR
10
0.021378
20
0.0030311
30
0
11
0.021439
21
0.0029253
31
0
0
LINE
8
CONTOUR
10
0.021438
20
0.0014073
30
0
11
0.021563
21
0.0014073
31
0
0
LINE
8
CONTOUR
10
0.021438
20
0.0042219
30
0
11
0.0215
21
0.0041136
31
0
0
LINE
8
CONTOUR
10
0.021438
20
0.0057374
30
0
11
0.0215
21
0.0058457
31
0
0
LINE
8
CONTOUR
10
0.021438
20
0.0070363
30
0
11
0.0215
21
0.0071447
31
0
0
LINE
8
CONTOUR
10
0.021438
20
0.0087686
30
0
11
0.021563
21
0.0087685
31
0
0
LINE
8
CONTOUR
10
0.021439
20
0.0029253
30
0
11
0.021503
21
0.0028146
31
0
0
LINE
8
CONTOUR
10
0.0215
20
0.0041136
30
0
11
0.021563
21
0.0040054
31
0
0
LINE
8
CONTOUR
10
0.0215
20
0.0058457
30
0
11
0.021563
21
0.0059539
31
0
0
LINE
8
CONTOUR
10
0.0215
20
0.0071447
30
0
11
0.021563
21
0.0072528
31
0
0
LINE
8
CONTOUR
10
0.021503
20
0.0028146
30
0
11
0.021564
21
0.0027093
31
0
0
LINE
8
CONTOUR
10
0.021563
20
0.0014073
30
0
11
0.021688
21
0.0014073
31
0
0
LINE
8
CONTOUR
10
0.021563
20
0.0040054
30
0
11
0.021625
21
0.0038971
31
0
0
LINE
8
CONTOUR
10
0.021563
20
0.0059539
30
0
11
0.021625
21
0.0060622
31
0
0
LINE
8
CONTOUR
10
0.021563
20
0.0072528
30
0
11
0.021625
21
0.0073612
31
0
0
LINE
8
CONTOUR
10
0.021563
20
0.0087685
30
0
11
0.021688
21
0.0087685
31
0
0
LINE
8
CONTOUR
10
0.021564
20
0.0027093
30
0
11
0.021631
21
0.0025981
31
0
0
LINE
8
CONTOUR
10
0.021625
20
0.0038971
30
0
11
0.021688
21
0.0037889
31
0
0
LINE
8
CONTOUR
10
0.021625
20
0.0060622
30
0
11
0.021688
21
0.0061704
31
0
0
LINE
8
CONTOUR
10
0.021625
20
0.0073612
30
0
11
0.021688
21
0.0074694
31
0
0
LINE
8
CONTOUR
10
0.021631
20
0.0025981
30
0
11
0.021691
21
0.0024952
31
0
0
LINE
8
CONTOUR
10
0.021688
20
0.0014073
30
0
11
0.021813
21
0.0014073
31
0
0
LINE
8
CONTOUR
10
0.021688
20
0.0037889
30
0
11
0.02175
21
0.0036806
31
0
0
LINE
8
CONTOUR
10
0.021688
20
0.0061704
30
0
11
0.02175
21
0.0062787
31
0
0
LINE
8
CONTOUR
10
0.021688
20
0.0074694
30
0
11
0.02175
21
0.0075777
31
0
0
LINE
8
CONTOUR
10
0.021688
20
0.0087685
30
0
11
0.021813
21
0.0087686
31
0
0
LINE
8
CONTOUR
10
0.021691
20
0.0024952
30
0
11
0.021803
21
0.0023816
31
0
0
LINE
8
CONTOUR
10
0.02175
20
0.0036806
30
0
11
0.021813
21
0.0035724
31
0
0
LINE
8
CONTOUR
10
0.02175
20
0.0062787
30
0
11
0.021813
21
0.0063869
31
0
0
LINE
8
CONTOUR
10
0.02175
20
0.0075777
30
0
11
0.021813
21
0.0076859
31
0
0
LINE
8
CONTOUR
10
0.021803
20
0.0023816
30
0
11
0.021839
21
0.0023192
31
0
0
LINE
8
CONTOUR
10
0.021803
20
0.0023816
30
0
11
0.021913
21
0.0023156
31
0
0
LINE
8
CONTOUR
10
0.021813
20
0.0014073
30
0
11
0.021938
21
0.0014073
31
0
0
LINE
8
CONTOUR
10
0.021813
20
0.0035724
30
0
11
0.021875
21
0.0034641
31
0
0
LINE
8
CONTOUR
10
0.021813
20
0.0063869
30
0
11
0.021875
21
0.0064952
31
0
0
LINE
8
CONTOUR
10
0.021813
20
0.0076859
30
0
11
0.021875
21
0.0077942
31
0
0
LINE
8
CONTOUR
10
0.021813
20
0.0087686
30
0
11
0.021938
21
0.0087686
31
0
0
LINE
8
CONTOUR
10
0.021839
20
0.0023192
30
0
11
0.021913
21
0.0023156
31
0
0
LINE
8
CONTOUR
10
0.021875
20
0.0034641
30
0
11
0.021938
21
0.0033558
31
0
0
LINE
8
CONTOUR
10
0.021875
20
0.0064952
30
0
11
0.021938
21
0.0066034
31
0
0
LINE
8
CONTOUR
10
0.021875
20
0.0077942
30
0
11
0.021938
21
0.0079024
31
0
0
LINE
8
CONTOUR
10
0.021913
20
0.0023156
30
0
11
0.02206
21
0.0022691
31
0
0
LINE
8
CONTOUR
10
0.021938
20
0.0014073
30
0
11
0.022063
21
0.0014073
31
0
0
LINE
8
CONTOUR
10
0.021938
20
0.0033558
30
0
11
0.022
21
0.0032476
31
0
0
LINE
8
CONTOUR
10
0.021938
20
0.0066034
30
0
11
0.022
21
0.0067117
31
0
0
LINE
8
CONTOUR
10
0.021938
20
0.0079024
30
0
11
0.022001
21
0.0080107
31
0
0
LINE
8
CONTOUR
10
0.021938
20
0.0087686
30
0
11
0.022063
21
0.0087685
31
0
0
LINE
8
CONTOUR
10
0.022
20
0.0032476
30
0
11
0.022063
21
0.0031393
31
0
0
LINE
8
CONTOUR
10
0.022
20
0.0067117
30
0
11
0.022063
21
0.00682
31
0
0
LINE
8
CONTOUR
10
0.022001
20
0.0080107
30
0
11
0.022063
21
0.0081181
31
0
0
LINE
8
CONTOUR
10
0.02206
20
0.0022691
30
0
11
0.02212
21
0.0021651
31
0
0
LINE
8
CONTOUR
10
0.022063
20
0.0014073
30
0
11
0.022188
21
0.0014073
31
0
0
LINE
8
CONTOUR
10
0.022063
20
0.0031393
30
0
11
0.022125
21
0.0030311
31
0
0
LINE
8
CONTOUR
10
0.022063
20
0.00682
30
0
11
0.022125
21
0.0069282
31
0
0
LINE
8
CONTOUR
10
0.022063
20
0.0081181
30
0
11
0.022125
21
0.0082272
31
0
0
LINE
8
CONTOUR
10
0.022063
20
0.0087685
30
0
11
0.022125
21
0.0086603
31
0
0
LINE
8
CONTOUR
10
0.02212
20
0.0021651
30
0
11
0.022187
21
0.0020568
31
0
0
LINE
8
CONTOUR
10
0.022125
20
0.0030311
30
0
11
0.022188
21
0.0029228
31
0
0
LINE
8
CONTOUR
10
0.022125
20
0.0069282
30
0
11
0.022188
21
0.0070365
31
0
0
LINE
8
CONTOUR
10
0.022125
20
0.0082272
30
0
11
0.022188
21
0.0083355
31
0
0
LINE
8
CONTOUR
10
0.022125
20
0.0086603
30
0
11
0.022188
21
0.008552
31
0
0
LINE
8
CONTOUR
10
0.022187
20
0.0020568
30
0
11
0.02225
21
0.0019486
31
0
0
LINE
8
CONTOUR
10
0.022188
20
0.0014073
30
0
11
0.02225
21
0.0015155
31
0
0
LINE
8
CONTOUR
10
0.022188
20
0.0029228
30
0
11
0.02225
21
0.0028146
31
0
0
LINE
8
CONTOUR
10
0.022188
20
0.0070365
30
0
11
0.02225
21
0.0071447
31
0
0
LINE
8
CONTOUR
10
0.022188
20
0.0083355
30
0
11
0.02225
21
0.0084437
31
0
0
LINE
8
CONTOUR
10
0.022188
20
0.008552
30
0
11
0.02225
21
0.0084437
31
0
0
LINE
8
CONTOUR
10
0.02225
20
0.0015155
30
0
11
0.02231
21
0.001628
31
0
0
LINE
8
CONTOUR
10
0.02225
20
0.0019486
30
0
11
0.02231
21
0.0018361
31
0
0
LINE
8
CONTOUR
10
0.02225
20
0.0028146
30
0
11
0.022313
21
0.0027063
31
0
0
LINE
8
CONTOUR
10
0.02225
20
0.0071447
30
0
11
0.022313
21
0.007253
31
0
0
LINE
8
CONTOUR
10
0.02231
20
0.001628
30
0
11
0.02237
21
0.0017321
31
0
0
LINE
8
CONTOUR
10
0.02231
20
0.0018361
30
0
11
0.02237
21
0.0017321
31
0
0
LINE
8
CONTOUR
10
0.022313
20
0.0027063
30
0
11
0.022375
21
0.0025981
31
0
0
LINE
8
CONTOUR
10
0.022313
20
0.007253
30
0
11
0.022375
21
0.0073612
31
0
0
LINE
8
CONTOUR
10
0.022375
20
0.0025981
30
0
11
0.022438
21
0.0024898
31
0
0
LINE
8
CONTOUR
10
0.022375
20
0.0073612
30
0
11
0.022438
21
0.0074695
31
0
0
LINE
8
CONTOUR
10
0.022438
20
0.0024898
30
0
11
0.0225
21
0.0023816
31
0
0
LINE
8
CONTOUR
10
0.022438
20
0.0074695
30
0
11
0.0225
21
0.0075777
31
0
0
LINE
8
CONTOUR
10
0.0225
20
0.0023816
30
0
11
0.022563
21
0.0022733
31
0
0
LINE
8
CONTOUR
10
0.0225
20
0.0075777
30
0
11
0.022563
21
0.007686
31
0
0
LINE
8
CONTOUR
10
0.022563
20
0.0022733
30
0
11
0.022625
21
0.0021651
31
0
0
LINE
8
CONTOUR
10
0.022563
20
0.007686
30
0
11
0.022625
21
0.0077942
31
0
0
LINE
8
CONTOUR
10
0.022625
20
0.0021651
30
0
11
0.022688
21
0.0020568
31
0
0
LINE
8
CONTOUR
10
0.022625
20
0.0077942
30
0
11
0.022688
21
0.0079025
31
0
0
LINE
8
CONTOUR
10
0.022688
20
0.0020568
30
0
11
0.02275
21
0.0019486
31
0
0
LINE
8
CONTOUR
10
0.022688
20
0.0079025
30
0
11
0.02275
21
0.0080107
31
0
0
LINE
8
CONTOUR
10
0.02275
20
0.0019486
30
0
11
0.022813
21
0.0018403
31
0
0
LINE
8
CONTOUR
10
0.02275
20
0.0080107
30
0
11
0.022813
21
0.008119
31
0
0
LINE
8
CONTOUR
10
0.022813
20
0.0018403
30
0
11
0.022937
21
0.0018403
31
0
0
LINE
8
CONTOUR
10
0.022813
20
0.008119
30
0
11
0.022875
21
0.0082272
31
0
0
LINE
8
CONTOUR
10
0.022875
20
0.0082272
30
0
11
0.022938
21
0.0083355
31
0
0
LINE
8
CONTOUR
10
0.022937
20
0.0018403
30
0
11
0.023062
21
0.0018403
31
0
0
LINE
8
CONTOUR
10
0.022938
20
0.0083355
30
0
11
0.023
21
0.0084437
31
0
0
LINE
8
CONTOUR
10
0.023
20
0.0084437
30
0
11
0.023063
21
0.008552
31
0
0
LINE
8
CONTOUR
10
0.023062
20
0.0018403
30
0
11
0.023125
21
0.0017321
31
0
0
LINE
8
CONTOUR
10
0.023063
20
0.008552
30
0
11
0.023187
21
0.008552
31
0
0
LINE
8
CONTOUR
10
0.023125
20
0.0017321
30
0
11
0.023188
21
0.0016238
31
0
0
LINE
8
CONTOUR
10
0.023187
20
0.008552
30
0
11
0.023313
21
0.008552
31
0
0
LINE
8
CONTOUR
10
0.023188
20
0.0016238
30
0
11
0.023313
21
0.0016238
31
0
0
LINE
8
CONTOUR
10
0.023313
20
0.0016238
30
0
11
0.023438
21
0.0016238
31
0
0
LINE
8
CONTOUR
10
0.023313
20
0.008552
30
0
11
0.023438
21
0.008552
31
0
0
LINE
8
CONTOUR
10
0.023438
20
0.0016238
30
0
11
0.023563
21
0.0016238
31
0
0
LINE
8
CONTOUR
10
0.023438
20
0.008552
30
0
11
0.0235
21
0.0084437
31
0
0
LINE
8
CONTOUR
10
0.0235
20
0.0084437
30
0
11
0.023563
21
0.0083355
31
0
0
LINE
8
CONTOUR
10
0.023563
20
0.0016238
30
0
11
0.023625
21
0.0017321
31
0
0
LINE
8
CONTOUR
10
0.023563
20
0.0083355
30
0
11
0.023687
21
0.0083355
31
0
0
LINE
8
CONTOUR
10
0.023625
20
0.0017321
30
0
11
0.023688
21
0.0018403
31
0
0
LINE
8
CONTOUR
10
0.023687
20
0.0083355
30
0
11
0.023813
21
0.0083355
31
0
0
LINE
8
CONTOUR
10
0.023688
20
0.0018403
30
0
11
0.023812
21
0.0018403
31
0
0
LINE
8
CONTOUR
10
0.023812
20
0.0018403
30
0
11
0.023938
21
0.0018403
31
0
0
LINE
8
CONTOUR
10
0.023813
20
0.0083355
30
0
11
0.023875
21
0.0082272
31
0
0
LINE
8
CONTOUR
10
0.023875
20
0.0082272
30
0
11
0.023938
21
0.008119
31
0
0
LINE
8
CONTOUR
10
0.023938
20
0.0018403
30
0
11
0.024
21
0.0019486
31
0
0
LINE
8
CONTOUR
10
0.023938
20
0.008119
30
0
11
0.024063
21
0.008119
31
0
0
LINE
8
CONTOUR
10
0.024
20
0.0019486
30
0
11
0.024063
21
0.0020568
31
0
0
LINE
8
CONTOUR
10
0.024063
20
0.0020568
30
0
11
0.024187
21
0.0020568
31
0
0
LINE
8
CONTOUR
10
0.024063
20
0.008119
30
0
11
0.024188
21
0.008119
31
0
0
LINE
8
CONTOUR
10
0.024125
20
0.00086603
30
0
11
0.024188
21
0.00075778
31
0
0
LINE
8
CONTOUR
10
0.024125
20
0.00086603
30
0
11
0.024188
21
0.00097427
31
0
0
LINE
8
CONTOUR
10
0.024187
20
0.0020568
30
0
11
0.024313
21
0.0020568
31
0
0
LINE
8
CONTOUR
10
0.024188
20
0.00075778
30
0
11
0.024312
21
0.00075778
31
0
0
LINE
8
CONTOUR
10
0.024188
20
0.00097427
30
0
11
0.02425
21
0.0010825
31
0
0
LINE
8
CONTOUR
10
0.024188
20
0.008119
30
0
11
0.02425
21
0.0080107
31
0
0
LINE
8
CONTOUR
10
0.02425
20
0.0010825
30
0
11
0.024312
21
0.0011908
31
0
0
LINE
8
CONTOUR
10
0.02425
20
0.0080107
30
0
11
0.024313
21
0.0079025
31
0
0
LINE
8
CONTOUR
10
0.02425
20
0.0088769
30
0
11
0.024312
21
0.0089854
31
0
0
LINE
8
CONTOUR
10
0.02425
20
0.0088769
30
0
11
0.024313
21
0.0087686
31
0
0
LINE
8
CONTOUR
10
0.024312
20
0.00075778
30
0
11
0.024437
21
0.00075777
31
0
0
LINE
8
CONTOUR
10
0.024312
20
0.0011908
30
0
11
0.024375
21
0.001299
31
0
0
LINE
8
CONTOUR
10
0.024312
20
0.0089854
30
0
11
0.024375
21
0.0090936
31
0
0
LINE
8
CONTOUR
10
0.024313
20
0.0020568
30
0
11
0.024375
21
0.0021651
31
0
0
LINE
8
CONTOUR
10
0.024313
20
0.0079025
30
0
11
0.02444
21
0.0078978
31
0
0
LINE
8
CONTOUR
10
0.024313
20
0.0087686
30
0
11
0.024375
21
0.0086603
31
0
0
LINE
8
CONTOUR
10
0.024375
20
0.001299
30
0
11
0.024438
21
0.0014073
31
0
0
LINE
8
CONTOUR
10
0.024375
20
0.0021651
30
0
11
0.024438
21
0.0022733
31
0
0
LINE
8
CONTOUR
10
0.024375
20
0.0086603
30
0
11
0.024438
21
0.008552
31
0
0
LINE
8
CONTOUR
10
0.024375
20
0.0090936
30
0
11
0.024438
21
0.0092022
31
0
0
LINE
8
CONTOUR
10
0.024437
20
0.00075777
30
0
11
0.024562
21
0.00075777
31
0
0
LINE
8
CONTOUR
10
0.024438
20
0.0014073
30
0
11
0.024563
21
0.0014073
31
0
0
LINE
8
CONTOUR
10
0.024438
20
0.0022733
30
0
11
0.024563
21
0.0022733
31
0
0
LINE
8
CONTOUR
10
0.024438
20
0.008552
30
0
11
0.024562
21
0.008552
31
0
0
LINE
8
CONTOUR
10
0.024438
20
0.0092022
30
0
11
0.024563
21
0.0092023
31
0
0
LINE
8
CONTOUR
10
0.02444
20
0.0078978
30
0
11
0.02456
21
0.0078978
31
0
0
LINE
8
CONTOUR
10
0.02456
20
0.0078978
30
0
11
0.02462
21
0.0077942
31
0
0
LINE
8
CONTOUR
10
0.024562
20
0.00075777
30
0
11
0.024687
21
0.00075777
31
0
0
LINE
8
CONTOUR
10
0.024562
20
0.008552
30
0
11
0.024688
21
0.008552
31
0
0
LINE
8
CONTOUR
10
0.024563
20
0.0014073
30
0
11
0.024687
21
0.0014073
31
0
0
LINE
8
CONTOUR
10
0.024563
20
0.0022733
30
0
11
0.024688
21
0.0022733
31
0
0
LINE
8
CONTOUR
10
0.024563
20
0.0092023
30
0
11
0.024688
21
0.0092022
31
0
0
LINE
8
CONTOUR
10
0.02462
20
0.0077942
30
0
11
0.024688
21
0.007686
31
0
0
LINE
8
CONTOUR
10
0.024687
20
0.00075777
30
0
11
0.024812
21
0.00075777
31
0
0
LINE
8
CONTOUR
10
0.024687
20
0.0014073
30
0
11
0.02475
21
0.0015155
31
0
0
LINE
8
CONTOUR
10
0.024688
20
0.0022733
30
0
11
0.02475
21
0.0023816
31
0
0
LINE
8
CONTOUR
10
0.024688
20
0.007686
30
0
11
0.02475
21
0.0075777
31
0
0
LINE
8
CONTOUR
10
0.024688
20
0.008552
30
0
11
0.02475
21
0.0084437
31
0
0
LINE
8
CONTOUR
10
0.024688
20
0.0092022
30
0
11
0.024813
21
0.0092019
31
0
0
LINE
8
CONTOUR
10
0.02475
20
0.0015155
30
0
11
0.024813
21
0.0016238
31
0
0
LINE
8
CONTOUR
10
0.02475
20
0.0023816
30
0
11
0.024813
21
0.0024898
31
0
0
LINE
8
CONTOUR
10
0.02475
20
0.0075777
30
0
11
0.024813
21
0.0074695
31
0
0
LINE
8
CONTOUR
10
0.02475
20
0.0084437
30
0
11
0.024813
21
0.0083355
31
0
0
LINE
8
CONTOUR
10
0.024812
20
0.00075777
30
0
11
0.024937
21
0.00075777
31
0
0
LINE
8
CONTOUR
10
0.024813
20
0.0016238
30
0
11
0.024938
21
0.0016238
31
0
0
LINE
8
CONTOUR
10
0.024813
20
0.0024898
30
0
11
0.024956
21
0.002521
31
0
0
LINE
8
CONTOUR
10
0.024813
20
0.0074695
30
0
11
0.024937
21
0.0074695
31
0
0
LINE
8
CONTOUR
10
0.024813
20
0.0083355
30
0
11
0.024937
21
0.0083355
31
0
0
LINE
8
CONTOUR
10
0.024813
20
0.0092019
30
0
11
0.024938
21
0.0092019
31
0
0
LINE
8
CONTOUR
10
0.024937
20
0.00075777
30
0
11
0.025063
21
0.00075777
31
0
0
LINE
8
CONTOUR
10
0.024937
20
0.0074695
30
0
11
0.025063
21
0.0074695
31
0
0
LINE
8
CONTOUR
10
0.024937
20
0.0083355
30
0
11
0.025063
21
0.0083355
31
0
0
LINE
8
CONTOUR
10
0.024938
20
0.0016238
30
0
11
0.025062
21
0.0016238
31
0
0
LINE
8
CONTOUR
10
0.024938
20
0.0092019
30
0
11
0.025063
21
0.0092021
31
0
0
LINE
8
CONTOUR
10
0.024956
20
0.002521
30
0
11
0.025044
21
0.002521
31
0
0
LINE
8
CONTOUR
10
0.024956
20
0.002521
30
0
11
0.025089
21
0.0025981
31
0
0
LINE
8
CONTOUR
10
0.025044
20
0.002521
30
0
11
0.025089
21
0.0025981
31
0
0
LINE
8
CONTOUR
10
0.025062
20
0.0016238
30
0
11
0.025125
21
0.0017321
31
0
0
LINE
8
CONTOUR
10
0.025063
20
0.00075777
30
0
11
0.025188
21
0.00075777
31
0
0
LINE
8
CONTOUR
10
0.025063
20
0.0074695
30
0
11
0.025125
21
0.0073612
31
0
0
LINE
8
CONTOUR
10
0.025063
20
0.0083355
30
0
11
0.025125
21
0.0082272
31
0
0
LINE
8
CONTOUR
10
0.025063
20
0.0092021
30
0
11
0.025188
21
0.0092022
31
0
0
LINE
8
CONTOUR
10
0.025089
20
0.0025981
30
0
11
0.025188
21
0.0027063
31
0
0
LINE
8
CONTOUR
10
0.025125
20
0.0017321
30
0
11
0.025188
21
0.0018403
31
0
0
LINE
8
CONTOUR
10
0.025125
20
0.0073612
30
0
11
0.025188
21
0.007253
31
0
0
LINE
8
CONTOUR
10
0.025125
20
0.0082272
30
0
11
0.025188
21
0.008119
31
0
0
LINE
8
CONTOUR
10
0.025188
20
0.00075777
30
0
11
0.025313
21
0.00075777
31
0
0
LINE
8
CONTOUR
10
0.025188
20
0.0018403
30
0
11
0.02525
21
0.0019486
31
0
0
LINE
8
CONTOUR
10
0.025188
20
0.0027063
30
0
11
0.02525
21
0.0028146
31
0
0
LINE
8
CONTOUR
10
0.025188
20
0.007253
30
0
11
0.025313
21
0.007253
31
0
0
LINE
8
CONTOUR
10
0.025188
20
0.008119
30
0
11
0.025312
21
0.008119
31
0
0
LINE
8
CONTOUR
10
0.025188
20
0.0092022
30
0
11
0.025313
21
0.0092022
31
0
0
LINE
8
CONTOUR
10
0.02525
20
0.0019486
30
0
11
0.025313
21
0.0020566
31
0
0
LINE
8
CONTOUR
10
0.02525
20
0.0028146
30
0
11
0.025313
21
0.0029228
31
0
0
LINE
8
CONTOUR
10
0.025312
20
0.008119
30
0
11
0.025438
21
0.008119
31
0
0
LINE
8
CONTOUR
10
0.025313
20
0.00075777
30
0
11
0.025438
21
0.00075777
31
0
0
LINE
8
CONTOUR
10
0.025313
20
0.0020566
30
0
11
0.025437
21
0.0020566
31
0
0
LINE
8
CONTOUR
10
0.025313
20
0.0029228
30
0
11
0.025437
21
0.0029228
31
0
0
LINE
8
CONTOUR
10
0.025313
20
0.007253
30
0
11
0.025438
21
0.007253
31
0
0
LINE
8
CONTOUR
10
0.025313
20
0.0092022
30
0
11
0.025438
21
0.0092022
31
0
0
LINE
8
CONTOUR
10
0.025437
20
0.0020566
30
0
11
0.025563
21
0.0020568
31
0
0
LINE
8
CONTOUR
10
0.025437
20
0.0029228
30
0
11
0.025563
21
0.0029228
31
0
0
LINE
8
CONTOUR
10
0.025438
20
0.00075777
30
0
11
0.025562
21
0.00075777
31
0
0
LINE
8
CONTOUR
10
0.025438
20
0.007253
30
0
11
0.0255
21
0.0071447
31
0
0
LINE
8
CONTOUR
10
0.025438
20
0.008119
30
0
11
0.0255
21
0.0080107
31
0
0
LINE
8
CONTOUR
10
0.025438
20
0.0092022
30
0
11
0.025563
21
0.0092019
31
0
0
LINE
8
CONTOUR
10
0.0255
20
0.0071447
30
0
11
0.025563
21
0.0070365
31
0
0
LINE
8
CONTOUR
10
0.0255
20
0.0080107
30
0
11
0.025563
21
0.0079025
31
0
0
LINE
8
CONTOUR
10
0.025562
20
0.00075777
30
0
11
0.025687
21
0.00075777
31
0
0
LINE
8
CONTOUR
10
0.025563
20
0.0020568
30
0
11
0.025625
21
0.0021651
31
0
0
LINE
8
CONTOUR
10
0.025563
20
0.0029228
30
0
11
0.025625
21
0.0030311
31
0
0
LINE
8
CONTOUR
10
0.025563
20
0.0070365
30
0
11
0.025688
21
0.0070364
31
0
0
LINE
8
CONTOUR
10
0.025563
20
0.0079025
30
0
11
0.025688
21
0.0079025
31
0
0
LINE
8
CONTOUR
10
0.025563
20
0.0092019
30
0
11
0.025688
21
0.0092019
31
0
0
LINE
8
CONTOUR
10
0.025625
20
0.0021651
30
0
11
0.025688
21
0.0022733
31
0
0
LINE
8
CONTOUR
10
0.025625
20
0.0030311
30
0
11
0.025688
21
0.0031393
31
0
0
LINE
8
CONTOUR
10
0.025687
20
0.00075777
30
0
11
0.025813
21
0.00075777
31
0
0
LINE
8
CONTOUR
10
0.025688
20
0.0022733
30
0
11
0.025812
21
0.0022733
31
0
0
LINE
8
CONTOUR
10
0.025688
20
0.0031393
30
0
11
0.025812
21
0.0031393
31
0
0
LINE
8
CONTOUR
10
0.025688
20
0.0070364
30
0
11
0.025812
21
0.0070364
31
0
0
LINE
8
CONTOUR
10
0.025688
20
0.0079025
30
0
11
0.025812
21
0.0079025
31
0
0
LINE
8
CONTOUR
10
0.025688
20
0.0092019
30
0
11
0.025813
21
0.0092021
31
0
0
LINE
8
CONTOUR
10
0.025812
20
0.0022733
30
0
11
0.025938
21
0.0022733
31
0
0
LINE
8
CONTOUR
10
0.025812
20
0.0031393
30
0
11
0.025938
21
0.0031393
31
0
0
LINE
8
CONTOUR
10
0.025812
20
0.0070364
30
0
11
0.025875
21
0.0069282
31
0
0
LINE
8
CONTOUR
10
0.025812
20
0.0079025
30
0
11
0.025875
21
0.0077942
31
0
0
LINE
8
CONTOUR
10
0.025813
20
0.00075777
30
0
11
0.025938
21
0.00075777
31
0
0
LINE
8
CONTOUR
10
0.025813
20
0.0092021
30
0
11
0.025938
21
0.0092022
31
0
0
LINE
8
CONTOUR
10
0.025875
20
0.0069282
30
0
11
0.025938
21
0.00682
31
0
0
LINE
8
CONTOUR
10
0.025875
20
0.0077942
30
0
11
0.025938
21
0.007686
31
0
0
LINE
8
CONTOUR
10
0.025938
20
0.00075777
30
0
11
0.026063
21
0.00075777
31
0
0
LINE
8
CONTOUR
10
0.025938
20
0.0022733
30
0
11
0.026
21
0.0023816
31
0
0
LINE
8
CONTOUR
10
0.025938
20
0.0031393
30
0
11
0.026
21
0.0032476
31
0
0
LINE
8
CONTOUR
10
0.025938
20
0.00682
30
0
11
0.026
21
0.0067117
31
0
0
LINE
8
CONTOUR
10
0.025938
20
0.0092022
30
0
11
0.026062
21
0.0092023
31
0
0
LINE
8
CONTOUR
10
0.026
20
0.0023816
30
0
11
0.026063
21
0.0024898
31
0
0
LINE
8
CONTOUR
10
0.026
20
0.0032476
30
0
11
0.026063
21
0.0033558
31
0
0
LINE
8
CONTOUR
10
0.026
20
0.0067117
30
0
11
0.026063
21
0.0066034
31
0
0
LINE
8
CONTOUR
10
0.026062
20
0.0092023
30
0
11
0.026187
21
0.0092021
31
0
0
LINE
8
CONTOUR
10
0.026063
20
0.00075777
30
0
11
0.026188
21
0.00075777
31
0
0
LINE
8
CONTOUR
10
0.026063
20
0.0024898
30
0
11
0.026188
21
0.0024898
31
0
0
LINE
8
CONTOUR
10
0.026063
20
0.0033558
30
0
11
0.026188
21
0.0033558
31
0
0
LINE
8
CONTOUR
10
0.026063
20
0.0066034
30
0
11
0.026187
21
0.0066034
31
0
0
LINE
8
CONTOUR
10
0.026074
20
0.0075777
30
0
11
0.0261
21
0.0075339
31
0
0
LINE
8
CONTOUR
10
0.026074
20
0.0075777
30
0
11
0.02615
21
0.0075339
31
0
0
LINE
8
CONTOUR
10
0.0261
20
0.0075339
30
0
11
0.02615
21
0.0075339
31
0
0
LINE
8
CONTOUR
10
0.026187
20
0.0066034
30
0
11
0.026313
21
0.0066034
31
0
0
LINE
8
CONTOUR
10
0.026187
20
0.0092021
30
0
11
0.026312
21
0.0092018
31
0
0
LINE
8
CONTOUR
10
0.026188
20
0.00075777
30
0
11
0.026312
21
0.00075777
31
0
0
LINE
8
CONTOUR
10
0.026188
20
0.0024898
30
0
11
0.026312
21
0.0024898
31
0
0
LINE
8
CONTOUR
10
0.026188
20
0.0033558
30
0
11
0.026313
21
0.0033558
31
0
0
LINE
8
CONTOUR
10
0.026312
20
0.00075777
30
0
11
0.026437
21
0.00075777
31
0
0
LINE
8
CONTOUR
10
0.026312
20
0.0024898
30
0
11
0.026375
21
0.0025981
31
0
0
LINE
8
CONTOUR
10
0.026312
20
0.0092018
30
0
11
0.026437
21
0.0092013
31
0
0
LINE
8
CONTOUR
10
0.026313
20
0.0033558
30
0
11
0.026375
21
0.0034641
31
0
0
LINE
8
CONTOUR
10
0.026313
20
0.0066034
30
0
11
0.026375
21
0.0064952
31
0
0
LINE
8
CONTOUR
10
0.026313
20
0.0074695
30
0
11
0.026375
21
0.0073612
31
0
0
LINE
8
CONTOUR
10
0.026375
20
0.0025981
30
0
11
0.026438
21
0.0027063
31
0
0
LINE
8
CONTOUR
10
0.026375
20
0.0034641
30
0
11
0.026438
21
0.0035724
31
0
0
LINE
8
CONTOUR
10
0.026375
20
0.0064952
30
0
11
0.026438
21
0.0063869
31
0
0
LINE
8
CONTOUR
10
0.026375
20
0.0073612
30
0
11
0.026438
21
0.007253
31
0
0
LINE
8
CONTOUR
10
0.026437
20
0.00075777
30
0
11
0.026563
21
0.00075777
31
0
0
LINE
8
CONTOUR
10
0.026437
20
0.0092013
30
0
11
0.026556
21
0.0091981
31
0
0
LINE
8
CONTOUR
10
0.026438
20
0.0027063
30
0
11
0.026563
21
0.0027063
31
0
0
LINE
8
CONTOUR
10
0.026438
20
0.0035724
30
0
11
0.026567
21
0.0035805
31
0
0
LINE
8
CONTOUR
10
0.026438
20
0.0063869
30
0
11
0.026562
21
0.0063869
31
0
0
LINE
8
CONTOUR
10
0.026438
20
0.007253
30
0
11
0.026562
21
0.007253
31
0
0
LINE
8
CONTOUR
10
0.026556
20
0.0091981
30
0
11
0.026673
21
0.0091936
31
0
0
LINE
8
CONTOUR
10
0.026562
20
0.0063869
30
0
11
0.026688
21
0.0063869
31
0
0
LINE
8
CONTOUR
10
0.026562
20
0.007253
30
0
11
0.026688
21
0.007253
31
0
0
LINE
8
CONTOUR
10
0.026563
20
0.00075777
30
0
11
0.026688
21
0.00075777
31
0
0
LINE
8
CONTOUR
10
0.026563
20
0.0027063
30
0
11
0.026687
21
0.0027063
31
0
0
LINE
8
CONTOUR
10
0.026567
20
0.0035805
30
0
11
0.026683
21
0.0035805
31
0
0
LINE
8
CONTOUR
10
0.026673
20
0.0091936
30
0
11
0.026768
21
0.009176
31
0
0
LINE
8
CONTOUR
10
0.026683
20
0.0035805
30
0
11
0.026741
21
0.0036806
31
0
0
LINE
8
CONTOUR
10
0.026687
20
0.0027063
30
0
11
0.02675
21
0.0028146
31
0
0
LINE
8
CONTOUR
10
0.026688
20
0.00075777
30
0
11
0.026813
21
0.00075777
31
0
0
LINE
8
CONTOUR
10
0.026688
20
0.0063869
30
0
11
0.02675
21
0.0062787
31
0
0
LINE
8
CONTOUR
10
0.026688
20
0.007253
30
0
11
0.02675
21
0.0071447
31
0
0
LINE
8
CONTOUR
10
0.026741
20
0.0036806
30
0
11
0.026813
21
0.0037889
31
0
0
LINE
8
CONTOUR
10
0.02675
20
0.0028146
30
0
11
0.026813
21
0.0029228
31
0
0
LINE
8
CONTOUR
10
0.02675
20
0.0062787
30
0
11
0.026813
21
0.0061704
31
0
0
LINE
8
CONTOUR
10
0.02675
20
0.0071447
30
0
11
0.026813
21
0.0070365
31
0
0
LINE
8
CONTOUR
10
0.026768
20
0.009176
30
0
11
0.026873
21
0.0091782
31
0
0
LINE
8
CONTOUR
10
0.026813
20
0.00075777
30
0
11
0.026938
21
0.00075777
31
0
0
LINE
8
CONTOUR
10
0.026813
20
0.0029228
30
0
11
0.026941
21
0.0029286
31
0
0
LINE
8
CONTOUR
10
0.026813
20
0.0037889
30
0
11
0.026875
21
0.0038971
31
0
0
LINE
8
CONTOUR
10
0.026813
20
0.0061704
30
0
11
0.026938
21
0.0061704
31
0
0
LINE
8
CONTOUR
10
0.026813
20
0.0070365
30
0
11
0.026938
21
0.0070365
31
0
0
LINE
8
CONTOUR
10
0.026873
20
0.0091782
30
0
11
0.026963
21
0.0092002
31
0
0
LINE
8
CONTOUR
10
0.026875
20
0.0038971
30
0
11
0.026938
21
0.0040054
31
0
0
LINE
8
CONTOUR
10
0.026938
20
0.00075777
30
0
11
0.027062
21
0.00075777
31
0
0
LINE
8
CONTOUR
10
0.026938
20
0.0040054
30
0
11
0.027062
21
0.0040054
31
0
0
LINE
8
CONTOUR
10
0.026938
20
0.0061704
30
0
11
0.027062
21
0.0061704
31
0
0
LINE
8
CONTOUR
10
0.026938
20
0.0070365
30
0
11
0.027062
21
0.0070365
31
0
0
LINE
8
CONTOUR
10
0.026941
20
0.0029286
30
0
11
0.027059
21
0.0029286
31
0
0
LINE
8
CONTOUR
10
0.026963
20
0.0092002
30
0
11
0.027071
21
0.0092131
31
0
0
LINE
8
CONTOUR
10
0.027059
20
0.0029286
30
0
11
0.027118
21
0.0030311
31
0
0
LINE
8
CONTOUR
10
0.027062
20
0.00075777
30
0
11
0.027187
21
0.00075777
31
0
0
LINE
8
CONTOUR
10
0.027062
20
0.0040054
30
0
11
0.027188
21
0.0040054
31
0
0
LINE
8
CONTOUR
10
0.027062
20
0.0061704
30
0
11
0.027125
21
0.0060622
31
0
0
LINE
8
CONTOUR
10
0.027062
20
0.0070365
30
0
11
0.027125
21
0.0069282
31
0
0
LINE
8
CONTOUR
10
0.027071
20
0.0092131
30
0
11
0.027189
21
0.0092323
31
0
0
LINE
8
CONTOUR
10
0.027118
20
0.0030311
30
0
11
0.027188
21
0.0031393
31
0
0
LINE
8
CONTOUR
10
0.027125
20
0.0060622
30
0
11
0.027188
21
0.0059539
31
0
0
LINE
8
CONTOUR
10
0.027125
20
0.0069282
30
0
11
0.027188
21
0.00682
31
0
0
LINE
8
CONTOUR
10
0.027187
20
0.00075777
30
0
11
0.027312
21
0.00075777
31
0
0
LINE
8
CONTOUR
10
0.027188
20
0.0031393
30
0
11
0.02725
21
0.0032476
31
0
0
LINE
8
CONTOUR
10
0.027188
20
0.0040054
30
0
11
0.02725
21
0.0041136
31
0
0
LINE
8
CONTOUR
10
0.027188
20
0.0059539
30
0
11
0.027331
21
0.005922
31
0
0
LINE
8
CONTOUR
10
0.027188
20
0.00682
30
0
11
0.027313
21
0.0068199
31
0
0
LINE
8
CONTOUR
10
0.027189
20
0.0092323
30
0
11
0.027278
21
0.0091361
31
0
0
LINE
8
CONTOUR
10
0.02725
20
0.0032476
30
0
11
0.027313
21
0.0033558
31
0
0
LINE
8
CONTOUR
10
0.02725
20
0.0041136
30
0
11
0.027313
21
0.0042219
31
0
0
LINE
8
CONTOUR
10
0.027278
20
0.0091361
30
0
11
0.027378
21
0.0090363
31
0
0
LINE
8
CONTOUR
10
0.027312
20
0.00075777
30
0
11
0.027437
21
0.00075777
31
0
0
LINE
8
CONTOUR
10
0.027313
20
0.0033558
30
0
11
0.027437
21
0.0033558
31
0
0
LINE
8
CONTOUR
10
0.027313
20
0.0042219
30
0
11
0.027437
21
0.0042219
31
0
0
LINE
8
CONTOUR
10
0.027313
20
0.0068199
30
0
11
0.027437
21
0.0068199
31
0
0
LINE
8
CONTOUR
10
0.027331
20
0.005922
30
0
11
0.027419
21
0.005922
31
0
0
LINE
8
CONTOUR
10
0.027331
20
0.005922
30
0
11
0.027463
21
0.0058457
31
0
0
LINE
8
CONTOUR
10
0.027378
20
0.0090363
30
0
11
0.027458
21
0.0091003
31
0
0
LINE
8
CONTOUR
10
0.027419
20
0.005922
30
0
11
0.027463
21
0.0058457
31
0
0
LINE
8
CONTOUR
10
0.027437
20
0.00075777
30
0
11
0.027562
21
0.00075777
31
0
0
LINE
8
CONTOUR
10
0.027437
20
0.0033558
30
0
11
0.027563
21
0.0033558
31
0
0
LINE
8
CONTOUR
10
0.027437
20
0.0042219
30
0
11
0.027563
21
0.0042219
31
0
0
LINE
8
CONTOUR
10
0.027437
20
0.0068199
30
0
11
0.0275
21
0.0067117
31
0
0
LINE
8
CONTOUR
10
0.027458
20
0.0091003
30
0
11
0.027586
21
0.0091191
31
0
0
LINE
8
CONTOUR
10
0.027463
20
0.0058457
30
0
11
0.027563
21
0.0057374
31
0
0
LINE
8
CONTOUR
10
0.0275
20
0.0067117
30
0
11
0.027563
21
0.0066034
31
0
0
LINE
8
CONTOUR
10
0.027562
20
0.00075777
30
0
11
0.027687
21
0.00075777
31
0
0
LINE
8
CONTOUR
10
0.027563
20
0.0033558
30
0
11
0.027625
21
0.0034641
31
0
0
LINE
8
CONTOUR
10
0.027563
20
0.0042219
30
0
11
0.027625
21
0.0043301
31
0
0
LINE
8
CONTOUR
10
0.027563
20
0.0057374
30
0
11
0.027625
21
0.0056292
31
0
0
LINE
8
CONTOUR
10
0.027563
20
0.0066034
30
0
11
0.027625
21
0.0064952
31
0
0
LINE
8
CONTOUR
10
0.027586
20
0.0091191
30
0
11
0.027701
21
0.0091252
31
0
0
LINE
8
CONTOUR
10
0.027625
20
0.0034641
30
0
11
0.027688
21
0.0035724
31
0
0
LINE
8
CONTOUR
10
0.027625
20
0.0043301
30
0
11
0.027688
21
0.0044384
31
0
0
LINE
8
CONTOUR
10
0.027625
20
0.0056292
30
0
11
0.027688
21
0.0055209
31
0
0
LINE
8
CONTOUR
10
0.027625
20
0.0064952
30
0
11
0.027688
21
0.0063869
31
0
0
LINE
8
CONTOUR
10
0.027687
20
0.00075777
30
0
11
0.027812
21
0.00075777
31
0
0
LINE
8
CONTOUR
10
0.027688
20
0.0035724
30
0
11
0.027813
21
0.0035724
31
0
0
LINE
8
CONTOUR
10
0.027688
20
0.0044384
30
0
11
0.027813
21
0.0044384
31
0
0
LINE
8
CONTOUR
10
0.027688
20
0.0055209
30
0
11
0.027812
21
0.0055209
31
0
0
LINE
8
CONTOUR
10
0.027688
20
0.0063869
30
0
11
0.027812
21
0.0063869
31
0
0
LINE
8
CONTOUR
10
0.027701
20
0.0091252
30
0
11
0.027824
21
0.0091452
31
0
0
LINE
8
CONTOUR
10
0.027812
20
0.00075777
30
0
11
0.027937
21
0.00075777
31
0
0
LINE
8
CONTOUR
10
0.027812
20
0.0055209
30
0
11
0.027938
21
0.0055209
31
0
0
LINE
8
CONTOUR
10
0.027812
20
0.0063869
30
0
11
0.027938
21
0.0063869
31
0
0
LINE
8
CONTOUR
10
0.027813
20
0.0035724
30
0
11
0.027937
21
0.0035724
31
0
0
LINE
8
CONTOUR
10
0.027813
20
0.0044384
30
0
11
0.027937
21
0.0044384
31
0
0
LINE
8
CONTOUR
10
0.027824
20
0.0091452
30
0
11
0.027948
21
0.0091551
31
0
0
LINE
8
CONTOUR
10
0.027937
20
0.00075777
30
0
11
0.028062
21
0.00075777
31
0
0
LINE
8
CONTOUR
10
0.027937
20
0.0035724
30
0
11
0.028
21
0.0036806
31
0
0
LINE
8
CONTOUR
10
0.027937
20
0.0044384
30
0
11
0.028
21
0.0045466
31
0
0
LINE
8
CONTOUR
10
0.027938
20
0.0055209
30
0
11
0.028
21
0.0054127
31
0
0
LINE
8
CONTOUR
10
0.027938
20
0.0063869
30
0
11
0.028
21
0.0062787
31
0
0
LINE
8
CONTOUR
10
0.027948
20
0.0091551
30
0
11
0.02807
21
0.0091777
31
0
0
LINE
8
CONTOUR
10
0.028
20
0.0036806
30
0
11
0.028063
21
0.0037889
31
0
0
LINE
8
CONTOUR
10
0.028
20
0.0045466
30
0
11
0.028063
21
0.0046549
31
0
0
LINE
8
CONTOUR
10
0.028
20
0.0054127
30
0
11
0.028063
21
0.0053044
31
0
0
LINE
8
CONTOUR
10
0.028
20
0.0062787
30
0
11
0.028063
21
0.0061704
31
0
0
LINE
8
CONTOUR
10
0.028062
20
0.00075777
30
0
11
0.028187
21
0.00075777
31
0
0
LINE
8
CONTOUR
10
0.028063
20
0.0037889
30
0
11
0.028188
21
0.0037889
31
0
0
LINE
8
CONTOUR
10
0.028063
20
0.0046549
30
0
11
0.028125
21
0.0047631
31
0
0
LINE
8
CONTOUR
10
0.028063
20
0.0053044
30
0
11
0.028126
21
0.0051962
31
0
0
LINE
8
CONTOUR
10
0.028063
20
0.0061704
30
0
11
0.028188
21
0.0061704
31
0
0
LINE
8
CONTOUR
10
0.02807
20
0.0091777
30
0
11
0.028192
21
0.0091847
31
0
0
LINE
8
CONTOUR
10
0.028125
20
0.0047631
30
0
11
0.028188
21
0.0048714
31
0
0
LINE
8
CONTOUR
10
0.028126
20
0.0051962
30
0
11
0.028188
21
0.0050887
31
0
0
LINE
8
CONTOUR
10
0.028187
20
0.00075777
30
0
11
0.028312
21
0.00075777
31
0
0
LINE
8
CONTOUR
10
0.028188
20
0.0037889
30
0
11
0.028312
21
0.0037889
31
0
0
LINE
8
CONTOUR
10
0.028188
20
0.0048714
30
0
11
0.02825
21
0.0049796
31
0
0
LINE
8
CONTOUR
10
0.028188
20
0.0050887
30
0
11
0.02825
21
0.0049796
31
0
0
LINE
8
CONTOUR
10
0.028188
20
0.0061704
30
0
11
0.028312
21
0.0061704
31
0
0
LINE
8
CONTOUR
10
0.028192
20
0.0091847
30
0
11
0.028314
21
0.0091932
31
0
0
LINE
8
CONTOUR
10
0.028312
20
0.00075777
30
0
11
0.028437
21
0.00075777
31
0
0
LINE
8
CONTOUR
10
0.028312
20
0.0037889
30
0
11
0.028375
21
0.0038971
31
0
0
LINE
8
CONTOUR
10
0.028312
20
0.0061704
30
0
11
0.028375
21
0.0060622
31
0
0
LINE
8
CONTOUR
10
0.028314
20
0.0091932
30
0
11
0.028435
21
0.0091971
31
0
0
LINE
8
CONTOUR
10
0.028375
20
0.0038971
30
0
11
0.028438
21
0.0040054
31
0
0
LINE
8
CONTOUR
10
0.028375
20
0.0060622
30
0
11
0.028438
21
0.0059539
31
0
0
LINE
8
CONTOUR
10
0.028435
20
0.0091971
30
0
11
0.028561
21
0.0092024
31
0
0
LINE
8
CONTOUR
10
0.028437
20
0.00075777
30
0
11
0.028562
21
0.00075777
31
0
0
LINE
8
CONTOUR
10
0.028438
20
0.0040054
30
0
11
0.028563
21
0.0040054
31
0
0
LINE
8
CONTOUR
10
0.028438
20
0.0059539
30
0
11
0.028563
21
0.0059539
31
0
0
LINE
8
CONTOUR
10
0.028561
20
0.0092024
30
0
11
0.028685
21
0.0092031
31
0
0
LINE
8
CONTOUR
10
0.028562
20
0.00075777
30
0
11
0.028687
21
0.00075777
31
0
0
LINE
8
CONTOUR
10
0.028563
20
0.0040054
30
0
11
0.028687
21
0.0040054
31
0
0
LINE
8
CONTOUR
10
0.028563
20
0.0059539
30
0
11
0.028687
21
0.0059539
31
0
0
LINE
8
CONTOUR
10
0.028685
20
0.0092031
30
0
11
0.028812
21
0.0092016
31
0
0
LINE
8
CONTOUR
10
0.028687
20
0.00075777
30
0
11
0.028813
21
0.00075777
31
0
0
LINE
8
CONTOUR
10
0.028687
20
0.0040054
30
0
11
0.02875
21
0.0041136
31
0
0
LINE
8
CONTOUR
10
0.028687
20
0.0059539
30
0
11
0.02875
21
0.0058457
31
0
0
LINE
8
CONTOUR
10
0.02875
20
0.0041136
30
0
11
0.028813
21
0.0042219
31
0
0
LINE
8
CONTOUR
10
0.02875
20
0.0058457
30
0
11
0.028813
21
0.0057374
31
0
0
LINE
8
CONTOUR
10
0.028812
20
0.0092016
30
0
11
0.028937
21
0.0092018
31
0
0
LINE
8
CONTOUR
10
0.028813
20
0.00075777
30
0
11
0.028938
21
0.00075777
31
0
0
LINE
8
CONTOUR
10
0.028813
20
0.0042219
30
0
11
0.028938
21
0.0042219
31
0
0
LINE
8
CONTOUR
10
0.028813
20
0.0057374
30
0
11
0.028938
21
0.0057374
31
0
0
LINE
8
CONTOUR
10
0.028937
20
0.0092018
30
0
11
0.029062
21
0.0092016
31
0
0
LINE
8
CONTOUR
10
0.028938
20
0.00075777
30
0
11
0.029063
21
0.00075777
31
0
0
LINE
8
CONTOUR
10
0.028938
20
0.0042219
30
0
11
0.029063
21
0.0042219
31
0
0
LINE
8
CONTOUR
10
0.028938
20
0.0057374
30
0
11
0.029063
21
0.0057374
31
0
0
LINE
8
CONTOUR
10
0.029062
20
0.0092016
30
0
11
0.029187
21
0.0092017
31
0
0
LINE
8
CONTOUR
10
0.029063
20
0.00075777
30
0
11
0.029188
21
0.00075777
31
0
0
LINE
8
CONTOUR
10
0.029063
20
0.0042219
30
0
11
0.029188
21
0.0042219
31
0
0
LINE
8
CONTOUR
10
0.029063
20
0.0057374
30
0
11
0.029188
21
0.0057374
31
0
0
LINE
8
CONTOUR
10
0.029187
20
0.0092017
30
0
11
0.029312
21
0.0092021
31
0
0
LINE
8
CONTOUR
10
0.029188
20
0.00075777
30
0
11
0.029312
21
0.00075777
31
0
0
LINE
8
CONTOUR
10
0.029188
20
0.0042219
30
0
11
0.029313
21
0.0042219
31
0
0
LINE
8
CONTOUR
10
0.029188
20
0.0057374
30
0
11
0.029328
21
0.0057644
31
0
0
LINE
8
CONTOUR
10
0.029312
20
0.00075777
30
0
11
0.029437
21
0.00075777
31
0
0
LINE
8
CONTOUR
10
0.029312
20
0.0092021
30
0
11
0.029437
21
0.0092023
31
0
0
LINE
8
CONTOUR
10
0.029313
20
0.0042219
30
0
11
0.029438
21
0.0042219
31
0
0
LINE
8
CONTOUR
10
0.029328
20
0.0057644
30
0
11
0.029422
21
0.0057644
31
0
0
LINE
8
CONTOUR
10
0.029422
20
0.0057644
30
0
11
0.029469
21
0.0058457
31
0
0
LINE
8
CONTOUR
10
0.029437
20
0.00075777
30
0
11
0.029562
21
0.00075777
31
0
0
LINE
8
CONTOUR
10
0.029437
20
0.0092023
30
0
11
0.029562
21
0.0092024
31
0
0
LINE
8
CONTOUR
10
0.029438
20
0.0042219
30
0
11
0.0295
21
0.0041136
31
0
0
LINE
8
CONTOUR
10
0.029469
20
0.0058457
30
0
11
0.029562
21
0.0059539
31
0
0
LINE
8
CONTOUR
10
0.0295
20
0.0041136
30
0
11
0.029563
21
0.0040054
31
0
0
LINE
8
CONTOUR
10
0.029562
20
0.00075777
30
0
11
0.029687
21
0.00075777
31
0
0
LINE
8
CONTOUR
10
0.029562
20
0.0059539
30
0
11
0.029625
21
0.0060622
31
0
0
LINE
8
CONTOUR
10
0.029562
20
0.0092024
30
0
11
0.029687
21
0.0092023
31
0
0
LINE
8
CONTOUR
10
0.029563
20
0.0040054
30
0
11
0.029625
21
0.0038971
31
0
0
LINE
8
CONTOUR
10
0.029625
20
0.0038971
30
0
11
0.029688
21
0.0037889
31
0
0
LINE
8
CONTOUR
10
0.029625
20
0.0047631
30
0
11
0.029669
21
0.004903
31
0
0
LINE
8
CONTOUR
10
0.029625
20
0.0047631
30
0
11
0.029688
21
0.0046549
31
0
0
LINE
8
CONTOUR
10
0.029625
20
0.0051962
30
0
11
0.029669
21
0.0050563
31
0
0
LINE
8
CONTOUR
10
0.029625
20
0.0051962
30
0
11
0.029688
21
0.0053044
31
0
0
LINE
8
CONTOUR
10
0.029625
20
0.0060622
30
0
11
0.029679
21
0.006185
31
0
0
LINE
8
CONTOUR
10
0.029636
20
0.0064952
30
0
11
0.029685
21
0.0063819
31
0
0
LINE
8
CONTOUR
10
0.029636
20
0.0064952
30
0
11
0.029693
21
0.0065939
31
0
0
LINE
8
CONTOUR
10
0.029669
20
0.004903
30
0
11
0.029669
21
0.0050563
31
0
0
LINE
8
CONTOUR
10
0.029669
20
0.004903
30
0
11
0.029713
21
0.0049796
31
0
0
LINE
8
CONTOUR
10
0.029669
20
0.0050563
30
0
11
0.029713
21
0.0049796
31
0
0
LINE
8
CONTOUR
10
0.029679
20
0.006185
30
0
11
0.029733
21
0.0062787
31
0
0
LINE
8
CONTOUR
10
0.029685
20
0.0063819
30
0
11
0.029733
21
0.0062787
31
0
0
LINE
8
CONTOUR
10
0.029687
20
0.00075777
30
0
11
0.029812
21
0.00075777
31
0
0
LINE
8
CONTOUR
10
0.029687
20
0.0092023
30
0
11
0.029812
21
0.0092024
31
0
0
LINE
8
CONTOUR
10
0.029688
20
0.0037889
30
0
11
0.02975
21
0.0036806
31
0
0
LINE
8
CONTOUR
10
0.029688
20
0.0046549
30
0
11
0.02975
21
0.0045466
31
0
0
LINE
8
CONTOUR
10
0.029688
20
0.0053044
30
0
11
0.02975
21
0.0054127
31
0
0
LINE
8
CONTOUR
10
0.029693
20
0.0065939
30
0
11
0.029758
21
0.0067117
31
0
0
LINE
8
CONTOUR
10
0.02975
20
0.0036806
30
0
11
0.029812
21
0.0035723
31
0
0
LINE
8
CONTOUR
10
0.02975
20
0.0045466
30
0
11
0.029813
21
0.0044384
31
0
0
LINE
8
CONTOUR
10
0.02975
20
0.0054127
30
0
11
0.029813
21
0.0055209
31
0
0
LINE
8
CONTOUR
10
0.029758
20
0.0067117
30
0
11
0.029817
21
0.0068126
31
0
0
LINE
8
CONTOUR
10
0.029768
20
0.0032476
30
0
11
0.029822
21
0.0031554
31
0
0
LINE
8
CONTOUR
10
0.029768
20
0.0032476
30
0
11
0.029822
21
0.0033399
31
0
0
LINE
8
CONTOUR
10
0.029812
20
0.00075777
30
0
11
0.029937
21
0.00075777
31
0
0
LINE
8
CONTOUR
10
0.029812
20
0.0035723
30
0
11
0.029875
21
0.0034641
31
0
0
LINE
8
CONTOUR
10
0.029812
20
0.0092024
30
0
11
0.029937
21
0.0092024
31
0
0
LINE
8
CONTOUR
10
0.029813
20
0.0044384
30
0
11
0.029875
21
0.0043301
31
0
0
LINE
8
CONTOUR
10
0.029813
20
0.0055209
30
0
11
0.029875
21
0.0056292
31
0
0
LINE
8
CONTOUR
10
0.029817
20
0.0068126
30
0
11
0.029879
21
0.0069282
31
0
0
LINE
8
CONTOUR
10
0.029822
20
0.0031554
30
0
11
0.029875
21
0.0030311
31
0
0
LINE
8
CONTOUR
10
0.029822
20
0.0033399
30
0
11
0.029875
21
0.0034641
31
0
0
LINE
8
CONTOUR
10
0.029875
20
0.0030311
30
0
11
0.029938
21
0.0029232
31
0
0
LINE
8
CONTOUR
10
0.029875
20
0.0043301
30
0
11
0.029938
21
0.0042219
31
0
0
LINE
8
CONTOUR
10
0.029875
20
0.0056292
30
0
11
0.029938
21
0.0057374
31
0
0
LINE
8
CONTOUR
10
0.029879
20
0.0069282
30
0
11
0.02994
21
0.0070328
31
0
0
LINE
8
CONTOUR
10
0.029937
20
0.00075777
30
0
11
0.030062
21
0.00075777
31
0
0
LINE
8
CONTOUR
10
0.029937
20
0.0092024
30
0
11
0.030062
21
0.0092024
31
0
0
LINE
8
CONTOUR
10
0.029938
20
0.0029232
30
0
11
0.03
21
0.0028146
31
0
0
LINE
8
CONTOUR
10
0.029938
20
0.0042219
30
0
11
0.03
21
0.0041136
31
0
0
LINE
8
CONTOUR
10
0.029938
20
0.0057374
30
0
11
0.03
21
0.0058457
31
0
0
LINE
8
CONTOUR
10
0.02994
20
0.0070328
30
0
11
0.030001
21
0.0071447
31
0
0
LINE
8
CONTOUR
10
0.03
20
0.0028146
30
0
11
0.030063
21
0.0027064
31
0
0
LINE
8
CONTOUR
10
0.03
20
0.0041136
30
0
11
0.030063
21
0.0040054
31
0
0
LINE
8
CONTOUR
10
0.03
20
0.0058457
30
0
11
0.030063
21
0.0059539
31
0
0
LINE
8
CONTOUR
10
0.030001
20
0.0071447
30
0
11
0.030063
21
0.0072521
31
0
0
LINE
8
CONTOUR
10
0.030062
20
0.00075777
30
0
11
0.030187
21
0.00075777
31
0
0
LINE
8
CONTOUR
10
0.030062
20
0.0092024
30
0
11
0.030187
21
0.0092024
31
0
0
LINE
8
CONTOUR
10
0.030063
20
0.0027064
30
0
11
0.030125
21
0.0025981
31
0
0
LINE
8
CONTOUR
10
0.030063
20
0.0040054
30
0
11
0.030125
21
0.0038971
31
0
0
LINE
8
CONTOUR
10
0.030063
20
0.0059539
30
0
11
0.030125
21
0.0060622
31
0
0
LINE
8
CONTOUR
10
0.030063
20
0.0072521
30
0
11
0.030125
21
0.0073612
31
0
0
LINE
8
CONTOUR
10
0.030125
20
0.0025981
30
0
11
0.030188
21
0.0024899
31
0
0
LINE
8
CONTOUR
10
0.030125
20
0.0038971
30
0
11
0.030188
21
0.0037889
31
0
0
LINE
8
CONTOUR
10
0.030125
20
0.0060622
30
0
11
0.030188
21
0.0061704
31
0
0
LINE
8
CONTOUR
10
0.030125
20
0.0073612
30
0
11
0.030188
21
0.0074692
31
0
0
LINE
8
CONTOUR
10
0.030187
20
0.00075777
30
0
11
0.030312
21
0.00075777
31
0
0
LINE
8
CONTOUR
10
0.030187
20
0.0092024
30
0
11
0.030312
21
0.0092023
31
0
0
LINE
8
CONTOUR
10
0.030188
20
0.0024899
30
0
11
0.03025
21
0.0023816
31
0
0
LINE
8
CONTOUR
10
0.030188
20
0.0037889
30
0
11
0.03025
21
0.0036806
31
0
0
LINE
8
CONTOUR
10
0.030188
20
0.0061704
30
0
11
0.03025
21
0.0062787
31
0
0
LINE
8
CONTOUR
10
0.030188
20
0.0074692
30
0
11
0.03025
21
0.0075777
31
0
0
LINE
8
CONTOUR
10
0.03025
20
0.0023816
30
0
11
0.030313
21
0.0022733
31
0
0
LINE
8
CONTOUR
10
0.03025
20
0.0036806
30
0
11
0.030313
21
0.0035724
31
0
0
LINE
8
CONTOUR
10
0.03025
20
0.0062787
30
0
11
0.030313
21
0.0063869
31
0
0
LINE
8
CONTOUR
10
0.03025
20
0.0075777
30
0
11
0.030313
21
0.0076859
31
0
0
LINE
8
CONTOUR
10
0.030312
20
0.00075777
30
0
11
0.030437
21
0.00075777
31
0
0
LINE
8
CONTOUR
10
0.030312
20
0.0092023
30
0
11
0.030437
21
0.0092022
31
0
0
LINE
8
CONTOUR
10
0.030313
20
0.0022733
30
0
11
0.030375
21
0.0021651
31
0
0
LINE
8
CONTOUR
10
0.030313
20
0.0035724
30
0
11
0.030375
21
0.0034641
31
0
0
LINE
8
CONTOUR
10
0.030313
20
0.0063869
30
0
11
0.030375
21
0.0064952
31
0
0
LINE
8
CONTOUR
10
0.030313
20
0.0076859
30
0
11
0.030375
21
0.0077942
31
0
0
LINE
8
CONTOUR
10
0.030375
20
0.0021651
30
0
11
0.030438
21
0.0020568
31
0
0
LINE
8
CONTOUR
10
0.030375
20
0.0034641
30
0
11
0.030438
21
0.0033558
31
0
0
LINE
8
CONTOUR
10
0.030375
20
0.0064952
30
0
11
0.030438
21
0.0066034
31
0
0
LINE
8
CONTOUR
10
0.030375
20
0.0077942
30
0
11
0.030438
21
0.0079024
31
0
0
LINE
8
CONTOUR
10
0.030437
20
0.00075777
30
0
11
0.030562
21
0.00075777
31
0
0
LINE
8
CONTOUR
10
0.030437
20
0.0092022
30
0
11
0.030562
21
0.0092018
31
0
0
LINE
8
CONTOUR
10
0.030438
20
0.0020568
30
0
11
0.0305
21
0.0019486
31
0
0
LINE
8
CONTOUR
10
0.030438
20
0.0033558
30
0
11
0.0305
21
0.0032476
31
0
0
LINE
8
CONTOUR
10
0.030438
20
0.0066034
30
0
11
0.0305
21
0.0067117
31
0
0
LINE
8
CONTOUR
10
0.030438
20
0.0079024
30
0
11
0.0305
21
0.0080107
31
0
0
LINE
8
CONTOUR
10
0.0305
20
0.0019486
30
0
11
0.030563
21
0.0018403
31
0
0
LINE
8
CONTOUR
10
0.0305
20
0.0032476
30
0
11
0.030563
21
0.0031393
31
0
0
LINE
8
CONTOUR
10
0.0305
20
0.0067117
30
0
11
0.030563
21
0.00682
31
0
0
LINE
8
CONTOUR
10
0.0305
20
0.0080107
30
0
11
0.030563
21
0.0081188
31
0
0
LINE
8
CONTOUR
10
0.030562
20
0.00075777
30
0
11
0.030688
21
0.00075777
31
0
0
LINE
8
CONTOUR
10
0.030562
20
0.0092018
30
0
11
0.030687
21
0.0092013
31
0
0
LINE
8
CONTOUR
10
0.030563
20
0.0018403
30
0
11
0.030625
21
0.0017321
31
0
0
LINE
8
CONTOUR
10
0.030563
20
0.0031393
30
0
11
0.030625
21
0.0030311
31
0
0
LINE
8
CONTOUR
10
0.030563
20
0.00682
30
0
11
0.030625
21
0.0069282
31
0
0
LINE
8
CONTOUR
10
0.030563
20
0.0081188
30
0
11
0.030625
21
0.0082272
31
0
0
LINE
8
CONTOUR
10
0.030625
20
0.0017321
30
0
11
0.030688
21
0.0016238
31
0
0
LINE
8
CONTOUR
10
0.030625
20
0.0030311
30
0
11
0.030688
21
0.0029228
31
0
0
LINE
8
CONTOUR
10
0.030625
20
0.0069282
30
0
11
0.030688
21
0.0070365
31
0
0
LINE
8
CONTOUR
10
0.030625
20
0.0082272
30
0
11
0.030688
21
0.0083353
31
0
0
LINE
8
CONTOUR
10
0.030687
20
0.0092013
30
0
11
0.030806
21
0.0091985
31
0
0
LINE
8
CONTOUR
10
0.030688
20
0.00075777
30
0
11
0.030812
21
0.00075777
31
0
0
LINE
8
CONTOUR
10
0.030688
20
0.0016238
30
0
11
0.03075
21
0.0015155
31
0
0
LINE
8
CONTOUR
10
0.030688
20
0.0029228
30
0
11
0.03075
21
0.0028146
31
0
0
LINE
8
CONTOUR
10
0.030688
20
0.0070365
30
0
11
0.03075
21
0.0071447
31
0
0
LINE
8
CONTOUR
10
0.030688
20
0.0083353
30
0
11
0.03075
21
0.0084437
31
0
0
LINE
8
CONTOUR
10
0.03075
20
0.0015155
30
0
11
0.030813
21
0.0014073
31
0
0
LINE
8
CONTOUR
10
0.03075
20
0.0028146
30
0
11
0.030812
21
0.0027063
31
0
0
LINE
8
CONTOUR
10
0.03075
20
0.0071447
30
0
11
0.030813
21
0.007253
31
0
0
LINE
8
CONTOUR
10
0.03075
20
0.0084437
30
0
11
0.030813
21
0.008552
31
0
0
LINE
8
CONTOUR
10
0.030806
20
0.0091985
30
0
11
0.030868
21
0.0090894
31
0
0
LINE
8
CONTOUR
10
0.030812
20
0.00075777
30
0
11
0.030875
21
0.00086603
31
0
0
LINE
8
CONTOUR
10
0.030812
20
0.0027063
30
0
11
0.030875
21
0.0025981
31
0
0
LINE
8
CONTOUR
10
0.030813
20
0.0014073
30
0
11
0.030875
21
0.001299
31
0
0
LINE
8
CONTOUR
10
0.030813
20
0.007253
30
0
11
0.030875
21
0.0073612
31
0
0
LINE
8
CONTOUR
10
0.030813
20
0.008552
30
0
11
0.030875
21
0.0086602
31
0
0
LINE
8
CONTOUR
10
0.030868
20
0.0090894
30
0
11
0.03093
21
0.0089809
31
0
0
LINE
8
CONTOUR
10
0.030875
20
0.00086603
30
0
11
0.030938
21
0.00097428
31
0
0
LINE
8
CONTOUR
10
0.030875
20
0.001299
30
0
11
0.030938
21
0.0011908
31
0
0
LINE
8
CONTOUR
10
0.030875
20
0.0025981
30
0
11
0.030937
21
0.0024898
31
0
0
LINE
8
CONTOUR
10
0.030875
20
0.0073612
30
0
11
0.030937
21
0.0074695
31
0
0
LINE
8
CONTOUR
10
0.030875
20
0.0086602
30
0
11
0.030936
21
0.0087679
31
0
0
LINE
8
CONTOUR
10
0.03093
20
0.0089809
30
0
11
0.030994
21
0.0088731
31
0
0
LINE
8
CONTOUR
10
0.030936
20
0.0087679
30
0
11
0.030994
21
0.0088731
31
0
0
LINE
8
CONTOUR
10
0.030937
20
0.0024898
30
0
11
0.031
21
0.0023816
31
0
0
LINE
8
CONTOUR
10
0.030937
20
0.0074695
30
0
11
0.031
21
0.0075777
31
0
0
LINE
8
CONTOUR
10
0.030938
20
0.00097428
30
0
11
0.031
21
0.0010825
31
0
0
LINE
8
CONTOUR
10
0.030938
20
0.0011908
30
0
11
0.031
21
0.0010825
31
0
0
LINE
8
CONTOUR
10
0.031
20
0.0023816
30
0
11
0.031062
21
0.0022733
31
0
0
LINE
8
CONTOUR
10
0.031
20
0.0075777
30
0
11
0.031062
21
0.007686
31
0
0
LINE
8
CONTOUR
10
0.031062
20
0.0022733
30
0
11
0.031125
21
0.0021651
31
0
0
LINE
8
CONTOUR
10
0.031062
20
0.007686
30
0
11
0.031125
21
0.0077942
31
0
0
LINE
8
CONTOUR
10
0.031125
20
0.0021651
30
0
11
0.031187
21
0.0020567
31
0
0
LINE
8
CONTOUR
10
0.031125
20
0.0077942
30
0
11
0.031187
21
0.0079025
31
0
0
LINE
8
CONTOUR
10
0.031187
20
0.0020567
30
0
11
0.03125
21
0.0019486
31
0
0
LINE
8
CONTOUR
10
0.031187
20
0.0079025
30
0
11
0.03125
21
0.0080107
31
0
0
LINE
8
CONTOUR
10
0.03125
20
0.0019486
30
0
11
0.031312
21
0.0018402
31
0
0
LINE
8
CONTOUR
10
0.03125
20
0.0080107
30
0
11
0.031312
21
0.008119
31
0
0
LINE
8
CONTOUR
10
0.031312
20
0.0018402
30
0
11
0.031375
21
0.0017321
31
0
0
LINE
8
CONTOUR
10
0.031312
20
0.008119
30
0
11
0.031375
21
0.0082272
31
0
0
LINE
8
CONTOUR
10
0.031375
20
0.0017321
30
0
11
0.031432
21
0.0016138
31
0
0
LINE
8
CONTOUR
10
0.031375
20
0.0082272
30
0
11
0.031437
21
0.0083354
31
0
0
LINE
8
CONTOUR
10
0.031387
20
0.001299
30
0
11
0.031438
21
0.0014068
31
0
0
LINE
8
CONTOUR
10
0.031387
20
0.001299
30
0
11
0.031444
21
0.0012013
31
0
0
LINE
8
CONTOUR
10
0.031432
20
0.0016138
30
0
11
0.031488
21
0.0015155
31
0
0
LINE
8
CONTOUR
10
0.031437
20
0.0083354
30
0
11
0.0315
21
0.0084437
31
0
0
LINE
8
CONTOUR
10
0.031438
20
0.0014068
30
0
11
0.031488
21
0.0015155
31
0
0
LINE
8
CONTOUR
10
0.031444
20
0.0012013
30
0
11
0.031556
21
0.0012013
31
0
0
LINE
8
CONTOUR
10
0.0315
20
0.0084437
30
0
11
0.031562
21
0.0085518
31
0
0
LINE
8
CONTOUR
10
0.031556
20
0.0012013
30
0
11
0.031687
21
0.0011908
31
0
0
LINE
8
CONTOUR
10
0.031562
20
0.0085518
30
0
11
0.031625
21
0.00866
31
0
0
LINE
8
CONTOUR
10
0.031625
20
0.00866
30
0
11
0.031685
21
0.0087722
31
0
0
LINE
8
CONTOUR
10
0.031685
20
0.0087722
30
0
11
0.031748
21
0.0088739
31
0
0
LINE
8
CONTOUR
10
0.031687
20
0.0011908
30
0
11
0.03175
21
0.0010825
31
0
0
LINE
8
CONTOUR
10
0.031748
20
0.0088739
30
0
11
0.031817
21
0.0089379
31
0
0
LINE
8
CONTOUR
10
0.03175
20
0.0010825
30
0
11
0.031813
21
0.00097428
31
0
0
LINE
8
CONTOUR
10
0.031813
20
0.00097428
30
0
11
0.031937
21
0.00097428
31
0
0
LINE
8
CONTOUR
10
0.031817
20
0.0089379
30
0
11
0.031939
21
0.0089372
31
0
0
LINE
8
CONTOUR
10
0.03188
20
0
30
0
11
0.03194
21
0.00010362
31
0
0
LINE
8
CONTOUR
10
0.031937
20
0.00097428
30
0
11
0.032
21
0.0010825
31
0
0
LINE
8
CONTOUR
10
0.031939
20
0.0089372
30
0
11
0.032004
21
0.0088671
31
0
0
LINE
8
CONTOUR
10
0.03194
20
0.00010362
30
0
11
0.03206
21
0.00010384
31
0
0
LINE
8
CONTOUR
10
0.032
20
0.0010825
30
0
11
0.032063
21
0.0011908
31
0
0
LINE
8
CONTOUR
10
0.032004
20
0.0088671
30
0
11
0.032064
21
0.0087678
31
0
0
LINE
8
CONTOUR
10
0.03206
20
0.00010384
30
0
11
0.032187
21
0.00010847
31
0
0
LINE
8
CONTOUR
10
0.032063
20
0.0011908
30
0
11
0.032187
21
0.0011908
31
0
0
LINE
8
CONTOUR
10
0.032064
20
0.0087678
30
0
11
0.032186
21
0.0087677
31
0
0
LINE
8
CONTOUR
10
0.032125
20
0.01
30
0
11
0.03219
21
0.0099173
31
0
0
LINE
8
CONTOUR
10
0.032186
20
0.0087677
30
0
11
0.032313
21
0.0087586
31
0
0
LINE
8
CONTOUR
10
0.032187
20
0.00010847
30
0
11
0.03225
21
0.00021651
31
0
0
LINE
8
CONTOUR
10
0.032187
20
0.0011908
30
0
11
0.032313
21
0.0011908
31
0
0
LINE
8
CONTOUR
10
0.03219
20
0.0099173
30
0
11
0.032252
21
0.0098091
31
0
0
LINE
8
CONTOUR
10
0.032243
20
0.0096899
30
0
11
0.032252
21
0.0098091
31
0
0
LINE
8
CONTOUR
10
0.032243
20
0.0096899
30
0
11
0.03237
21
0.0096627
31
0
0
LINE
8
CONTOUR
10
0.03225
20
0.00021651
30
0
11
0.032313
21
0.00032476
31
0
0
LINE
8
CONTOUR
10
0.032313
20
0.00032476
30
0
11
0.032438
21
0.00032476
31
0
0
LINE
8
CONTOUR
10
0.032313
20
0.0011908
30
0
11
0.032375
21
0.001299
31
0
0
LINE
8
CONTOUR
10
0.032313
20
0.0087586
30
0
11
0.032438
21
0.0087581
31
0
0
LINE
8
CONTOUR
10
0.03237
20
0.0096627
30
0
11
0.032479
21
0.0096862
31
0
0
LINE
8
CONTOUR
10
0.032375
20
0.001299
30
0
11
0.032438
21
0.0014073
31
0
0
LINE
8
CONTOUR
10
0.032438
20
0.00032476
30
0
11
0.032562
21
0.00032476
31
0
0
LINE
8
CONTOUR
10
0.032438
20
0.0014073
30
0
11
0.032562
21
0.0014073
31
0
0
LINE
8
CONTOUR
10
0.032438
20
0.0087581
30
0
11
0.03256
21
0.0087555
31
0
0
LINE
8
CONTOUR
10
0.032479
20
0.0096862
30
0
11
0.032623
21
0.0096954
31
0
0
LINE
8
CONTOUR
10
0.03256
20
0.0087555
30
0
11
0.032621
21
0.0086567
31
0
0
LINE
8
CONTOUR
10
0.032562
20
0.00032476
30
0
11
0.032625
21
0.00043301
31
0
0
LINE
8
CONTOUR
10
0.032562
20
0.0014073
30
0
11
0.032688
21
0.0014073
31
0
0
LINE
8
CONTOUR
10
0.032621
20
0.0086567
30
0
11
0.032684
21
0.0085483
31
0
0
LINE
8
CONTOUR
10
0.032623
20
0.0096954
30
0
11
0.032725
21
0.0096062
31
0
0
LINE
8
CONTOUR
10
0.032625
20
0.00043301
30
0
11
0.032688
21
0.00054127
31
0
0
LINE
8
CONTOUR
10
0.032684
20
0.0085483
30
0
11
0.032809
21
0.0085479
31
0
0
LINE
8
CONTOUR
10
0.032688
20
0.00054127
30
0
11
0.032813
21
0.00054127
31
0
0
LINE
8
CONTOUR
10
0.032688
20
0.0014073
30
0
11
0.03275
21
0.0015155
31
0
0
LINE
8
CONTOUR
10
0.032725
20
0.0096062
30
0
11
0.032803
21
0.0095103
31
0
0
LINE
8
CONTOUR
10
0.03275
20
0.0015155
30
0
11
0.032813
21
0.0016238
31
0
0
LINE
8
CONTOUR
10
0.032803
20
0.0095103
30
0
11
0.032865
21
0.0094015
31
0
0
LINE
8
CONTOUR
10
0.032809
20
0.0085479
30
0
11
0.032936
21
0.0085446
31
0
0
LINE
8
CONTOUR
10
0.032813
20
0.00054127
30
0
11
0.032937
21
0.00054127
31
0
0
LINE
8
CONTOUR
10
0.032813
20
0.0016238
30
0
11
0.032937
21
0.0016238
31
0
0
LINE
8
CONTOUR
10
0.032865
20
0.0094015
30
0
11
0.032931
21
0.0093049
31
0
0
LINE
8
CONTOUR
10
0.032931
20
0.0093049
30
0
11
0.033053
21
0.0093079
31
0
0
LINE
8
CONTOUR
10
0.032936
20
0.0085446
30
0
11
0.033
21
0.008442
31
0
0
LINE
8
CONTOUR
10
0.032937
20
0.00054127
30
0
11
0.033
21
0.00064952
31
0
0
LINE
8
CONTOUR
10
0.032937
20
0.0016238
30
0
11
0.033063
21
0.0016238
31
0
0
LINE
8
CONTOUR
10
0.033
20
0.00064952
30
0
11
0.033063
21
0.00075777
31
0
0
LINE
8
CONTOUR
10
0.033
20
0.008442
30
0
11
0.033063
21
0.0083346
31
0
0
LINE
8
CONTOUR
10
0.033053
20
0.0093079
30
0
11
0.033178
21
0.0093142
31
0
0
LINE
8
CONTOUR
10
0.033063
20
0.00075777
30
0
11
0.033188
21
0.00075777
31
0
0
LINE
8
CONTOUR
10
0.033063
20
0.0016238
30
0
11
0.033125
21
0.0017321
31
0
0
LINE
8
CONTOUR
10
0.033063
20
0.0083346
30
0
11
0.033188
21
0.0083347
31
0
0
LINE
8
CONTOUR
10
0.033125
20
0.0017321
30
0
11
0.033188
21
0.0018403
31
0
0
LINE
8
CONTOUR
10
0.033178
20
0.0093142
30
0
11
0.033243
21
0.0092189
31
0
0
LINE
8
CONTOUR
10
0.033188
20
0.00075777
30
0
11
0.033312
21
0.00075777
31
0
0
LINE
8
CONTOUR
10
0.033188
20
0.0018403
30
0
11
0.033312
21
0.0018403
31
0
0
LINE
8
CONTOUR
10
0.033188
20
0.0083347
30
0
11
0.033313
21
0.0083353
31
0
0
LINE
8
CONTOUR
10
0.033243
20
0.0092189
30
0
11
0.033308
21
0.0091293
31
0
0
LINE
8
CONTOUR
10
0.033308
20
0.0091293
30
0
11
0.033431
21
0.009134
31
0
0
LINE
8
CONTOUR
10
0.033312
20
0.00075777
30
0
11
0.033375
21
0.00086603
31
0
0
LINE
8
CONTOUR
10
0.033312
20
0.0018403
30
0
11
0.033438
21
0.0018403
31
0
0
LINE
8
CONTOUR
10
0.033313
20
0.0083353
30
0
11
0.033375
21
0.0082271
31
0
0
LINE
8
CONTOUR
10
0.033375
20
0.00086603
30
0
11
0.033437
21
0.00097428
31
0
0
LINE
8
CONTOUR
10
0.033375
20
0.0082271
30
0
11
0.033438
21
0.008119
31
0
0
LINE
8
CONTOUR
10
0.033431
20
0.009134
30
0
11
0.03356
21
0.009137
31
0
0
LINE
8
CONTOUR
10
0.033437
20
0.00097428
30
0
11
0.033562
21
0.00097428
31
0
0
LINE
8
CONTOUR
10
0.033438
20
0.0018403
30
0
11
0.0335
21
0.0019486
31
0
0
LINE
8
CONTOUR
10
0.033438
20
0.008119
30
0
11
0.033562
21
0.008119
31
0
0
LINE
8
CONTOUR
10
0.0335
20
0.0019486
30
0
11
0.033563
21
0.0020568
31
0
0
LINE
8
CONTOUR
10
0.03356
20
0.009137
30
0
11
0.033624
21
0.0090469
31
0
0
LINE
8
CONTOUR
10
0.033562
20
0.00097428
30
0
11
0.033687
21
0.00097428
31
0
0
LINE
8
CONTOUR
10
0.033562
20
0.008119
30
0
11
0.033687
21
0.008119
31
0
0
LINE
8
CONTOUR
10
0.033563
20
0.0020568
30
0
11
0.033687
21
0.0020568
31
0
0
LINE
8
CONTOUR
10
0.033624
20
0.0090469
30
0
11
0.03369
21
0.0089562
31
0
0
LINE
8
CONTOUR
10
0.033687
20
0.00097428
30
0
11
0.03375
21
0.0010825
31
0
0
LINE
8
CONTOUR
10
0.033687
20
0.0020568
30
0
11
0.033813
21
0.0020568
31
0
0
LINE
8
CONTOUR
10
0.033687
20
0.008119
30
0
11
0.03375
21
0.0080107
31
0
0
LINE
8
CONTOUR
10
0.03369
20
0.0089562
30
0
11
0.033815
21
0.0089616
31
0
0
LINE
8
CONTOUR
10
0.03375
20
0.0010825
30
0
11
0.033813
21
0.0011908
31
0
0
LINE
8
CONTOUR
10
0.03375
20
0.0080107
30
0
11
0.033812
21
0.0079025
31
0
0
LINE
8
CONTOUR
10
0.033812
20
0.0079025
30
0
11
0.033937
21
0.0079025
31
0
0
LINE
8
CONTOUR
10
0.033813
20
0.0011908
30
0
11
0.033937
21
0.0011908
31
0
0
LINE
8
CONTOUR
10
0.033813
20
0.0020568
30
0
11
0.033875
21
0.0021651
31
0
0
LINE
8
CONTOUR
10
0.033815
20
0.0089616
30
0
11
0.03394
21
0.0089652
31
0
0
LINE
8
CONTOUR
10
0.033875
20
0.0021651
30
0
11
0.033938
21
0.0022733
31
0
0
LINE
8
CONTOUR
10
0.033937
20
0.0011908
30
0
11
0.034063
21
0.0011908
31
0
0
LINE
8
CONTOUR
10
0.033937
20
0.0079025
30
0
11
0.034062
21
0.0079025
31
0
0
LINE
8
CONTOUR
10
0.033938
20
0.0022733
30
0
11
0.034062
21
0.0022733
31
0
0
LINE
8
CONTOUR
10
0.03394
20
0.0089652
30
0
11
0.034003
21
0.0088678
31
0
0
LINE
8
CONTOUR
10
0.034003
20
0.0088678
30
0
11
0.034064
21
0.0087631
31
0
0
LINE
8
CONTOUR
10
0.034062
20
0.0022733
30
0
11
0.034188
21
0.0022733
31
0
0
LINE
8
CONTOUR
10
0.034062
20
0.0079025
30
0
11
0.034125
21
0.0077942
31
0
0
LINE
8
CONTOUR
10
0.034063
20
0.0011908
30
0
11
0.034125
21
0.001299
31
0
0
LINE
8
CONTOUR
10
0.034064
20
0.0087631
30
0
11
0.034189
21
0.0087631
31
0
0
LINE
8
CONTOUR
10
0.034125
20
0.001299
30
0
11
0.034188
21
0.0014073
31
0
0
LINE
8
CONTOUR
10
0.034125
20
0.0077942
30
0
11
0.034188
21
0.007686
31
0
0
LINE
8
CONTOUR
10
0.034188
20
0.0014073
30
0
11
0.034312
21
0.0014073
31
0
0
LINE
8
CONTOUR
10
0.034188
20
0.0022733
30
0
11
0.034313
21
0.0022735
31
0
0
LINE
8
CONTOUR
10
0.034188
20
0.007686
30
0
11
0.034313
21
0.007686
31
0
0
LINE
8
CONTOUR
10
0.034189
20
0.0087631
30
0
11
0.034313
21
0.0087648
31
0
0
LINE
8
CONTOUR
10
0.034312
20
0.0014073
30
0
11
0.034438
21
0.0014073
31
0
0
LINE
8
CONTOUR
10
0.034313
20
0.0022735
30
0
11
0.034437
21
0.0022735
31
0
0
LINE
8
CONTOUR
10
0.034313
20
0.007686
30
0
11
0.034438
21
0.007686
31
0
0
LINE
8
CONTOUR
10
0.034313
20
0.0087648
30
0
11
0.034374
21
0.0086596
31
0
0
LINE
8
CONTOUR
10
0.034374
20
0.0086596
30
0
11
0.034437
21
0.0085514
31
0
0
LINE
8
CONTOUR
10
0.034437
20
0.0022735
30
0
11
0.0345
21
0.0023816
31
0
0
LINE
8
CONTOUR
10
0.034437
20
0.0085514
30
0
11
0.034562
21
0.0085514
31
0
0
LINE
8
CONTOUR
10
0.034438
20
0.0014073
30
0
11
0.0345
21
0.0015155
31
0
0
LINE
8
CONTOUR
10
0.034438
20
0.007686
30
0
11
0.0345
21
0.0075777
31
0
0
LINE
8
CONTOUR
10
0.0345
20
0.0015155
30
0
11
0.034563
21
0.0016238
31
0
0
LINE
8
CONTOUR
10
0.0345
20
0.0023816
30
0
11
0.034563
21
0.0024898
31
0
0
LINE
8
CONTOUR
10
0.0345
20
0.0075777
30
0
11
0.034563
21
0.0074695
31
0
0
LINE
8
CONTOUR
10
0.034562
20
0.0085514
30
0
11
0.034688
21
0.0085509
31
0
0
LINE
8
CONTOUR
10
0.034563
20
0.0016238
30
0
11
0.034687
21
0.0016238
31
0
0
LINE
8
CONTOUR
10
0.034563
20
0.0024898
30
0
11
0.034688
21
0.0024898
31
0
0
LINE
8
CONTOUR
10
0.034563
20
0.0074695
30
0
11
0.034688
21
0.0074695
31
0
0
LINE
8
CONTOUR
10
0.034687
20
0.0016238
30
0
11
0.034813
21
0.0016238
31
0
0
LINE
8
CONTOUR
10
0.034688
20
0.0024898
30
0
11
0.034812
21
0.0024898
31
0
0
LINE
8
CONTOUR
10
0.034688
20
0.0074695
30
0
11
0.034813
21
0.0074695
31
0
0
LINE
8
CONTOUR
10
0.034688
20
0.0085509
30
0
11
0.03475
21
0.0084436
31
0
0
LINE
8
CONTOUR
10
0.03475
20
0.0084436
30
0
11
0.034813
21
0.0083354
31
0
0
LINE
8
CONTOUR
10
0.034812
20
0.0024898
30
0
11
0.034875
21
0.0025981
31
0
0
LINE
8
CONTOUR
10
0.034813
20
0.0016238
30
0
11
0.034875
21
0.0017321
31
0
0
LINE
8
CONTOUR
10
0.034813
20
0.0074695
30
0
11
0.034875
21
0.0073612
31
0
0
LINE
8
CONTOUR
10
0.034813
20
0.0083354
30
0
11
0.034938
21
0.0083354
31
0
0
LINE
8
CONTOUR
10
0.034875
20
0.0017321
30
0
11
0.034938
21
0.0018403
31
0
0
LINE
8
CONTOUR
10
0.034875
20
0.0025981
30
0
11
0.034938
21
0.0027063
31
0
0
LINE
8
CONTOUR
10
0.034875
20
0.0073612
30
0
11
0.034938
21
0.007253
31
0
0
LINE
8
CONTOUR
10
0.034938
20
0.0018403
30
0
11
0.035062
21
0.0018403
31
0
0
LINE
8
CONTOUR
10
0.034938
20
0.0027063
30
0
11
0.035063
21
0.0027063
31
0
0
LINE
8
CONTOUR
10
0.034938
20
0.007253
30
0
11
0.035062
21
0.007253
31
0
0
LINE
8
CONTOUR
10
0.034938
20
0.0083354
30
0
11
0.035063
21
0.0083355
31
0
0
LINE
8
CONTOUR
10
0.035062
20
0.0018403
30
0
11
0.035188
21
0.0018403
31
0
0
LINE
8
CONTOUR
10
0.035062
20
0.007253
30
0
11
0.035188
21
0.007253
31
0
0
LINE
8
CONTOUR
10
0.035063
20
0.0027063
30
0
11
0.035187
21
0.0027063
31
0
0
LINE
8
CONTOUR
10
0.035063
20
0.0083355
30
0
11
0.035125
21
0.0082272
31
0
0
LINE
8
CONTOUR
10
0.035125
20
0.0082272
30
0
11
0.035188
21
0.008119
31
0
0
LINE
8
CONTOUR
10
0.035187
20
0.0027063
30
0
11
0.03525
21
0.0028146
31
0
0
LINE
8
CONTOUR
10
0.035188
20
0.0018403
30
0
11
0.03525
21
0.0019486
31
0
0
LINE
8
CONTOUR
10
0.035188
20
0.007253
30
0
11
0.03525
21
0.0071447
31
0
0
LINE
8
CONTOUR
10
0.035188
20
0.008119
30
0
11
0.035313
21
0.008119
31
0
0
LINE
8
CONTOUR
10
0.03525
20
0.0019486
30
0
11
0.035313
21
0.0020568
31
0
0
LINE
8
CONTOUR
10
0.03525
20
0.0028146
30
0
11
0.035313
21
0.0029228
31
0
0
LINE
8
CONTOUR
10
0.03525
20
0.0071447
30
0
11
0.035313
21
0.0070365
31
0
0
LINE
8
CONTOUR
10
0.035313
20
0.0020568
30
0
11
0.035437
21
0.0020568
31
0
0
LINE
8
CONTOUR
10
0.035313
20
0.0029228
30
0
11
0.035438
21
0.0029228
31
0
0
LINE
8
CONTOUR
10
0.035313
20
0.0070365
30
0
11
0.035438
21
0.0070365
31
0
0
LINE
8
CONTOUR
10
0.035313
20
0.008119
30
0
11
0.035437
21
0.008119
31
0
0
LINE
8
CONTOUR
10
0.035437
20
0.0020568
30
0
11
0.035563
21
0.0020568
31
0
0
LINE
8
CONTOUR
10
0.035437
20
0.008119
30
0
11
0.0355
21
0.0080107
31
0
0
LINE
8
CONTOUR
10
0.035438
20
0.0029228
30
0
11
0.035562
21
0.0029228
31
0
0
LINE
8
CONTOUR
10
0.035438
20
0.0070365
30
0
11
0.035563
21
0.0070365
31
0
0
LINE
8
CONTOUR
10
0.0355
20
0.0080107
30
0
11
0.035563
21
0.0079025
31
0
0
LINE
8
CONTOUR
10
0.035562
20
0.0029228
30
0
11
0.035625
21
0.0030311
31
0
0
LINE
8
CONTOUR
10
0.035563
20
0.0020568
30
0
11
0.035625
21
0.0021651
31
0
0
LINE
8
CONTOUR
10
0.035563
20
0.0070365
30
0
11
0.035625
21
0.0069282
31
0
0
LINE
8
CONTOUR
10
0.035563
20
0.0079025
30
0
11
0.035688
21
0.0079025
31
0
0
LINE
8
CONTOUR
10
0.035625
20
0.0021651
30
0
11
0.035688
21
0.0022733
31
0
0
LINE
8
CONTOUR
10
0.035625
20
0.0030311
30
0
11
0.035688
21
0.0031393
31
0
0
LINE
8
CONTOUR
10
0.035625
20
0.0069282
30
0
11
0.035688
21
0.00682
31
0
0
LINE
8
CONTOUR
10
0.035688
20
0.0022733
30
0
11
0.035812
21
0.0022733
31
0
0
LINE
8
CONTOUR
10
0.035688
20
0.0031393
30
0
11
0.035813
21
0.0031393
31
0
0
LINE
8
CONTOUR
10
0.035688
20
0.00682
30
0
11
0.035813
21
0.00682
31
0
0
LINE
8
CONTOUR
10
0.035688
20
0.0079025
30
0
11
0.035812
21
0.0079025
31
0
0
LINE
8
CONTOUR
10
0.035812
20
0.0022733
30
0
11
0.035938
21
0.0022733
31
0
0
LINE
8
CONTOUR
10
0.035812
20
0.0079025
30
0
11
0.035875
21
0.0077942
31
0
0
LINE
8
CONTOUR
10
0.035813
20
0.0031393
30
0
11
0.035937
21
0.0031393
31
0
0
LINE
8
CONTOUR
10
0.035813
20
0.00682
30
0
11
0.035938
21
0.00682
31
0
0
LINE
8
CONTOUR
10
0.035875
20
0.0077942
30
0
11
0.035938
21
0.007686
31
0
0
LINE
8
CONTOUR
10
0.035937
20
0.0031393
30
0
11
0.036
21
0.0032476
31
0
0
LINE
8
CONTOUR
10
0.035938
20
0.0022733
30
0
11
0.036063
21
0.0022733
31
0
0
LINE
8
CONTOUR
10
0.035938
20
0.00682
30
0
11
0.036
21
0.0067117
31
0
0
LINE
8
CONTOUR
10
0.035938
20
0.007686
30
0
11
0.036063
21
0.007686
31
0
0
LINE
8
CONTOUR
10
0.036
20
0.0032476
30
0
11
0.036063
21
0.0033558
31
0
0
LINE
8
CONTOUR
10
0.036
20
0.0067117
30
0
11
0.036063
21
0.0066034
31
0
0
LINE
8
CONTOUR
10
0.036063
20
0.0022733
30
0
11
0.036187
21
0.0022733
31
0
0
LINE
8
CONTOUR
10
0.036063
20
0.0033558
30
0
11
0.036188
21
0.0033558
31
0
0
LINE
8
CONTOUR
10
0.036063
20
0.0066034
30
0
11
0.036187
21
0.0066034
31
0
0
LINE
8
CONTOUR
10
0.036063
20
0.007686
30
0
11
0.036188
21
0.007686
31
0
0
LINE
8
CONTOUR
10
0.036187
20
0.0022733
30
0
11
0.03625
21
0.0023816
31
0
0
LINE
8
CONTOUR
10
0.036187
20
0.0066034
30
0
11
0.036313
21
0.0066034
31
0
0
LINE
8
CONTOUR
10
0.036188
20
0.0033558
30
0
11
0.036312
21
0.0033558
31
0
0
LINE
8
CONTOUR
10
0.036188
20
0.007686
30
0
11
0.03625
21
0.0075777
31
0
0
LINE
8
CONTOUR
10
0.03625
20
0.0023816
30
0
11
0.036313
21
0.0024898
31
0
0
LINE
8
CONTOUR
10
0.03625
20
0.0075777
30
0
11
0.036313
21
0.0074695
31
0
0
LINE
8
CONTOUR
10
0.036312
20
0.0033558
30
0
11
0.036375
21
0.0034641
31
0
0
LINE
8
CONTOUR
10
0.036313
20
0.0024898
30
0
11
0.036438
21
0.0024898
31
0
0
LINE
8
CONTOUR
10
0.036313
20
0.0066034
30
0
11
0.036375
21
0.0064952
31
0
0
LINE
8
CONTOUR
10
0.036313
20
0.0074695
30
0
11
0.036438
21
0.0074695
31
0
0
LINE
8
CONTOUR
10
0.036375
20
0.0034641
30
0
11
0.036438
21
0.0035724
31
0
0
LINE
8
CONTOUR
10
0.036375
20
0.0064952
30
0
11
0.036438
21
0.0063869
31
0
0
LINE
8
CONTOUR
10
0.036438
20
0.0024898
30
0
11
0.036562
21
0.0024898
31
0
0
LINE
8
CONTOUR
10
0.036438
20
0.0035724
30
0
11
0.036563
21
0.0035724
31
0
0
LINE
8
CONTOUR
10
0.036438
20
0.0063869
30
0
11
0.036562
21
0.0063869
31
0
0
LINE
8
CONTOUR
10
0.036438
20
0.0074695
30
0
11
0.036563
21
0.0074695
31
0
0
LINE
8
CONTOUR
10
0.036562
20
0.0024898
30
0
11
0.036625
21
0.0025981
31
0
0
LINE
8
CONTOUR
10
0.036562
20
0.0063869
30
0
11
0.036688
21
0.0063869
31
0
0
LINE
8
CONTOUR
10
0.036563
20
0.0035724
30
0
11
0.036688
21
0.0035724
31
0
0
LINE
8
CONTOUR
10
0.036563
20
0.0074695
30
0
11
0.036625
21
0.0073612
31
0
0
LINE
8
CONTOUR
10
0.036625
20
0.0025981
30
0
11
0.036688
21
0.0027063
31
0
0
LINE
8
CONTOUR
10
0.036625
20
0.0073612
30
0
11
0.036688
21
0.007253
31
0
0
LINE
8
CONTOUR
10
0.036688
20
0.0027063
30
0
11
0.036813
21
0.0027063
31
0
0
LINE
8
CONTOUR
10
0.036688
20
0.0035724
30
0
11
0.03675
21
0.0036806
31
0
0
LINE
8
CONTOUR
10
0.036688
20
0.0063869
30
0
11
0.03675
21
0.0062787
31
0
0
LINE
8
CONTOUR
10
0.036688
20
0.007253
30
0
11
0.036813
21
0.007253
31
0
0
LINE
8
CONTOUR
10
0.03675
20
0.0036806
30
0
11
0.036813
21
0.0037889
31
0
0
LINE
8
CONTOUR
10
0.03675
20
0.0062787
30
0
11
0.036813
21
0.0061704
31
0
0
LINE
8
CONTOUR
10
0.036813
20
0.0027063
30
0
11
0.036937
21
0.0027063
31
0
0
LINE
8
CONTOUR
10
0.036813
20
0.0037889
30
0
11
0.036937
21
0.0037889
31
0
0
LINE
8
CONTOUR
10
0.036813
20
0.0061704
30
0
11
0.036937
21
0.0061704
31
0
0
LINE
8
CONTOUR
10
0.036813
20
0.007253
30
0
11
0.036938
21
0.007253
31
0
0
LINE
8
CONTOUR
10
0.036937
20
0.0027063
30
0
11
0.037
21
0.0028146
31
0
0
LINE
8
CONTOUR
10
0.036937
20
0.0037889
30
0
11
0.037063
21
0.0037889
31
0
0
LINE
8
CONTOUR
10
0.036937
20
0.0061704
30
0
11
0.037063
21
0.0061704
31
0
0
LINE
8
CONTOUR
10
0.036938
20
0.007253
30
0
11
0.037
21
0.0071447
31
0
0
LINE
8
CONTOUR
10
0.037
20
0.0028146
30
0
11
0.037063
21
0.0029228
31
0
0
LINE
8
CONTOUR
10
0.037
20
0.0071447
30
0
11
0.037063
21
0.0070365
31
0
0
LINE
8
CONTOUR
10
0.037063
20
0.0029228
30
0
11
0.037188
21
0.0029228
31
0
0
LINE
8
CONTOUR
10
0.037063
20
0.0037889
30
0
11
0.037125
21
0.0038971
31
0
0
LINE
8
CONTOUR
10
0.037063
20
0.0061704
30
0
11
0.037125
21
0.0060622
31
0
0
LINE
8
CONTOUR
10
0.037063
20
0.0070365
30
0
11
0.037188
21
0.0070365
31
0
0
LINE
8
CONTOUR
10
0.037125
20
0.0038971
30
0
11
0.037188
21
0.0040054
31
0
0
LINE
8
CONTOUR
10
0.037125
20
0.0060622
30
0
11
0.037188
21
0.0059539
31
0
0
LINE
8
CONTOUR
10
0.037188
20
0.0029228
30
0
11
0.037312
21
0.0029228
31
0
0
LINE
8
CONTOUR
10
0.037188
20
0.0040054
30
0
11
0.037312
21
0.0040054
31
0
0
LINE
8
CONTOUR
10
0.037188
20
0.0059539
30
0
11
0.037312
21
0.0059539
31
0
0
LINE
8
CONTOUR
10
0.037188
20
0.0070365
30
0
11
0.037313
21
0.0070365
31
0
0
LINE
8
CONTOUR
10
0.037312
20
0.0029228
30
0
11
0.037375
21
0.0030311
31
0
0
LINE
8
CONTOUR
10
0.037312
20
0.0040054
30
0
11
0.037438
21
0.0040054
31
0
0
LINE
8
CONTOUR
10
0.037312
20
0.0059539
30
0
11
0.037438
21
0.0059539
31
0
0
LINE
8
CONTOUR
10
0.037313
20
0.0070365
30
0
11
0.037375
21
0.0069282
31
0
0
LINE
8
CONTOUR
10
0.037375
20
0.0030311
30
0
11
0.037438
21
0.0031393
31
0
0
LINE
8
CONTOUR
10
0.037375
20
0.0069282
30
0
11
0.037438
21
0.00682
31
0
0
LINE
8
CONTOUR
10
0.037438
20
0.0031393
30
0
11
0.037563
21
0.0031393
31
0
0
LINE
8
CONTOUR
10
0.037438
20
0.0040054
30
0
11
0.0375
21
0.0041136
31
0
0
LINE
8
CONTOUR
10
0.037438
20
0.0059539
30
0
11
0.0375
21
0.0058457
31
0
0
LINE
8
CONTOUR
10
0.037438
20
0.00682
30
0
11
0.037563
21
0.00682
31
0
0
LINE
8
CONTOUR
10
0.0375
20
0.0041136
30
0
11
0.037563
21
0.0042219
31
0
0
LINE
8
CONTOUR
10
0.0375
20
0.0058457
30
0
11
0.037563
21
0.0057374
31
0
0
LINE
8
CONTOUR
10
0.037563
20
0.0031393
30
0
11
0.037687
21
0.0031393
31
0
0
LINE
8
CONTOUR
10
0.037563
20
0.0042219
30
0
11
0.037687
21
0.0042219
31
0
0
LINE
8
CONTOUR
10
0.037563
20
0.0057374
30
0
11
0.037687
21
0.0057374
31
0
0
LINE
8
CONTOUR
10
0.037563
20
0.00682
30
0
11
0.037688
21
0.00682
31
0
0
LINE
8
CONTOUR
10
0.037687
20
0.0031393
30
0
11
0.03775
21
0.0032476
31
0
0
LINE
8
CONTOUR
10
0.037687
20
0.0042219
30
0
11
0.037813
21
0.0042219
31
0
0
LINE
8
CONTOUR
10
0.037687
20
0.0057374
30
0
11
0.037813
21
0.0057374
31
0
0
LINE
8
CONTOUR
10
0.037688
20
0.00682
30
0
11
0.03775
21
0.0067117
31
0
0
LINE
8
CONTOUR
10
0.03775
20
0.0032476
30
0
11
0.037813
21
0.0033558
31
0
0
LINE
8
CONTOUR
10
0.03775
20
0.0067117
30
0
11
0.037813
21
0.0066034
31
0
0
LINE
8
CONTOUR
10
0.037813
20
0.0033558
30
0
11
0.037938
21
0.0033558
31
0
0
LINE
8
CONTOUR
10
0.037813
20
0.0042219
30
0
11
0.037875
21
0.0043301
31
0
0
LINE
8
CONTOUR
10
0.037813
20
0.0057374
30
0
11
0.037875
21
0.0056292
31
0
0
LINE
8
CONTOUR
10
0.037813
20
0.0066034
30
0
11
0.037937
21
0.0066034
31
0
0
LINE
8
CONTOUR
10
0.037875
20
0.0043301
30
0
11
0.037938
21
0.0044384
31
0
0
LINE
8
CONTOUR
10
0.037875
20
0.0056292
30
0
11
0.037938
21
0.0055209
31
0
0
LINE
8
CONTOUR
10
0.037937
20
0.0066034
30
0
11
0.038062
21
0.0066034
31
0
0
LINE
8
CONTOUR
10
0.037938
20
0.0033558
30
0
11
0.038062
21
0.0033558
31
0
0
LINE
8
CONTOUR
10
0.037938
20
0.0044384
30
0
11
0.038062
21
0.0044384
31
0
0
LINE
8
CONTOUR
10
0.037938
20
0.0055209
30
0
11
0.038062
21
0.0055209
31
0
0
LINE
8
CONTOUR
10
0.038062
20
0.0033558
30
0
11
0.038125
21
0.0034641
31
0
0
LINE
8
CONTOUR
10
0.038062
20
0.0044384
30
0
11
0.038188
21
0.0044384
31
0
0
LINE
8
CONTOUR
10
0.038062
20
0.0055209
30
0
11
0.038188
21
0.0055209
31
0
0
LINE
8
CONTOUR
10
0.038062
20
0.0066034
30
0
11
0.038125
21
0.0064952
31
0
0
LINE
8
CONTOUR
10
0.038125
20
0.0034641
30
0
11
0.038188
21
0.0035724
31
0
0
LINE
8
CONTOUR
10
0.038125
20
0.0064952
30
0
11
0.038188
21
0.0063869
31
0
0
LINE
8
CONTOUR
10
0.038188
20
0.0035724
30
0
11
0.038313
21
0.0035724
31
0
0
LINE
8
CONTOUR
10
0.038188
20
0.0044384
30
0
11
0.03825
21
0.0045466
31
0
0
LINE
8
CONTOUR
10
0.038188
20
0.0055209
30
0
11
0.03825
21
0.0054127
31
0
0
LINE
8
CONTOUR
10
0.038188
20
0.0063869
30
0
11
0.038312
21
0.0063869
31
0
0
LINE
8
CONTOUR
10
0.03825
20
0.0045466
30
0
11
0.038313
21
0.0046549
31
0
0
LINE
8
CONTOUR
10
0.03825
20
0.0054127
30
0
11
0.038312
21
0.0053044
31
0
0
LINE
8
CONTOUR
10
0.038312
20
0.0053044
30
0
11
0.038437
21
0.0053044
31
0
0
LINE
8
CONTOUR
10
0.038312
20
0.0063869
30
0
11
0.038437
21
0.0063869
31
0
0
LINE
8
CONTOUR
10
0.038313
20
0.0035724
30
0
11
0.038437
21
0.0035724
31
0
0
LINE
8
CONTOUR
10
0.038313
20
0.0046549
30
0
11
0.038437
21
0.0046549
31
0
0
LINE
8
CONTOUR
10
0.038437
20
0.0035724
30
0
11
0.0385
21
0.0036806
31
0
0
LINE
8
CONTOUR
10
0.038437
20
0.0046549
30
0
11
0.038563
21
0.0046549
31
0
0
LINE
8
CONTOUR
10
0.038437
20
0.0053044
30
0
11
0.038562
21
0.0053044
31
0
0
LINE
8
CONTOUR
10
0.038437
20
0.0063869
30
0
11
0.0385
21
0.0062787
31
0
0
LINE
8
CONTOUR
10
0.0385
20
0.0036806
30
0
11
0.038563
21
0.0037889
31
0
0
LINE
8
CONTOUR
10
0.0385
20
0.0062787
30
0
11
0.038562
21
0.0061704
31
0
0
LINE
8
CONTOUR
10
0.038562
20
0.0053044
30
0
11
0.038625
21
0.0051962
31
0
0
LINE
8
CONTOUR
10
0.038562
20
0.0061704
30
0
11
0.038687
21
0.0061704
31
0
0
LINE
8
CONTOUR
10
0.038563
20
0.0037889
30
0
11
0.038688
21
0.0037889
31
0
0
LINE
8
CONTOUR
10
0.038563
20
0.0046549
30
0
11
0.038625
21
0.0047631
31
0
0
LINE
8
CONTOUR
10
0.038625
20
0.0047631
30
0
11
0.038687
21
0.0048714
31
0
0
LINE
8
CONTOUR
10
0.038625
20
0.0051962
30
0
11
0.038687
21
0.0050879
31
0
0
LINE
8
CONTOUR
10
0.038687
20
0.0048714
30
0
11
0.03875
21
0.0049796
31
0
0
LINE
8
CONTOUR
10
0.038687
20
0.0050879
30
0
11
0.03875
21
0.0049796
31
0
0
LINE
8
CONTOUR
10
0.038687
20
0.0061704
30
0
11
0.038812
21
0.0061703
31
0
0
LINE
8
CONTOUR
10
0.038688
20
0.0037889
30
0
11
0.038813
21
0.0037889
31
0
0
LINE
8
CONTOUR
10
0.038812
20
0.0061703
30
0
11
0.038937
21
0.0061702
31
0
0
LINE
8
CONTOUR
10
0.038813
20
0.0037889
30
0
11
0.038875
21
0.0038971
31
0
0
LINE
8
CONTOUR
10
0.038875
20
0.0038971
30
0
11
0.038938
21
0.0040054
31
0
0
LINE
8
CONTOUR
10
0.038937
20
0.0061702
30
0
11
0.039061
21
0.0061697
31
0
0
LINE
8
CONTOUR
10
0.038938
20
0.0040054
30
0
11
0.039062
21
0.0040054
31
0
0
LINE
8
CONTOUR
10
0.039061
20
0.0061697
30
0
11
0.039123
21
0.0060613
31
0
0
LINE
8
CONTOUR
10
0.039062
20
0.0040054
30
0
11
0.039188
21
0.0040054
31
0
0
LINE
8
CONTOUR
10
0.039123
20
0.0060613
30
0
11
0.039186
21
0.005953
31
0
0
LINE
8
CONTOUR
10
0.039186
20
0.005953
30
0
11
0.039311
21
0.005953
31
0
0
LINE
8
CONTOUR
10
0.039188
20
0.0040054
30
0
11
0.039246
21
0.0041111
31
0
0
LINE
8
CONTOUR
10
0.039246
20
0.0041111
30
0
11
0.039308
21
0.0042194
31
0
0
LINE
8
CONTOUR
10
0.039308
20
0.0042194
30
0
11
0.039418
21
0.0042084
31
0
0
LINE
8
CONTOUR
10
0.039311
20
0.005953
30
0
11
0.039435
21
0.0059584
31
0
0
LINE
8
CONTOUR
10
0.039418
20
0.0042084
30
0
11
0.039525
21
0.004198
31
0
0
LINE
8
CONTOUR
10
0.039435
20
0.0059584
30
0
11
0.039497
21
0.005852
31
0
0
LINE
8
CONTOUR
10
0.039497
20
0.005852
30
0
11
0.039556
21
0.005747
31
0
0
LINE
8
CONTOUR
10
0.039525
20
0.004198
30
0
11
0.039562
21
0.0042867
31
0
0
LINE
8
CONTOUR
10
0.039556
20
0.005747
30
0
11
0.039685
21
0.0057439
31
0
0
LINE
8
CONTOUR
10
0.039562
20
0.0042867
30
0
11
0.03963
21
0.0043724
31
0
0
LINE
8
CONTOUR
10
0.03963
20
0.0043724
30
0
11
0.03973
21
0.004324
31
0
0
LINE
8
CONTOUR
10
0.039685
20
0.0057439
30
0
11
0.039789
21
0.0057496
31
0
0
LINE
8
CONTOUR
10
0.03973
20
0.004324
30
0
11
0.039803
21
0.0042613
31
0
0
LINE
8
CONTOUR
10
0.039789
20
0.0057496
30
0
11
0.039875
21
0.0056896
31
0
0
LINE
8
CONTOUR
10
0.039803
20
0.0042613
30
0
11
0.039903
21
0.0043165
31
0
0
LINE
8
CONTOUR
10
0.039875
20
0.0056896
30
0
11
0.04
21
0.005625
31
0
0
LINE
8
CONTOUR
10
0.039903
20
0.0043165
30
0
11
0.04
21
0.004375
31
0
0
ENDSEC
0
EOF
